  0
SECTION
  2
HEADER
  9
$ACADVER
  1
AC1024
  9
$ACADMAINTVER
 70
6
  9
$DWGCODEPAGE
  3
ANSI_1252
  9
$LASTSAVEDBY
  1
ezdxf
  9
$INSBASE
 10
0.0
 20
0.0
 30
0.0
  9
$EXTMIN
 10
1e+20
 20
1e+20
 30
1e+20
  9
$EXTMAX
 10
-1e+20
 20
-1e+20
 30
-1e+20
  9
$LIMMIN
 10
0.0
 20
0.0
  9
$LIMMAX
 10
420.0
 20
297.0
  9
$ORTHOMODE
 70
0
  9
$REGENMODE
 70
1
  9
$FILLMODE
 70
1
  9
$QTEXTMODE
 70
0
  9
$MIRRTEXT
 70
1
  9
$LTSCALE
 40
20.0
  9
$ATTMODE
 70
1
  9
$TEXTSIZE
 40
2.5
  9
$TRACEWID
 40
1.0
  9
$TEXTSTYLE
  7
OpenSans
  9
$CLAYER
  8
0
  9
$CELTYPE
  6
ByLayer
  9
$CECOLOR
 62
256
  9
$CELTSCALE
 40
1.0
  9
$DISPSILH
 70
0
  9
$DIMSCALE
 40
1.0
  9
$DIMASZ
 40
0.175
  9
$DIMEXO
 40
0.125
  9
$DIMDLI
 40
3.75
  9
$DIMRND
 40
0.0
  9
$DIMDLE
 40
0.0
  9
$DIMEXE
 40
0.375
  9
$DIMTP
 40
0.0
  9
$DIMTM
 40
0.0
  9
$DIMTXT
 40
0.25
  9
$DIMCEN
 40
2.5
  9
$DIMTSZ
 40
0.0
  9
$DIMTOL
 70
0
  9
$DIMLIM
 70
0
  9
$DIMTIH
 70
0
  9
$DIMTOH
 70
0
  9
$DIMSE1
 70
0
  9
$DIMSE2
 70
0
  9
$DIMTAD
 70
1
  9
$DIMZIN
 70
12
  9
$DIMBLK
  1
ARCHTICK
  9
$DIMASO
 70
1
  9
$DIMSHO
 70
1
  9
$DIMPOST
  1

  9
$DIMAPOST
  1

  9
$DIMALT
 70
0
  9
$DIMALTD
 70
3
  9
$DIMALTF
 40
0.03937007874
  9
$DIMLFAC
 40
100.0
  9
$DIMTOFL
 70
1
  9
$DIMTVP
 40
0.0
  9
$DIMTIX
 70
0
  9
$DIMSOXD
 70
0
  9
$DIMSAH
 70
0
  9
$DIMBLK1
  1

  9
$DIMBLK2
  1

  9
$DIMSTYLE
  2
EZDXF
  9
$DIMCLRD
 70
0
  9
$DIMCLRE
 70
0
  9
$DIMCLRT
 70
0
  9
$DIMTFAC
 40
0.5
  9
$DIMGAP
 40
0.1
  9
$DIMJUST
 70
0
  9
$DIMSD1
 70
0
  9
$DIMSD2
 70
0
  9
$DIMTOLJ
 70
0
  9
$DIMTZIN
 70
8
  9
$DIMALTZ
 70
0
  9
$DIMALTTZ
 70
0
  9
$DIMUPT
 70
1
  9
$DIMDEC
 70
2
  9
$DIMTDEC
 70
2
  9
$DIMALTU
 70
2
  9
$DIMALTTD
 70
3
  9
$DIMTXSTY
  7
OpenSansCondensed-Light
  9
$DIMAUNIT
 70
0
  9
$DIMADEC
 70
2
  9
$DIMALTRND
 40
0.0
  9
$DIMAZIN
 70
3
  9
$DIMDSEP
 70
46
  9
$DIMATFIT
 70
3
  9
$DIMFRAC
 70
0
  9
$DIMLDRBLK
  1

  9
$DIMLUNIT
 70
2
  9
$DIMLWD
 70
-2
  9
$DIMLWE
 70
-2
  9
$DIMTMOVE
 70
2
  9
$DIMFXL
 40
1.0
  9
$DIMFXLON
 70
0
  9
$DIMJOGANG
 40
0.785398163397
  9
$DIMTFILL
 70
0
  9
$DIMTFILLCLR
 70
0
  9
$DIMARCSYM
 70
0
  9
$DIMLTYPE
  6

  9
$DIMLTEX1
  6

  9
$DIMLTEX2
  6

  9
$DIMTXTDIRECTION
 70
0
  9
$LUNITS
 70
2
  9
$LUPREC
 70
4
  9
$SKETCHINC
 40
1.0
  9
$FILLETRAD
 40
10.0
  9
$AUNITS
 70
0
  9
$AUPREC
 70
2
  9
$MENU
  1
.
  9
$ELEVATION
 40
0.0
  9
$PELEVATION
 40
0.0
  9
$THICKNESS
 40
0.0
  9
$LIMCHECK
 70
0
  9
$CHAMFERA
 40
0.0
  9
$CHAMFERB
 40
0.0
  9
$CHAMFERC
 40
0.0
  9
$CHAMFERD
 40
0.0
  9
$SKPOLY
 70
0
  9
$TDCREATE
 40
2461320.945509259
  9
$TDUCREATE
 40
2458532.153996898
  9
$TDUPDATE
 40
2461320.945509259
  9
$TDUUPDATE
 40
2458532.1544311
  9
$TDINDWG
 40
0.0
  9
$TDUSRTIMER
 40
0.0
  9
$USRTIMER
 70
1
  9
$ANGBASE
 50
0.0
  9
$ANGDIR
 70
0
  9
$PDMODE
 70
0
  9
$PDSIZE
 40
0.0
  9
$PLINEWID
 40
0.0
  9
$SPLFRAME
 70
0
  9
$SPLINETYPE
 70
6
  9
$SPLINESEGS
 70
8
  9
$HANDSEED
  5
28D
  9
$SURFTAB1
 70
6
  9
$SURFTAB2
 70
6
  9
$SURFTYPE
 70
6
  9
$SURFU
 70
6
  9
$SURFV
 70
6
  9
$UCSBASE
  2

  9
$UCSNAME
  2

  9
$UCSORG
 10
0.0
 20
0.0
 30
0.0
  9
$UCSXDIR
 10
1.0
 20
0.0
 30
0.0
  9
$UCSYDIR
 10
0.0
 20
1.0
 30
0.0
  9
$UCSORTHOREF
  2

  9
$UCSORTHOVIEW
 70
0
  9
$UCSORGTOP
 10
0.0
 20
0.0
 30
0.0
  9
$UCSORGBOTTOM
 10
0.0
 20
0.0
 30
0.0
  9
$UCSORGLEFT
 10
0.0
 20
0.0
 30
0.0
  9
$UCSORGRIGHT
 10
0.0
 20
0.0
 30
0.0
  9
$UCSORGFRONT
 10
0.0
 20
0.0
 30
0.0
  9
$UCSORGBACK
 10
0.0
 20
0.0
 30
0.0
  9
$PUCSBASE
  2

  9
$PUCSNAME
  2

  9
$PUCSORG
 10
0.0
 20
0.0
 30
0.0
  9
$PUCSXDIR
 10
1.0
 20
0.0
 30
0.0
  9
$PUCSYDIR
 10
0.0
 20
1.0
 30
0.0
  9
$PUCSORTHOREF
  2

  9
$PUCSORTHOVIEW
 70
0
  9
$PUCSORGTOP
 10
0.0
 20
0.0
 30
0.0
  9
$PUCSORGBOTTOM
 10
0.0
 20
0.0
 30
0.0
  9
$PUCSORGLEFT
 10
0.0
 20
0.0
 30
0.0
  9
$PUCSORGRIGHT
 10
0.0
 20
0.0
 30
0.0
  9
$PUCSORGFRONT
 10
0.0
 20
0.0
 30
0.0
  9
$PUCSORGBACK
 10
0.0
 20
0.0
 30
0.0
  9
$USERI1
 70
0
  9
$USERI2
 70
0
  9
$USERI3
 70
0
  9
$USERI4
 70
0
  9
$USERI5
 70
0
  9
$USERR1
 40
0.0
  9
$USERR2
 40
0.0
  9
$USERR3
 40
0.0
  9
$USERR4
 40
0.0
  9
$USERR5
 40
0.0
  9
$WORLDVIEW
 70
1
  9
$SHADEDGE
 70
3
  9
$SHADEDIF
 70
70
  9
$TILEMODE
 70
1
  9
$MAXACTVP
 70
64
  9
$PINSBASE
 10
0.0
 20
0.0
 30
0.0
  9
$PLIMCHECK
 70
0
  9
$PEXTMIN
 10
1e+20
 20
1e+20
 30
1e+20
  9
$PEXTMAX
 10
-1e+20
 20
-1e+20
 30
-1e+20
  9
$PLIMMIN
 10
0.0
 20
0.0
  9
$PLIMMAX
 10
420.0
 20
297.0
  9
$UNITMODE
 70
0
  9
$VISRETAIN
 70
1
  9
$PLINEGEN
 70
0
  9
$PSLTSCALE
 70
1
  9
$TREEDEPTH
 70
3020
  9
$CMLSTYLE
  2
Standard
  9
$CMLJUST
 70
0
  9
$CMLSCALE
 40
20.0
  9
$PROXYGRAPHICS
 70
1
  9
$MEASUREMENT
 70
1
  9
$CELWEIGHT
370
-1
  9
$ENDCAPS
280
0
  9
$JOINSTYLE
280
0
  9
$LWDISPLAY
290
0
  9
$INSUNITS
 70
4
  9
$HYPERLINKBASE
  1

  9
$STYLESHEET
  1

  9
$XEDIT
290
1
  9
$CEPSNTYPE
380
0
  9
$PSTYLEMODE
290
1
  9
$FINGERPRINTGUID
  2
{0DB4BE3C-EF28-4A3C-9E3E-0798FA257F44}
  9
$VERSIONGUID
  2
{8FD6D7CE-E9B3-4ABD-9741-2D17E5FF55AC}
  9
$EXTNAMES
290
1
  9
$PSVPSCALE
 40
0.0
  9
$OLESTARTUP
290
0
  9
$SORTENTS
280
127
  9
$INDEXCTL
280
0
  9
$HIDETEXT
280
1
  9
$XCLIPFRAME
280
1
  9
$HALOGAP
280
0
  9
$OBSCOLOR
 70
257
  9
$OBSLTYPE
280
0
  9
$INTERSECTIONDISPLAY
280
0
  9
$INTERSECTIONCOLOR
 70
257
  9
$DIMASSOC
280
2
  9
$PROJECTNAME
  1

  9
$CAMERADISPLAY
290
0
  9
$LENSLENGTH
 40
50.0
  9
$CAMERAHEIGHT
 40
0.0
  9
$STEPSPERSEC
 40
24.0
  9
$STEPSIZE
 40
100.0
  9
$3DDWFPREC
 40
2.0
  9
$PSOLWIDTH
 40
0.005
  9
$PSOLHEIGHT
 40
0.08
  9
$LOFTANG1
 40
1.570796326795
  9
$LOFTANG2
 40
1.570796326795
  9
$LOFTMAG1
 40
0.0
  9
$LOFTMAG2
 40
0.0
  9
$LOFTPARAM
 70
7
  9
$LOFTNORMALS
280
1
  9
$LATITUDE
 40
37.795
  9
$LONGITUDE
 40
-122.394
  9
$NORTHDIRECTION
 40
0.0
  9
$TIMEZONE
 70
-8000
  9
$LIGHTGLYPHDISPLAY
280
1
  9
$TILEMODELIGHTSYNCH
280
1
  9
$CMATERIAL
347
20
  9
$SOLIDHIST
280
0
  9
$SHOWHIST
280
1
  9
$DWFFRAME
280
2
  9
$DGNFRAME
280
2
  9
$REALWORLDSCALE
290
1
  9
$INTERFERECOLOR
 62
256
  9
$CSHADOW
280
0
  9
$SHADOWPLANELOCATION
 40
0.0
  0
ENDSEC
  0
SECTION
  2
CLASSES
  0
CLASS
  1
ACDBDICTIONARYWDFLT
  2
AcDbDictionaryWithDefault
  3
ObjectDBX Classes
 90
0
 91
0
280
0
281
0
  0
CLASS
  1
SUN
  2
AcDbSun
  3
SCENEOE
 90
1153
 91
0
280
0
281
0
  0
CLASS
  1
VISUALSTYLE
  2
AcDbVisualStyle
  3
ObjectDBX Classes
 90
4095
 91
0
280
0
281
0
  0
CLASS
  1
MATERIAL
  2
AcDbMaterial
  3
ObjectDBX Classes
 90
1153
 91
0
280
0
281
0
  0
CLASS
  1
SCALE
  2
AcDbScale
  3
ObjectDBX Classes
 90
1153
 91
0
280
0
281
0
  0
CLASS
  1
TABLESTYLE
  2
AcDbTableStyle
  3
ObjectDBX Classes
 90
4095
 91
0
280
0
281
0
  0
CLASS
  1
MLEADERSTYLE
  2
AcDbMLeaderStyle
  3
ACDB_MLEADERSTYLE_CLASS
 90
4095
 91
0
280
0
281
0
  0
CLASS
  1
DICTIONARYVAR
  2
AcDbDictionaryVar
  3
ObjectDBX Classes
 90
0
 91
0
280
0
281
0
  0
CLASS
  1
CELLSTYLEMAP
  2
AcDbCellStyleMap
  3
ObjectDBX Classes
 90
1152
 91
0
280
0
281
0
  0
CLASS
  1
MENTALRAYRENDERSETTINGS
  2
AcDbMentalRayRenderSettings
  3
SCENEOE
 90
1024
 91
0
280
0
281
0
  0
CLASS
  1
ACDBDETAILVIEWSTYLE
  2
AcDbDetailViewStyle
  3
ObjectDBX Classes
 90
1025
 91
0
280
0
281
0
  0
CLASS
  1
ACDBSECTIONVIEWSTYLE
  2
AcDbSectionViewStyle
  3
ObjectDBX Classes
 90
1025
 91
0
280
0
281
0
  0
CLASS
  1
RASTERVARIABLES
  2
AcDbRasterVariables
  3
ISM
 90
0
 91
0
280
0
281
0
  0
CLASS
  1
LAYOUT
  2
AcDbLayout
  3
ObjectDBX Classes
 90
0
 91
0
280
0
281
0
  0
CLASS
  1
ACDBPLACEHOLDER
  2
AcDbPlaceHolder
  3
ObjectDBX Classes
 90
0
 91
0
280
0
281
0
  0
ENDSEC
  0
SECTION
  2
TABLES
  0
TABLE
  2
VPORT
  5
8
330
0
100
AcDbSymbolTable
 70
1
  0
VPORT
  5
23
330
8
100
AcDbSymbolTableRecord
100
AcDbViewportTableRecord
  2
*Active
 70
0
 10
0.0
 20
0.0
 11
1.0
 21
1.0
 12
0.0
 22
0.0
 13
0.0
 23
0.0
 14
0.5
 24
0.5
 15
0.5
 25
0.5
 16
0.0
 26
0.0
 36
1.0
 17
0.0
 27
0.0
 37
0.0
 40
1000.0
 41
1.34
 42
50.0
 43
0.0
 44
0.0
 50
0.0
 51
0.0
 71
0
 72
1000
 73
1
 74
3
 75
0
 76
0
 77
0
 78
0
281
0
 65
0
146
0.0
  0
ENDTAB
  0
TABLE
  2
LTYPE
  5
2
330
0
100
AcDbSymbolTable
 70
21
  0
LTYPE
  5
24
330
2
100
AcDbSymbolTableRecord
100
AcDbLinetypeTableRecord
  2
ByBlock
 70
0
  3

 72
65
 73
0
 40
0.0
  0
LTYPE
  5
25
330
2
100
AcDbSymbolTableRecord
100
AcDbLinetypeTableRecord
  2
ByLayer
 70
0
  3

 72
65
 73
0
 40
0.0
  0
LTYPE
  5
26
330
2
100
AcDbSymbolTableRecord
100
AcDbLinetypeTableRecord
  2
Continuous
 70
0
  3

 72
65
 73
0
 40
0.0
  0
LTYPE
  5
2F
330
2
100
AcDbSymbolTableRecord
100
AcDbLinetypeTableRecord
  2
CENTER
 70
0
  3
Center ____ _ ____ _ ____ _ ____ _ ____ _ ____
 72
65
 73
4
 40
5.08
 49
3.175
 74
0
 49
-0.635
 74
0
 49
0.635
 74
0
 49
-0.635
 74
0
  0
LTYPE
  5
30
330
2
100
AcDbSymbolTableRecord
100
AcDbLinetypeTableRecord
  2
CENTERX2
 70
0
  3
Center (2x) ________  __  ________  __  ________
 72
65
 73
4
 40
8.89
 49
6.35
 74
0
 49
-0.635
 74
0
 49
1.27
 74
0
 49
-0.635
 74
0
  0
LTYPE
  5
31
330
2
100
AcDbSymbolTableRecord
100
AcDbLinetypeTableRecord
  2
CENTER2
 70
0
  3
Center (.5x) ____ _ ____ _ ____ _ ____ _ ____
 72
65
 73
4
 40
2.54
 49
1.587
 74
0
 49
-0.318
 74
0
 49
0.318
 74
0
 49
-0.318
 74
0
  0
LTYPE
  5
32
330
2
100
AcDbSymbolTableRecord
100
AcDbLinetypeTableRecord
  2
DASHED
 70
0
  3
Dashed __ __ __ __ __ __ __ __ __ __ __ __ __ _
 72
65
 73
2
 40
1.524
 49
1.27
 74
0
 49
-0.254
 74
0
  0
LTYPE
  5
33
330
2
100
AcDbSymbolTableRecord
100
AcDbLinetypeTableRecord
  2
DASHEDX2
 70
0
  3
Dashed (2x) ____  ____  ____  ____  ____  ____
 72
65
 73
2
 40
3.048
 49
2.54
 74
0
 49
-0.508
 74
0
  0
LTYPE
  5
34
330
2
100
AcDbSymbolTableRecord
100
AcDbLinetypeTableRecord
  2
DASHED2
 70
0
  3
Dashed (.5x) _ _ _ _ _ _ _ _ _ _ _ _ _ _
 72
65
 73
2
 40
0.762
 49
0.635
 74
0
 49
-0.127
 74
0
  0
LTYPE
  5
35
330
2
100
AcDbSymbolTableRecord
100
AcDbLinetypeTableRecord
  2
PHANTOM
 70
0
  3
Phantom ______  __  __  ______  __  __  ______
 72
65
 73
6
 40
6.35
 49
3.175
 74
0
 49
-0.635
 74
0
 49
0.635
 74
0
 49
-0.635
 74
0
 49
0.635
 74
0
 49
-0.635
 74
0
  0
LTYPE
  5
36
330
2
100
AcDbSymbolTableRecord
100
AcDbLinetypeTableRecord
  2
PHANTOMX2
 70
0
  3
Phantom (2x)____________    ____    ____    ____________
 72
65
 73
6
 40
10.795
 49
6.35
 74
0
 49
-0.635
 74
0
 49
1.27
 74
0
 49
-0.635
 74
0
 49
1.27
 74
0
 49
-0.635
 74
0
  0
LTYPE
  5
37
330
2
100
AcDbSymbolTableRecord
100
AcDbLinetypeTableRecord
  2
PHANTOM2
 70
0
  3
Phantom (.5x) ___ _ _ ___ _ _ ___ _ _ ___ _ _ ___
 72
65
 73
6
 40
3.175
 49
1.587
 74
0
 49
-0.318
 74
0
 49
0.318
 74
0
 49
-0.318
 74
0
 49
0.318
 74
0
 49
-0.318
 74
0
  0
LTYPE
  5
38
330
2
100
AcDbSymbolTableRecord
100
AcDbLinetypeTableRecord
  2
DASHDOT
 70
0
  3
Dash dot __ . __ . __ . __ . __ . __ . __ . __
 72
65
 73
4
 40
3.556
 49
2.54
 74
0
 49
-0.508
 74
0
 49
0.0
 74
0
 49
-0.508
 74
0
  0
LTYPE
  5
39
330
2
100
AcDbSymbolTableRecord
100
AcDbLinetypeTableRecord
  2
DASHDOTX2
 70
0
  3
Dash dot (2x) ____  .  ____  .  ____  .  ____
 72
65
 73
4
 40
6.096
 49
5.08
 74
0
 49
-0.508
 74
0
 49
0.0
 74
0
 49
-0.508
 74
0
  0
LTYPE
  5
3A
330
2
100
AcDbSymbolTableRecord
100
AcDbLinetypeTableRecord
  2
DASHDOT2
 70
0
  3
Dash dot (.5x) _ . _ . _ . _ . _ . _ . _ . _
 72
65
 73
4
 40
1.778
 49
1.27
 74
0
 49
-0.254
 74
0
 49
0.0
 74
0
 49
-0.254
 74
0
  0
LTYPE
  5
3B
330
2
100
AcDbSymbolTableRecord
100
AcDbLinetypeTableRecord
  2
DOT
 70
0
  3
Dot .  .  .  .  .  .  .  .  .  .  .  .  .  .  .  .
 72
65
 73
2
 40
0.508
 49
0.0
 74
0
 49
-0.508
 74
0
  0
LTYPE
  5
3C
330
2
100
AcDbSymbolTableRecord
100
AcDbLinetypeTableRecord
  2
DOTX2
 70
0
  3
Dot (2x) .    .    .    .    .    .    .    . 
 72
65
 73
2
 40
1.016
 49
0.0
 74
0
 49
-1.016
 74
0
  0
LTYPE
  5
3D
330
2
100
AcDbSymbolTableRecord
100
AcDbLinetypeTableRecord
  2
DOT2
 70
0
  3
Dot (.5) . . . . . . . . . . . . . . . . . . . 
 72
65
 73
2
 40
0.254
 49
0.0
 74
0
 49
-0.254
 74
0
  0
LTYPE
  5
3E
330
2
100
AcDbSymbolTableRecord
100
AcDbLinetypeTableRecord
  2
DIVIDE
 70
0
  3
Divide __ . . __ . . __ . . __ . . __ . . __
 72
65
 73
6
 40
4.064
 49
2.54
 74
0
 49
-0.508
 74
0
 49
0.0
 74
0
 49
-0.508
 74
0
 49
0.0
 74
0
 49
-0.508
 74
0
  0
LTYPE
  5
3F
330
2
100
AcDbSymbolTableRecord
100
AcDbLinetypeTableRecord
  2
DIVIDEX2
 70
0
  3
Divide (2x) ____  . .  ____  . .  ____  . .  ____
 72
65
 73
6
 40
6.604
 49
5.08
 74
0
 49
-0.508
 74
0
 49
0.0
 74
0
 49
-0.508
 74
0
 49
0.0
 74
0
 49
-0.508
 74
0
  0
LTYPE
  5
40
330
2
100
AcDbSymbolTableRecord
100
AcDbLinetypeTableRecord
  2
DIVIDE2
 70
0
  3
Divide(.5x) _ . _ . _ . _ . _ . _ . _ . _
 72
65
 73
6
 40
2.032
 49
1.27
 74
0
 49
-0.254
 74
0
 49
0.0
 74
0
 49
-0.254
 74
0
 49
0.0
 74
0
 49
-0.254
 74
0
  0
ENDTAB
  0
TABLE
  2
LAYER
  5
1
330
0
100
AcDbSymbolTable
 70
12
  0
LAYER
  5
27
330
1
100
AcDbSymbolTableRecord
100
AcDbLayerTableRecord
  2
0
 70
0
 62
7
  6
Continuous
370
-3
390
13
347
21
  0
LAYER
  5
28
330
1
100
AcDbSymbolTableRecord
100
AcDbLayerTableRecord
  2
Defpoints
 70
0
 62
7
  6
Continuous
290
0
370
-3
390
13
347
21
  0
LAYER
  5
8B
330
1
100
AcDbSymbolTableRecord
100
AcDbLayerTableRecord
  2
OUT
 70
0
 62
7
  6
CONTINUOUS
370
-3
390
13
347
21
  0
LAYER
  5
8C
330
1
100
AcDbSymbolTableRecord
100
AcDbLayerTableRecord
  2
THIN
 70
0
 62
8
  6
CONTINUOUS
370
-3
390
13
347
21
  0
LAYER
  5
8D
330
1
100
AcDbSymbolTableRecord
100
AcDbLayerTableRecord
  2
HID
 70
0
 62
2
  6
DASHED
370
-3
390
13
347
21
  0
LAYER
  5
8E
330
1
100
AcDbSymbolTableRecord
100
AcDbLayerTableRecord
  2
CEN
 70
0
 62
1
  6
CENTER
370
-3
390
13
347
21
  0
LAYER
  5
8F
330
1
100
AcDbSymbolTableRecord
100
AcDbLayerTableRecord
  2
PHA
 70
0
 62
6
  6
PHANTOM
370
-3
390
13
347
21
  0
LAYER
  5
90
330
1
100
AcDbSymbolTableRecord
100
AcDbLayerTableRecord
  2
DIM
 70
0
 62
3
  6
CONTINUOUS
370
-3
390
13
347
21
  0
LAYER
  5
91
330
1
100
AcDbSymbolTableRecord
100
AcDbLayerTableRecord
  2
TXT
 70
0
 62
7
  6
CONTINUOUS
370
-3
390
13
347
21
  0
LAYER
  5
92
330
1
100
AcDbSymbolTableRecord
100
AcDbLayerTableRecord
  2
HAT
 70
0
 62
8
  6
CONTINUOUS
370
-3
390
13
347
21
  0
LAYER
  5
93
330
1
100
AcDbSymbolTableRecord
100
AcDbLayerTableRecord
  2
SEC
 70
0
 62
5
  6
CONTINUOUS
370
-3
390
13
347
21
  0
LAYER
  5
94
330
1
100
AcDbSymbolTableRecord
100
AcDbLayerTableRecord
  2
FRM
 70
0
 62
7
  6
CONTINUOUS
370
-3
390
13
347
21
  0
ENDTAB
  0
TABLE
  2
STYLE
  5
5
330
0
100
AcDbSymbolTable
 70
27
  0
STYLE
  5
29
330
5
100
AcDbSymbolTableRecord
100
AcDbTextStyleTableRecord
  2
Standard
 70
0
 40
0.0
 41
1.0
 50
0.0
 71
0
 42
2.5
  3
txt
  4

  0
STYLE
  5
41
330
5
100
AcDbSymbolTableRecord
100
AcDbTextStyleTableRecord
  2
OpenSans-Light
 70
0
 40
0.0
 41
1.0
 50
0.0
 71
0
 42
2.5
  3
OpenSans-Light.ttf
  4

  0
STYLE
  5
42
330
5
100
AcDbSymbolTableRecord
100
AcDbTextStyleTableRecord
  2
OpenSans-Light-Italic
 70
0
 40
0.0
 41
1.0
 50
0.0
 71
0
 42
2.5
  3
OpenSans-LightItalic.ttf
  4

  0
STYLE
  5
43
330
5
100
AcDbSymbolTableRecord
100
AcDbTextStyleTableRecord
  2
OpenSans
 70
0
 40
0.0
 41
1.0
 50
0.0
 71
0
 42
2.5
  3
OpenSans-Regular.ttf
  4

  0
STYLE
  5
44
330
5
100
AcDbSymbolTableRecord
100
AcDbTextStyleTableRecord
  2
OpenSans-Italic
 70
0
 40
0.0
 41
1.0
 50
0.0
 71
0
 42
2.5
  3
OpenSans-Italic.ttf
  4

  0
STYLE
  5
45
330
5
100
AcDbSymbolTableRecord
100
AcDbTextStyleTableRecord
  2
OpenSans-SemiBold
 70
0
 40
0.0
 41
1.0
 50
0.0
 71
0
 42
2.5
  3
OpenSans-SemiBold.ttf
  4

  0
STYLE
  5
46
330
5
100
AcDbSymbolTableRecord
100
AcDbTextStyleTableRecord
  2
OpenSans-SemiBoldItalic
 70
0
 40
0.0
 41
1.0
 50
0.0
 71
0
 42
2.5
  3
OpenSans-SemiBoldItalic.ttf
  4

  0
STYLE
  5
47
330
5
100
AcDbSymbolTableRecord
100
AcDbTextStyleTableRecord
  2
OpenSans-Bold
 70
0
 40
0.0
 41
1.0
 50
0.0
 71
0
 42
2.5
  3
OpenSans-Bold.ttf
  4

  0
STYLE
  5
48
330
5
100
AcDbSymbolTableRecord
100
AcDbTextStyleTableRecord
  2
OpenSans-BoldItalic
 70
0
 40
0.0
 41
1.0
 50
0.0
 71
0
 42
2.5
  3
OpenSans-BoldItalic.ttf
  4

  0
STYLE
  5
49
330
5
100
AcDbSymbolTableRecord
100
AcDbTextStyleTableRecord
  2
OpenSans-ExtraBold
 70
0
 40
0.0
 41
1.0
 50
0.0
 71
0
 42
2.5
  3
OpenSans-ExtraBold.ttf
  4

  0
STYLE
  5
4A
330
5
100
AcDbSymbolTableRecord
100
AcDbTextStyleTableRecord
  2
OpenSans-ExtraBoldItalic
 70
0
 40
0.0
 41
1.0
 50
0.0
 71
0
 42
2.5
  3
OpenSans-ExtraBoldItalic.ttf
  4

  0
STYLE
  5
4B
330
5
100
AcDbSymbolTableRecord
100
AcDbTextStyleTableRecord
  2
OpenSansCondensed-Bold
 70
0
 40
0.0
 41
1.0
 50
0.0
 71
0
 42
2.5
  3
OpenSansCondensed-Bold.ttf
  4

  0
STYLE
  5
4C
330
5
100
AcDbSymbolTableRecord
100
AcDbTextStyleTableRecord
  2
OpenSansCondensed-Light
 70
0
 40
0.0
 41
1.0
 50
0.0
 71
0
 42
2.5
  3
OpenSansCondensed-Light.ttf
  4

  0
STYLE
  5
4D
330
5
100
AcDbSymbolTableRecord
100
AcDbTextStyleTableRecord
  2
OpenSansCondensed-Italic
 70
0
 40
0.0
 41
1.0
 50
0.0
 71
0
 42
2.5
  3
OpenSansCondensed-LightItalic.ttf
  4

  0
STYLE
  5
4E
330
5
100
AcDbSymbolTableRecord
100
AcDbTextStyleTableRecord
  2
LiberationSans
 70
0
 40
0.0
 41
1.0
 50
0.0
 71
0
 42
2.5
  3
LiberationSans-Regular.ttf
  4

  0
STYLE
  5
4F
330
5
100
AcDbSymbolTableRecord
100
AcDbTextStyleTableRecord
  2
LiberationSans-Bold
 70
0
 40
0.0
 41
1.0
 50
0.0
 71
0
 42
2.5
  3
LiberationSans-Bold.ttf
  4

  0
STYLE
  5
50
330
5
100
AcDbSymbolTableRecord
100
AcDbTextStyleTableRecord
  2
LiberationSans-BoldItalic
 70
0
 40
0.0
 41
1.0
 50
0.0
 71
0
 42
2.5
  3
LiberationSans-BoldItalic.ttf
  4

  0
STYLE
  5
51
330
5
100
AcDbSymbolTableRecord
100
AcDbTextStyleTableRecord
  2
LiberationSans-Italic
 70
0
 40
0.0
 41
1.0
 50
0.0
 71
0
 42
2.5
  3
LiberationSans-Italic.ttf
  4

  0
STYLE
  5
52
330
5
100
AcDbSymbolTableRecord
100
AcDbTextStyleTableRecord
  2
LiberationSerif
 70
0
 40
0.0
 41
1.0
 50
0.0
 71
0
 42
2.5
  3
LiberationSerif-Regular.ttf
  4

  0
STYLE
  5
53
330
5
100
AcDbSymbolTableRecord
100
AcDbTextStyleTableRecord
  2
LiberationSerif-Bold
 70
0
 40
0.0
 41
1.0
 50
0.0
 71
0
 42
2.5
  3
LiberationSerif-Bold.ttf
  4

  0
STYLE
  5
54
330
5
100
AcDbSymbolTableRecord
100
AcDbTextStyleTableRecord
  2
LiberationSerif-BoldItalic
 70
0
 40
0.0
 41
1.0
 50
0.0
 71
0
 42
2.5
  3
LiberationSerif-BoldItalic.ttf
  4

  0
STYLE
  5
55
330
5
100
AcDbSymbolTableRecord
100
AcDbTextStyleTableRecord
  2
LiberationSerif-Italic
 70
0
 40
0.0
 41
1.0
 50
0.0
 71
0
 42
2.5
  3
LiberationSerif-Italic.ttf
  4

  0
STYLE
  5
56
330
5
100
AcDbSymbolTableRecord
100
AcDbTextStyleTableRecord
  2
LiberationMono
 70
0
 40
0.0
 41
1.0
 50
0.0
 71
0
 42
2.5
  3
LiberationMono-Regular.ttf
  4

  0
STYLE
  5
57
330
5
100
AcDbSymbolTableRecord
100
AcDbTextStyleTableRecord
  2
LiberationMono-Bold
 70
0
 40
0.0
 41
1.0
 50
0.0
 71
0
 42
2.5
  3
LiberationMono-Bold.ttf
  4

  0
STYLE
  5
58
330
5
100
AcDbSymbolTableRecord
100
AcDbTextStyleTableRecord
  2
LiberationMono-BoldItalic
 70
0
 40
0.0
 41
1.0
 50
0.0
 71
0
 42
2.5
  3
LiberationMono-BoldItalic.ttf
  4

  0
STYLE
  5
59
330
5
100
AcDbSymbolTableRecord
100
AcDbTextStyleTableRecord
  2
LiberationMono-Italic
 70
0
 40
0.0
 41
1.0
 50
0.0
 71
0
 42
2.5
  3
LiberationMono-Italic.ttf
  4

  0
STYLE
  5
8A
330
5
100
AcDbSymbolTableRecord
100
AcDbTextStyleTableRecord
  2
KOR
 70
0
 40
0.0
 41
1.0
 50
0.0
 71
0
 42
2.5
  3
malgun.ttf
  4

  0
ENDTAB
  0
TABLE
  2
VIEW
  5
7
330
0
100
AcDbSymbolTable
 70
0
  0
ENDTAB
  0
TABLE
  2
UCS
  5
6
330
0
100
AcDbSymbolTable
 70
0
  0
ENDTAB
  0
TABLE
  2
APPID
  5
3
330
0
100
AcDbSymbolTable
 70
3
  0
APPID
  5
2A
330
3
100
AcDbSymbolTableRecord
100
AcDbRegAppTableRecord
  2
ACAD
 70
0
  0
APPID
  5
28A
330
3
100
AcDbSymbolTableRecord
100
AcDbRegAppTableRecord
  2
HATCHBACKGROUNDCOLOR
 70
0
  0
APPID
  5
28B
330
3
100
AcDbSymbolTableRecord
100
AcDbRegAppTableRecord
  2
EZDXF
 70
0
  0
ENDTAB
  0
TABLE
  2
DIMSTYLE
  5
4
330
0
100
AcDbSymbolTable
 70
12
100
AcDbDimStyleTable
  0
DIMSTYLE
105
2B
330
4
100
AcDbSymbolTableRecord
100
AcDbDimStyleTableRecord
  2
Standard
 70
0
 40
1.0
 41
2.5
 42
0.625
 43
3.75
 44
1.25
 45
0.0
 46
0.0
 47
0.0
 48
0.0
 49
2.5
140
2.5
141
2.5
142
0.0
143
0.03937007874
144
1.0
145
0.0
146
1.0
147
0.625
148
0.0
 69
0
 70
0
 71
0
 72
0
 73
0
 74
0
 75
0
 76
0
 77
1
 78
8
 79
3
170
0
171
3
172
1
173
0
174
0
175
0
176
0
177
0
178
0
179
2
271
2
272
2
273
2
274
3
275
0
276
0
277
2
278
44
279
0
280
0
281
0
282
0
283
0
284
8
285
0
286
0
288
0
289
3
290
0
371
-2
372
-2
  0
DIMSTYLE
105
73
330
4
100
AcDbSymbolTableRecord
100
AcDbDimStyleTableRecord
  2
EZDXF
 70
0
 40
1.0
 41
0.175
 42
0.125
 43
3.75
 44
0.375
 45
0.0
 46
0.0
 47
0.0
 48
0.0
 49
2.5
140
0.25
141
2.5
142
0.0
143
0.03937007874
144
100.0
145
0.0
146
0.5
147
0.1
148
0.0
 69
0
 70
0
 71
0
 72
0
 73
0
 74
0
 75
0
 76
0
 77
1
 78
12
 79
3
170
0
171
3
172
1
173
0
174
0
175
0
176
0
177
0
178
0
179
2
271
2
272
2
273
2
274
3
275
0
276
0
277
2
278
46
279
2
280
0
281
0
282
0
283
0
284
8
285
0
286
0
288
1
289
3
290
0
340
4C
342
74
371
-2
372
-2
  0
DIMSTYLE
105
7C
330
4
100
AcDbSymbolTableRecord
100
AcDbDimStyleTableRecord
  2
EZ_M_100_H25_CM
 70
0
 40
1.0
 41
0.25
 42
0.125
 43
3.75
 44
0.375
 45
0.0
 46
0.0
 47
0.0
 48
0.0
 49
2.5
140
0.25
141
2.5
142
0.125
143
0.03937007874
144
100.0
145
0.0
146
0.5
147
0.1
148
0.0
 69
0
 70
0
 71
0
 72
0
 73
0
 74
0
 75
0
 76
0
 77
1
 78
12
 79
3
170
0
171
3
172
1
173
0
174
0
175
0
176
0
177
0
178
0
179
2
271
2
272
2
273
2
274
3
275
0
276
0
277
2
278
46
279
2
280
0
281
0
282
0
283
0
284
8
285
0
286
0
288
1
289
3
290
0
340
4C
371
-2
372
-2
  0
DIMSTYLE
105
7D
330
4
100
AcDbSymbolTableRecord
100
AcDbDimStyleTableRecord
  2
EZ_M_50_H25_CM
 70
0
 40
1.0
 41
0.125
 42
0.0625
 43
3.75
 44
0.1875
 45
0.0
 46
0.0
 47
0.0
 48
0.0
 49
2.5
140
0.125
141
2.5
142
0.0625
143
0.03937007874
144
100.0
145
0.0
146
0.5
147
0.05
148
0.0
 69
0
 70
0
 71
0
 72
0
 73
0
 74
0
 75
0
 76
0
 77
1
 78
12
 79
3
170
0
171
3
172
1
173
0
174
0
175
0
176
0
177
0
178
0
179
2
271
2
272
2
273
2
274
3
275
0
276
0
277
2
278
46
279
2
280
0
281
0
282
0
283
0
284
8
285
0
286
0
288
1
289
3
290
0
340
4C
371
-2
372
-2
  0
DIMSTYLE
105
7E
330
4
100
AcDbSymbolTableRecord
100
AcDbDimStyleTableRecord
  2
EZ_M_25_H25_CM
 70
0
 40
1.0
 41
0.0625
 42
0.03125
 43
3.75
 44
0.09375
 45
0.0
 46
0.0
 47
0.0
 48
0.0
 49
2.5
140
0.0625
141
2.5
142
0.03125
143
0.03937007874
144
100.0
145
0.0
146
0.5
147
0.025
148
0.0
 69
0
 70
0
 71
0
 72
0
 73
0
 74
0
 75
0
 76
0
 77
1
 78
12
 79
3
170
0
171
3
172
1
173
0
174
0
175
0
176
0
177
0
178
0
179
2
271
2
272
2
273
2
274
3
275
0
276
0
277
2
278
46
279
2
280
0
281
0
282
0
283
0
284
8
285
0
286
0
288
1
289
3
290
0
340
4C
371
-2
372
-2
  0
DIMSTYLE
105
7F
330
4
100
AcDbSymbolTableRecord
100
AcDbDimStyleTableRecord
  2
EZ_M_20_H25_CM
 70
0
 40
1.0
 41
0.05
 42
0.025
 43
3.75
 44
0.07500000000000001
 45
0.0
 46
0.0
 47
0.0
 48
0.0
 49
2.5
140
0.05
141
2.5
142
0.025
143
0.03937007874
144
100.0
145
0.0
146
0.5
147
0.020000000000000004
148
0.0
 69
0
 70
0
 71
0
 72
0
 73
0
 74
0
 75
0
 76
0
 77
1
 78
12
 79
3
170
0
171
3
172
1
173
0
174
0
175
0
176
0
177
0
178
0
179
2
271
2
272
2
273
2
274
3
275
0
276
0
277
2
278
46
279
2
280
0
281
0
282
0
283
0
284
8
285
0
286
0
288
1
289
3
290
0
340
4C
371
-2
372
-2
  0
DIMSTYLE
105
80
330
4
100
AcDbSymbolTableRecord
100
AcDbDimStyleTableRecord
  2
EZ_M_10_H25_CM
 70
0
 40
1.0
 41
0.025
 42
0.0125
 43
3.75
 44
0.037500000000000006
 45
0.0
 46
0.0
 47
0.0
 48
0.0
 49
2.5
140
0.025
141
2.5
142
0.0125
143
0.03937007874
144
100.0
145
0.0
146
0.5
147
0.010000000000000002
148
0.0
 69
0
 70
0
 71
0
 72
0
 73
0
 74
0
 75
0
 76
0
 77
1
 78
12
 79
3
170
0
171
3
172
1
173
0
174
0
175
0
176
0
177
0
178
0
179
2
271
2
272
2
273
2
274
3
275
0
276
0
277
2
278
46
279
2
280
0
281
0
282
0
283
0
284
8
285
0
286
0
288
1
289
3
290
0
340
4C
371
-2
372
-2
  0
DIMSTYLE
105
81
330
4
100
AcDbSymbolTableRecord
100
AcDbDimStyleTableRecord
  2
EZ_M_5_H25_CM
 70
0
 40
1.0
 41
0.0125
 42
0.00625
 43
3.75
 44
0.018750000000000003
 45
0.0
 46
0.0
 47
0.0
 48
0.0
 49
2.5
140
0.0125
141
2.5
142
0.00625
143
0.03937007874
144
100.0
145
0.0
146
0.5
147
0.005000000000000001
148
0.0
 69
0
 70
0
 71
0
 72
0
 73
0
 74
0
 75
0
 76
0
 77
1
 78
12
 79
3
170
0
171
3
172
1
173
0
174
0
175
0
176
0
177
0
178
0
179
2
271
2
272
2
273
2
274
3
275
0
276
0
277
2
278
46
279
2
280
0
281
0
282
0
283
0
284
8
285
0
286
0
288
1
289
3
290
0
340
4C
371
-2
372
-2
  0
DIMSTYLE
105
82
330
4
100
AcDbSymbolTableRecord
100
AcDbDimStyleTableRecord
  2
EZ_M_1_H25_CM
 70
0
 40
1.0
 41
0.0025
 42
0.00125
 43
3.75
 44
0.00375
 45
0.0
 46
0.0
 47
0.0
 48
0.0
 49
2.5
140
0.0025
141
2.5
142
0.00125
143
0.03937007874
144
100.0
145
0.0
146
0.5
147
0.001
148
0.0
 69
0
 70
0
 71
0
 72
0
 73
0
 74
0
 75
0
 76
0
 77
1
 78
12
 79
3
170
0
171
3
172
1
173
0
174
0
175
0
176
0
177
0
178
0
179
2
271
2
272
2
273
2
274
3
275
0
276
0
277
2
278
46
279
2
280
0
281
0
282
0
283
0
284
8
285
0
286
0
288
1
289
3
290
0
340
4C
371
-2
372
-2
  0
DIMSTYLE
105
83
330
4
100
AcDbSymbolTableRecord
100
AcDbDimStyleTableRecord
  2
EZ_RADIUS
 70
0
 40
1.0
 41
0.25
 42
0.125
 43
3.75
 44
0.375
 45
0.0
 46
0.0
 47
0.0
 48
0.0
 49
2.5
140
0.25
141
0.0
142
0.0
143
0.03937007874
144
100.0
145
0.0
146
0.5
147
0.1
148
0.0
 69
0
 70
0
 71
0
 72
0
 73
0
 74
0
 75
0
 76
0
 77
1
 78
12
 79
3
170
0
171
3
172
0
173
0
174
0
175
0
176
0
177
0
178
0
179
2
271
2
272
2
273
2
274
3
275
0
276
0
277
2
278
46
279
1
280
0
281
0
282
0
283
0
284
8
285
0
286
0
288
1
289
3
290
0
340
4C
342
84
371
-2
372
-2
  0
DIMSTYLE
105
88
330
4
100
AcDbSymbolTableRecord
100
AcDbDimStyleTableRecord
  2
EZ_RADIUS_INSIDE
 70
0
 40
1.0
 41
0.25
 42
0.125
 43
3.75
 44
0.375
 45
0.0
 46
0.0
 47
0.0
 48
0.0
 49
2.5
140
0.25
141
0.0
142
0.0
143
0.03937007874
144
100.0
145
0.0
146
0.5
147
0.1
148
0.0
 69
0
 70
0
 71
0
 72
0
 73
0
 74
0
 75
0
 76
0
 77
0
 78
12
 79
3
170
0
171
3
172
0
173
0
174
1
175
0
176
0
177
0
178
0
179
2
271
2
272
2
273
2
274
3
275
0
276
0
277
2
278
46
279
0
280
0
281
0
282
0
283
0
284
8
285
0
286
0
288
1
289
0
290
0
340
4C
342
84
371
-2
372
-2
  0
DIMSTYLE
105
89
330
4
100
AcDbSymbolTableRecord
100
AcDbDimStyleTableRecord
  2
EZ_CURVED
 70
0
 40
1.0
 41
0.25
 42
0.125
 43
3.75
 44
0.375
 45
0.0
 46
0.0
 47
0.0
 48
0.0
 49
2.5
140
0.25
141
2.5
142
0.0
143
0.03937007874
144
100.0
145
0.0
146
0.5
147
0.1
148
0.0
 69
0
 70
0
 71
0
 72
0
 73
0
 74
0
 75
0
 76
0
 77
1
 78
12
 79
2
 90
2
170
0
171
3
172
1
173
0
174
0
175
0
176
0
177
0
178
0
179
2
271
2
272
2
273
2
274
3
275
0
276
0
277
2
278
46
279
2
280
0
281
0
282
0
283
0
284
8
285
0
286
0
288
1
289
3
290
0
340
4C
371
-2
372
-2
  0
ENDTAB
  0
TABLE
  2
BLOCK_RECORD
  5
9
330
0
100
AcDbSymbolTable
 70
5
  0
BLOCK_RECORD
  5
17
330
9
100
AcDbSymbolTableRecord
100
AcDbBlockTableRecord
  2
*Model_Space
340
1A
 70
0
280
1
281
0
  0
BLOCK_RECORD
  5
1B
330
9
100
AcDbSymbolTableRecord
100
AcDbBlockTableRecord
  2
*Paper_Space
340
1E
 70
0
280
1
281
0
  0
BLOCK_RECORD
  5
74
330
9
100
AcDbSymbolTableRecord
100
AcDbBlockTableRecord
  2
_ARCHTICK
340
0
 70
0
280
1
281
0
  0
BLOCK_RECORD
  5
78
330
9
100
AcDbSymbolTableRecord
100
AcDbBlockTableRecord
  2
_CLOSEDFILLED
340
0
 70
0
280
1
281
0
  0
BLOCK_RECORD
  5
84
330
9
100
AcDbSymbolTableRecord
100
AcDbBlockTableRecord
  2
_CLOSEDBLANK
340
0
 70
0
280
1
281
0
  0
ENDTAB
  0
ENDSEC
  0
SECTION
  2
BLOCKS
  0
BLOCK
  5
18
330
17
100
AcDbEntity
  8
0
100
AcDbBlockBegin
  2
*Model_Space
 70
0
 10
0.0
 20
0.0
 30
0.0
  3
*Model_Space
  1

  0
ENDBLK
  5
19
330
17
100
AcDbEntity
  8
0
100
AcDbBlockEnd
  0
BLOCK
  5
1C
330
1B
100
AcDbEntity
  8
0
100
AcDbBlockBegin
  2
*Paper_Space
 70
0
 10
0.0
 20
0.0
 30
0.0
  3
*Paper_Space
  1

  0
ENDBLK
  5
1D
330
1B
100
AcDbEntity
  8
0
100
AcDbBlockEnd
  0
BLOCK
  5
75
330
74
100
AcDbEntity
  8
0
100
AcDbBlockBegin
  2
_ARCHTICK
 70
0
 10
0.0
 20
0.0
 30
0.0
  3
_ARCHTICK
  1

  0
LWPOLYLINE
  5
77
330
74
100
AcDbEntity
  8
0
  6
BYBLOCK
 62
0
100
AcDbPolyline
 90
2
 70
0
 43
0.15
 10
-0.5
 20
-0.5
 10
0.5
 20
0.5
  0
ENDBLK
  5
76
330
74
100
AcDbEntity
  8
0
100
AcDbBlockEnd
  0
BLOCK
  5
79
330
78
100
AcDbEntity
  8
0
100
AcDbBlockBegin
  2
_CLOSEDFILLED
 70
0
 10
0.0
 20
0.0
 30
0.0
  3
_CLOSEDFILLED
  1

  0
SOLID
  5
7B
330
78
100
AcDbEntity
  8
0
  6
BYBLOCK
 62
0
100
AcDbTrace
 10
-1.0
 20
0.16439898372402537
 30
0.0
 11
0.0
 21
0.0
 31
0.0
 12
-1.0
 22
-0.16439898372402537
 32
0.0
 13
-1.0
 23
-0.16439898372402537
 33
0.0
  0
ENDBLK
  5
7A
330
78
100
AcDbEntity
  8
0
100
AcDbBlockEnd
  0
BLOCK
  5
85
330
84
100
AcDbEntity
  8
0
100
AcDbBlockBegin
  2
_CLOSEDBLANK
 70
0
 10
0.0
 20
0.0
 30
0.0
  3
_CLOSEDBLANK
  1

  0
LWPOLYLINE
  5
87
330
84
100
AcDbEntity
  8
0
  6
BYBLOCK
 62
0
100
AcDbPolyline
 90
3
 70
1
 10
-1.0
 20
0.16439898372402537
 10
0.0
 20
0.0
 10
-1.0
 20
-0.16439898372402537
  0
ENDBLK
  5
86
330
84
100
AcDbEntity
  8
0
100
AcDbBlockEnd
  0
ENDSEC
  0
SECTION
  2
ENTITIES
  0
LWPOLYLINE
  5
95
330
17
100
AcDbEntity
  8
FRM
100
AcDbPolyline
 90
4
 70
1
 10
200.0
 20
200.0
 10
8200.0
 20
200.0
 10
8200.0
 20
5740.0
 10
200.0
 20
5740.0
  0
HATCH
  5
96
330
17
100
AcDbEntity
  8
HAT
 62
7
100
AcDbHatch
 10
0.0
 20
0.0
 30
0.0
210
0.0
220
0.0
230
1.0
  2
AR-CONC
 70
0
 71
0
 91
1
 92
3
 72
0
 73
1
 93
8
 10
750.0
 20
2850.0
 10
750.0
 20
1050.0
 10
2550.0
 20
1050.0
 10
2550.0
 20
2850.0
 10
2225.0
 20
2850.0
 10
2225.0
 20
1275.0
 10
1075.0
 20
1275.0
 10
1075.0
 20
2850.0
 97
0
 75
1
 76
1
 52
0.0
 41
1.0
 77
0
 78
13
 53
50.0
 43
0.0
 44
0.0
 45
182.184668996
 46
-15.9390855389
 79
2
 49
19.05
 49
-209.55
 53
355.0
 43
0.0
 44
0.0
 45
-35.243421425
 46
191.056845239
 79
2
 49
15.24
 49
-167.64058417
 53
100.4514447
 43
15.182007
 44
-1.3282535
 45
146.9412470904
 46
175.1177519122
 79
2
 49
16.1900088
 49
-178.0902446
 53
46.1842
 43
0.0
 44
50.8
 45
271.0790408921
 46
-42.0423279327
 79
2
 49
28.575
 49
-314.325
 53
96.63555761
 43
22.5899
 44
47.2965
 45
237.4041340515
 46
247.4261245977
 79
2
 49
24.28502314
 49
-267.13560816
 53
351.18415117
 43
0.0
 44
50.8
 45
237.404134065
 46
247.4261245855
 79
2
 49
22.85996707
 49
-251.45973192
 53
21.0
 43
25.4
 44
38.1
 45
151.6143912691
 46
-102.2651981871
 79
2
 49
19.05
 49
-209.55
 53
326.0
 43
25.4
 44
38.1
 45
61.8020283476
 46
184.1879661223
 79
2
 49
15.24
 49
-167.64
 53
71.451445
 43
38.0345326
 44
29.5779001
 45
213.4164192787
 46
81.9227688859
 79
2
 49
16.1900088
 49
-178.0899376
 53
37.5
 43
0.0
 44
0.0
 45
3.0886032506
 46
84.5550388732
 79
6
 49
0.0
 49
-165.608
 49
0.0
 49
-170.18
 49
0.0
 49
-168.275
 53
7.5
 43
0.0
 44
0.0
 45
66.8196625103
 46
100.1805748181
 79
6
 49
0.0
 49
-97.028
 49
0.0
 49
-161.798
 49
0.0
 49
-64.135
 53
-32.5
 43
-56.642
 44
0.0
 45
135.5905951669
 46
-5.7287439927
 79
6
 49
0.0
 49
-63.5
 49
0.0
 49
-198.12
 49
0.0
 49
-262.89
 53
-42.5
 43
-82.042
 44
0.0
 45
148.129181386
 46
25.4264910333
 79
6
 49
0.0
 49
-82.55
 49
0.0
 49
-131.572
 49
0.0
 49
-186.69
 98
0
  0
LWPOLYLINE
  5
97
330
17
100
AcDbEntity
  8
OUT
100
AcDbPolyline
 90
8
 70
1
 10
750.0
 20
2850.0
 10
750.0
 20
1050.0
 10
2550.0
 20
1050.0
 10
2550.0
 20
2850.0
 10
2225.0
 20
2850.0
 10
2225.0
 20
1275.0
 10
1075.0
 20
1275.0
 10
1075.0
 20
2850.0
  0
LINE
  5
98
330
17
100
AcDbEntity
  8
THIN
100
AcDbLine
 10
600.0
 20
1350.0
 30
0.0
 11
1075.0
 21
1350.0
 31
0.0
  0
LINE
  5
99
330
17
100
AcDbEntity
  8
HID
100
AcDbLine
 10
1000.0
 20
1275.0
 30
0.0
 11
1000.0
 21
2850.0
 31
0.0
  0
LINE
  5
9A
330
17
100
AcDbEntity
  8
HID
100
AcDbLine
 10
2300.0
 20
1275.0
 30
0.0
 11
2300.0
 21
2850.0
 31
0.0
  0
TEXT
  5
9B
330
17
100
AcDbEntity
  8
TXT
100
AcDbText
 10
2265.0
 20
2870.0
 30
0.0
 40
45.0
  1
측벽 콘크리트
  7
KOR
 11
2265.0
 21
2870.0
 31
0.0
100
AcDbText
 73
1
  0
LWPOLYLINE
  5
9C
330
17
100
AcDbEntity
  8
OUT
100
AcDbPolyline
 90
4
 70
1
 10
1075.0
 20
1275.0
 10
2225.0
 20
1275.0
 10
2225.0
 20
1350.0
 10
1075.0
 20
1350.0
  0
HATCH
  5
9D
330
17
100
AcDbEntity
  8
HAT
 62
7
100
AcDbHatch
 10
0.0
 20
0.0
 30
0.0
210
0.0
220
0.0
230
1.0
  2
ANSI31
 70
0
 71
0
 91
1
 92
3
 72
0
 73
1
 93
4
 10
1075.0
 20
1275.0
 10
2225.0
 20
1275.0
 10
2225.0
 20
1350.0
 10
1075.0
 20
1350.0
 97
0
 75
1
 76
1
 52
0.0
 41
10.0
 77
0
 78
1
 53
45.0
 43
0.0
 44
0.0
 45
-22.450640303
 46
22.450640303
 79
0
 98
0
  0
LWPOLYLINE
  5
9E
330
17
100
AcDbEntity
  8
OUT
100
AcDbPolyline
 90
4
 70
1
 10
1075.0
 20
1275.0
 10
1150.0
 20
1275.0
 10
1150.0
 20
3750.0
 10
1075.0
 20
3750.0
  0
LINE
  5
9F
330
17
100
AcDbEntity
  8
HID
100
AcDbLine
 10
1075.0
 20
1600.0
 30
0.0
 11
855.0
 21
1600.0
 31
0.0
  0
LINE
  5
A0
330
17
100
AcDbEntity
  8
HID
100
AcDbLine
 10
855.0
 20
1575.0
 30
0.0
 11
855.0
 21
1625.0
 31
0.0
  0
LINE
  5
A1
330
17
100
AcDbEntity
  8
HID
100
AcDbLine
 10
1075.0
 20
2100.0
 30
0.0
 11
855.0
 21
2100.0
 31
0.0
  0
LINE
  5
A2
330
17
100
AcDbEntity
  8
HID
100
AcDbLine
 10
855.0
 20
2075.0
 30
0.0
 11
855.0
 21
2125.0
 31
0.0
  0
LINE
  5
A3
330
17
100
AcDbEntity
  8
HID
100
AcDbLine
 10
1075.0
 20
2600.0
 30
0.0
 11
855.0
 21
2600.0
 31
0.0
  0
LINE
  5
A4
330
17
100
AcDbEntity
  8
HID
100
AcDbLine
 10
855.0
 20
2575.0
 30
0.0
 11
855.0
 21
2625.0
 31
0.0
  0
LWPOLYLINE
  5
A5
330
17
100
AcDbEntity
  8
OUT
100
AcDbPolyline
 90
4
 70
1
 10
2150.0
 20
1275.0
 10
2225.0
 20
1275.0
 10
2225.0
 20
3750.0
 10
2150.0
 20
3750.0
  0
LINE
  5
A6
330
17
100
AcDbEntity
  8
HID
100
AcDbLine
 10
2225.0
 20
1600.0
 30
0.0
 11
2445.0
 21
1600.0
 31
0.0
  0
LINE
  5
A7
330
17
100
AcDbEntity
  8
HID
100
AcDbLine
 10
2445.0
 20
1575.0
 30
0.0
 11
2445.0
 21
1625.0
 31
0.0
  0
LINE
  5
A8
330
17
100
AcDbEntity
  8
HID
100
AcDbLine
 10
2225.0
 20
2100.0
 30
0.0
 11
2445.0
 21
2100.0
 31
0.0
  0
LINE
  5
A9
330
17
100
AcDbEntity
  8
HID
100
AcDbLine
 10
2445.0
 20
2075.0
 30
0.0
 11
2445.0
 21
2125.0
 31
0.0
  0
LINE
  5
AA
330
17
100
AcDbEntity
  8
HID
100
AcDbLine
 10
2225.0
 20
2600.0
 30
0.0
 11
2445.0
 21
2600.0
 31
0.0
  0
LINE
  5
AB
330
17
100
AcDbEntity
  8
HID
100
AcDbLine
 10
2445.0
 20
2575.0
 30
0.0
 11
2445.0
 21
2625.0
 31
0.0
  0
LINE
  5
AC
330
17
100
AcDbEntity
  8
HID
100
AcDbLine
 10
1350.0
 20
1275.0
 30
0.0
 11
1350.0
 21
1090.0
 31
0.0
  0
LINE
  5
AD
330
17
100
AcDbEntity
  8
HID
100
AcDbLine
 10
1950.0
 20
1275.0
 30
0.0
 11
1950.0
 21
1090.0
 31
0.0
  0
LINE
  5
AE
330
17
100
AcDbEntity
  8
OUT
100
AcDbLine
 10
1150.0
 20
2450.0
 30
0.0
 11
2150.0
 21
2450.0
 31
0.0
  0
LINE
  5
AF
330
17
100
AcDbEntity
  8
HID
100
AcDbLine
 10
1150.0
 20
2450.0
 30
0.0
 11
1100.0
 21
2450.0
 31
0.0
  0
LINE
  5
B0
330
17
100
AcDbEntity
  8
HID
100
AcDbLine
 10
1100.0
 20
1350.0
 30
0.0
 11
1100.0
 21
2450.0
 31
0.0
  0
LINE
  5
B1
330
17
100
AcDbEntity
  8
HID
100
AcDbLine
 10
2150.0
 20
2450.0
 30
0.0
 11
2200.0
 21
2450.0
 31
0.0
  0
LINE
  5
B2
330
17
100
AcDbEntity
  8
HID
100
AcDbLine
 10
2200.0
 20
1350.0
 30
0.0
 11
2200.0
 21
2450.0
 31
0.0
  0
LINE
  5
B3
330
17
100
AcDbEntity
  8
OUT
100
AcDbLine
 10
1150.0
 20
1350.0
 30
0.0
 11
2150.0
 21
1350.0
 31
0.0
  0
LINE
  5
B4
330
17
100
AcDbEntity
  8
OUT
100
AcDbLine
 10
1150.0
 20
1370.0
 30
0.0
 11
2150.0
 21
1370.0
 31
0.0
  0
LINE
  5
B5
330
17
100
AcDbEntity
  8
OUT
100
AcDbLine
 10
1150.0
 20
1495.0
 30
0.0
 11
2150.0
 21
1495.0
 31
0.0
  0
LINE
  5
B6
330
17
100
AcDbEntity
  8
THIN
100
AcDbLine
 10
1150.0
 20
1378.0
 30
0.0
 11
2150.0
 21
1378.0
 31
0.0
  0
LINE
  5
B7
330
17
100
AcDbEntity
  8
THIN
100
AcDbLine
 10
1150.0
 20
1487.0
 30
0.0
 11
2150.0
 21
1487.0
 31
0.0
  0
LINE
  5
B8
330
17
100
AcDbEntity
  8
OUT
100
AcDbLine
 10
1150.0
 20
1730.0
 30
0.0
 11
2150.0
 21
1730.0
 31
0.0
  0
LINE
  5
B9
330
17
100
AcDbEntity
  8
OUT
100
AcDbLine
 10
1150.0
 20
1855.0
 30
0.0
 11
2150.0
 21
1855.0
 31
0.0
  0
LINE
  5
BA
330
17
100
AcDbEntity
  8
THIN
100
AcDbLine
 10
1150.0
 20
1738.0
 30
0.0
 11
2150.0
 21
1738.0
 31
0.0
  0
LINE
  5
BB
330
17
100
AcDbEntity
  8
THIN
100
AcDbLine
 10
1150.0
 20
1847.0
 30
0.0
 11
2150.0
 21
1847.0
 31
0.0
  0
LINE
  5
BC
330
17
100
AcDbEntity
  8
OUT
100
AcDbLine
 10
1150.0
 20
2050.0
 30
0.0
 11
2150.0
 21
2050.0
 31
0.0
  0
LINE
  5
BD
330
17
100
AcDbEntity
  8
OUT
100
AcDbLine
 10
1150.0
 20
2175.0
 30
0.0
 11
2150.0
 21
2175.0
 31
0.0
  0
LINE
  5
BE
330
17
100
AcDbEntity
  8
THIN
100
AcDbLine
 10
1150.0
 20
2058.0
 30
0.0
 11
2150.0
 21
2058.0
 31
0.0
  0
LINE
  5
BF
330
17
100
AcDbEntity
  8
THIN
100
AcDbLine
 10
1150.0
 20
2167.0
 30
0.0
 11
2150.0
 21
2167.0
 31
0.0
  0
LINE
  5
C0
330
17
100
AcDbEntity
  8
OUT
100
AcDbLine
 10
1150.0
 20
2325.0
 30
0.0
 11
2150.0
 21
2325.0
 31
0.0
  0
LINE
  5
C1
330
17
100
AcDbEntity
  8
OUT
100
AcDbLine
 10
1150.0
 20
2450.0
 30
0.0
 11
2150.0
 21
2450.0
 31
0.0
  0
LINE
  5
C2
330
17
100
AcDbEntity
  8
THIN
100
AcDbLine
 10
1150.0
 20
2333.0
 30
0.0
 11
2150.0
 21
2333.0
 31
0.0
  0
LINE
  5
C3
330
17
100
AcDbEntity
  8
THIN
100
AcDbLine
 10
1150.0
 20
2442.0
 30
0.0
 11
2150.0
 21
2442.0
 31
0.0
  0
LWPOLYLINE
  5
C4
330
17
100
AcDbEntity
  8
OUT
100
AcDbPolyline
 90
4
 70
1
 10
1395.0
 20
1495.0
 10
1405.0
 20
1495.0
 10
1405.0
 20
1730.0
 10
1395.0
 20
1730.0
  0
LWPOLYLINE
  5
C5
330
17
100
AcDbEntity
  8
OUT
100
AcDbPolyline
 90
4
 70
1
 10
1645.0
 20
1495.0
 10
1655.0
 20
1495.0
 10
1655.0
 20
1730.0
 10
1645.0
 20
1730.0
  0
LWPOLYLINE
  5
C6
330
17
100
AcDbEntity
  8
OUT
100
AcDbPolyline
 90
4
 70
1
 10
1895.0
 20
1495.0
 10
1905.0
 20
1495.0
 10
1905.0
 20
1730.0
 10
1895.0
 20
1730.0
  0
LWPOLYLINE
  5
C7
330
17
100
AcDbEntity
  8
OUT
100
AcDbPolyline
 90
4
 70
1
 10
1395.0
 20
1855.0
 10
1405.0
 20
1855.0
 10
1405.0
 20
2050.0
 10
1395.0
 20
2050.0
  0
LWPOLYLINE
  5
C8
330
17
100
AcDbEntity
  8
OUT
100
AcDbPolyline
 90
4
 70
1
 10
1645.0
 20
1855.0
 10
1655.0
 20
1855.0
 10
1655.0
 20
2050.0
 10
1645.0
 20
2050.0
  0
LWPOLYLINE
  5
C9
330
17
100
AcDbEntity
  8
OUT
100
AcDbPolyline
 90
4
 70
1
 10
1895.0
 20
1855.0
 10
1905.0
 20
1855.0
 10
1905.0
 20
2050.0
 10
1895.0
 20
2050.0
  0
LWPOLYLINE
  5
CA
330
17
100
AcDbEntity
  8
OUT
100
AcDbPolyline
 90
4
 70
1
 10
1395.0
 20
2175.0
 10
1405.0
 20
2175.0
 10
1405.0
 20
2325.0
 10
1395.0
 20
2325.0
  0
LWPOLYLINE
  5
CB
330
17
100
AcDbEntity
  8
OUT
100
AcDbPolyline
 90
4
 70
1
 10
1645.0
 20
2175.0
 10
1655.0
 20
2175.0
 10
1655.0
 20
2325.0
 10
1645.0
 20
2325.0
  0
LWPOLYLINE
  5
CC
330
17
100
AcDbEntity
  8
OUT
100
AcDbPolyline
 90
4
 70
1
 10
1895.0
 20
2175.0
 10
1905.0
 20
2175.0
 10
1905.0
 20
2325.0
 10
1895.0
 20
2325.0
  0
LINE
  5
CD
330
17
100
AcDbEntity
  8
HID
100
AcDbLine
 10
1150.0
 20
1365.0
 30
0.0
 11
2150.0
 21
1365.0
 31
0.0
  0
LWPOLYLINE
  5
CE
330
17
100
AcDbEntity
  8
OUT
100
AcDbPolyline
 90
6
 70
1
 10
1590.0
 20
2450.0
 10
1710.0
 20
2450.0
 10
1710.0
 20
2540.0
 10
1680.0
 20
2570.0
 10
1620.0
 20
2570.0
 10
1590.0
 20
2540.0
  0
CIRCLE
  5
CF
330
17
100
AcDbEntity
  8
OUT
100
AcDbCircle
 10
1650.0
 20
2520.0
 30
0.0
 40
15.0
  0
LINE
  5
D0
330
17
100
AcDbEntity
  8
OUT
100
AcDbLine
 10
1625.0
 20
2570.0
 30
0.0
 11
1625.0
 21
3750.0
 31
0.0
  0
LINE
  5
D1
330
17
100
AcDbEntity
  8
OUT
100
AcDbLine
 10
1675.0
 20
2570.0
 30
0.0
 11
1675.0
 21
3750.0
 31
0.0
  0
LINE
  5
D2
330
17
100
AcDbEntity
  8
THIN
100
AcDbLine
 10
1663.0
 20
2600.0
 30
0.0
 11
1675.0
 21
2600.0
 31
0.0
  0
LINE
  5
D3
330
17
100
AcDbEntity
  8
THIN
100
AcDbLine
 10
1663.0
 20
2640.0
 30
0.0
 11
1675.0
 21
2640.0
 31
0.0
  0
LINE
  5
D4
330
17
100
AcDbEntity
  8
THIN
100
AcDbLine
 10
1663.0
 20
2680.0
 30
0.0
 11
1675.0
 21
2680.0
 31
0.0
  0
LINE
  5
D5
330
17
100
AcDbEntity
  8
THIN
100
AcDbLine
 10
1663.0
 20
2720.0
 30
0.0
 11
1675.0
 21
2720.0
 31
0.0
  0
LINE
  5
D6
330
17
100
AcDbEntity
  8
THIN
100
AcDbLine
 10
1663.0
 20
2760.0
 30
0.0
 11
1675.0
 21
2760.0
 31
0.0
  0
LINE
  5
D7
330
17
100
AcDbEntity
  8
THIN
100
AcDbLine
 10
1663.0
 20
2800.0
 30
0.0
 11
1675.0
 21
2800.0
 31
0.0
  0
LINE
  5
D8
330
17
100
AcDbEntity
  8
THIN
100
AcDbLine
 10
1663.0
 20
2840.0
 30
0.0
 11
1675.0
 21
2840.0
 31
0.0
  0
LINE
  5
D9
330
17
100
AcDbEntity
  8
THIN
100
AcDbLine
 10
1663.0
 20
2880.0
 30
0.0
 11
1675.0
 21
2880.0
 31
0.0
  0
LINE
  5
DA
330
17
100
AcDbEntity
  8
THIN
100
AcDbLine
 10
1663.0
 20
2920.0
 30
0.0
 11
1675.0
 21
2920.0
 31
0.0
  0
LINE
  5
DB
330
17
100
AcDbEntity
  8
THIN
100
AcDbLine
 10
1663.0
 20
2960.0
 30
0.0
 11
1675.0
 21
2960.0
 31
0.0
  0
LINE
  5
DC
330
17
100
AcDbEntity
  8
THIN
100
AcDbLine
 10
1663.0
 20
3000.0
 30
0.0
 11
1675.0
 21
3000.0
 31
0.0
  0
LINE
  5
DD
330
17
100
AcDbEntity
  8
THIN
100
AcDbLine
 10
1663.0
 20
3040.0
 30
0.0
 11
1675.0
 21
3040.0
 31
0.0
  0
LINE
  5
DE
330
17
100
AcDbEntity
  8
THIN
100
AcDbLine
 10
1663.0
 20
3080.0
 30
0.0
 11
1675.0
 21
3080.0
 31
0.0
  0
LINE
  5
DF
330
17
100
AcDbEntity
  8
THIN
100
AcDbLine
 10
1663.0
 20
3120.0
 30
0.0
 11
1675.0
 21
3120.0
 31
0.0
  0
LINE
  5
E0
330
17
100
AcDbEntity
  8
THIN
100
AcDbLine
 10
1663.0
 20
3160.0
 30
0.0
 11
1675.0
 21
3160.0
 31
0.0
  0
LINE
  5
E1
330
17
100
AcDbEntity
  8
THIN
100
AcDbLine
 10
1663.0
 20
3200.0
 30
0.0
 11
1675.0
 21
3200.0
 31
0.0
  0
LINE
  5
E2
330
17
100
AcDbEntity
  8
THIN
100
AcDbLine
 10
1663.0
 20
3240.0
 30
0.0
 11
1675.0
 21
3240.0
 31
0.0
  0
LINE
  5
E3
330
17
100
AcDbEntity
  8
THIN
100
AcDbLine
 10
1663.0
 20
3280.0
 30
0.0
 11
1675.0
 21
3280.0
 31
0.0
  0
LINE
  5
E4
330
17
100
AcDbEntity
  8
THIN
100
AcDbLine
 10
1663.0
 20
3320.0
 30
0.0
 11
1675.0
 21
3320.0
 31
0.0
  0
LINE
  5
E5
330
17
100
AcDbEntity
  8
THIN
100
AcDbLine
 10
1663.0
 20
3360.0
 30
0.0
 11
1675.0
 21
3360.0
 31
0.0
  0
LINE
  5
E6
330
17
100
AcDbEntity
  8
THIN
100
AcDbLine
 10
1663.0
 20
3400.0
 30
0.0
 11
1675.0
 21
3400.0
 31
0.0
  0
LINE
  5
E7
330
17
100
AcDbEntity
  8
THIN
100
AcDbLine
 10
1663.0
 20
3440.0
 30
0.0
 11
1675.0
 21
3440.0
 31
0.0
  0
LINE
  5
E8
330
17
100
AcDbEntity
  8
THIN
100
AcDbLine
 10
1663.0
 20
3480.0
 30
0.0
 11
1675.0
 21
3480.0
 31
0.0
  0
LINE
  5
E9
330
17
100
AcDbEntity
  8
THIN
100
AcDbLine
 10
1663.0
 20
3520.0
 30
0.0
 11
1675.0
 21
3520.0
 31
0.0
  0
LINE
  5
EA
330
17
100
AcDbEntity
  8
THIN
100
AcDbLine
 10
1663.0
 20
3560.0
 30
0.0
 11
1675.0
 21
3560.0
 31
0.0
  0
LINE
  5
EB
330
17
100
AcDbEntity
  8
THIN
100
AcDbLine
 10
1663.0
 20
3600.0
 30
0.0
 11
1675.0
 21
3600.0
 31
0.0
  0
LINE
  5
EC
330
17
100
AcDbEntity
  8
THIN
100
AcDbLine
 10
1663.0
 20
3640.0
 30
0.0
 11
1675.0
 21
3640.0
 31
0.0
  0
LINE
  5
ED
330
17
100
AcDbEntity
  8
THIN
100
AcDbLine
 10
1663.0
 20
3680.0
 30
0.0
 11
1675.0
 21
3680.0
 31
0.0
  0
LINE
  5
EE
330
17
100
AcDbEntity
  8
THIN
100
AcDbLine
 10
1663.0
 20
3720.0
 30
0.0
 11
1675.0
 21
3720.0
 31
0.0
  0
LWPOLYLINE
  5
EF
330
17
100
AcDbEntity
  8
HID
100
AcDbPolyline
 90
4
 70
0
 10
1625.0
 20
3750.0
 10
1625.0
 20
4300.0
 10
1675.0
 20
4300.0
 10
1675.0
 20
3750.0
  0
LWPOLYLINE
  5
F0
330
17
100
AcDbEntity
  8
OUT
100
AcDbPolyline
 90
4
 70
1
 10
1000.0
 20
3750.0
 10
2300.0
 20
3750.0
 10
2300.0
 20
3900.0
 10
1000.0
 20
3900.0
  0
LINE
  5
F1
330
17
100
AcDbEntity
  8
THIN
100
AcDbLine
 10
1000.0
 20
3760.0
 30
0.0
 11
2300.0
 21
3760.0
 31
0.0
  0
LINE
  5
F2
330
17
100
AcDbEntity
  8
THIN
100
AcDbLine
 10
1000.0
 20
3890.0
 30
0.0
 11
2300.0
 21
3890.0
 31
0.0
  0
CIRCLE
  5
F3
330
17
100
AcDbEntity
  8
THIN
100
AcDbCircle
 10
1040.0
 20
3825.0
 30
0.0
 40
9.0
  0
CIRCLE
  5
F4
330
17
100
AcDbEntity
  8
THIN
100
AcDbCircle
 10
1110.0
 20
3825.0
 30
0.0
 40
9.0
  0
CIRCLE
  5
F5
330
17
100
AcDbEntity
  8
THIN
100
AcDbCircle
 10
2260.0
 20
3825.0
 30
0.0
 40
9.0
  0
CIRCLE
  5
F6
330
17
100
AcDbEntity
  8
THIN
100
AcDbCircle
 10
2190.0
 20
3825.0
 30
0.0
 40
9.0
  0
LWPOLYLINE
  5
F7
330
17
100
AcDbEntity
  8
OUT
100
AcDbPolyline
 90
4
 70
1
 10
1425.0
 20
3900.0
 10
1875.0
 20
3900.0
 10
1875.0
 20
3920.0
 10
1425.0
 20
3920.0
  0
LWPOLYLINE
  5
F8
330
17
100
AcDbEntity
  8
OUT
100
AcDbPolyline
 90
4
 70
1
 10
1475.0
 20
3920.0
 10
1825.0
 20
3920.0
 10
1825.0
 20
4200.0
 10
1475.0
 20
4200.0
  0
LINE
  5
F9
330
17
100
AcDbEntity
  8
THIN
100
AcDbLine
 10
1475.0
 20
4100.0
 30
0.0
 11
1825.0
 21
4100.0
 31
0.0
  0
LWPOLYLINE
  5
FA
330
17
100
AcDbEntity
  8
OUT
100
AcDbPolyline
 90
4
 70
1
 10
1825.0
 20
4038.0
 10
1905.0
 20
4038.0
 10
1905.0
 20
4062.0
 10
1825.0
 20
4062.0
  0
LWPOLYLINE
  5
FB
330
17
100
AcDbEntity
  8
OUT
100
AcDbPolyline
 90
4
 70
1
 10
1905.0
 20
3800.0
 10
1945.0
 20
3800.0
 10
1945.0
 20
4300.0
 10
1905.0
 20
4300.0
  0
LWPOLYLINE
  5
FC
330
17
100
AcDbEntity
  8
OUT
100
AcDbPolyline
 90
4
 70
1
 10
1945.0
 20
4220.0
 10
2035.0
 20
4220.0
 10
2035.0
 20
4250.0
 10
1945.0
 20
4250.0
  0
LINE
  5
FD
330
17
100
AcDbEntity
  8
CEN
100
AcDbLine
 10
1570.0
 20
4050.0
 30
0.0
 11
2085.0
 21
4050.0
 31
0.0
  0
LWPOLYLINE
  5
FE
330
17
100
AcDbEntity
  8
OUT
100
AcDbPolyline
 90
4
 70
1
 10
1593.0
 20
4200.0
 10
1707.0
 20
4200.0
 10
1707.0
 20
5450.0
 10
1593.0
 20
5450.0
  0
LWPOLYLINE
  5
FF
330
17
100
AcDbEntity
  8
OUT
100
AcDbPolyline
 90
4
 70
1
 10
1580.0
 20
5450.0
 10
1720.0
 20
5450.0
 10
1720.0
 20
5480.0
 10
1580.0
 20
5480.0
  0
LINE
  5
100
330
17
100
AcDbEntity
  8
CEN
100
AcDbLine
 10
1650.0
 20
2350.0
 30
0.0
 11
1650.0
 21
5570.0
 31
0.0
  0
LWPOLYLINE
  5
101
330
17
100
AcDbEntity
  8
PHA
100
AcDbPolyline
 90
4
 70
1
 10
1100.0
 20
2350.0
 10
2200.0
 20
2350.0
 10
2200.0
 20
3450.0
 10
1100.0
 20
3450.0
  0
LINE
  5
102
330
17
100
AcDbEntity
  8
PHA
100
AcDbLine
 10
1625.0
 20
5300.0
 30
0.0
 11
1675.0
 21
5300.0
 31
0.0
  0
TEXT
  5
103
330
17
100
AcDbEntity
  8
TXT
100
AcDbText
 10
1130.0
 20
3370.0
 30
0.0
 40
45.0
  1
문비 전개 시(가상선)
  7
KOR
 11
1130.0
 21
3370.0
 31
0.0
100
AcDbText
 73
1
  0
LINE
  5
104
330
17
100
AcDbEntity
  8
OUT
100
AcDbLine
 10
1650.0
 20
970.0
 30
0.0
 11
1650.0
 21
1050.0
 31
0.0
  0
LINE
  5
105
330
17
100
AcDbEntity
  8
OUT
100
AcDbLine
 10
1650.0
 20
970.0
 30
0.0
 11
1510.0
 21
970.0
 31
0.0
  0
LWPOLYLINE
  5
106
330
17
100
AcDbEntity
  8
OUT
100
AcDbPolyline
 90
3
 70
1
 10
1510.0
 20
970.0
 10
1550.0
 20
985.0
 10
1550.0
 20
955.0
  0
TEXT
  5
107
330
17
100
AcDbEntity
  8
TXT
100
AcDbText
 10
1480.0
 20
970.0
 30
0.0
 40
70.0
  1
A
  7
KOR
 72
2
 11
1480.0
 21
970.0
 31
0.0
100
AcDbText
 73
2
  0
LINE
  5
108
330
17
100
AcDbEntity
  8
OUT
100
AcDbLine
 10
1650.0
 20
5610.0
 30
0.0
 11
1650.0
 21
5530.0
 31
0.0
  0
LINE
  5
109
330
17
100
AcDbEntity
  8
OUT
100
AcDbLine
 10
1650.0
 20
5610.0
 30
0.0
 11
1510.0
 21
5610.0
 31
0.0
  0
LWPOLYLINE
  5
10A
330
17
100
AcDbEntity
  8
OUT
100
AcDbPolyline
 90
3
 70
1
 10
1510.0
 20
5610.0
 10
1550.0
 20
5625.0
 10
1550.0
 20
5595.0
  0
TEXT
  5
10B
330
17
100
AcDbEntity
  8
TXT
100
AcDbText
 10
1480.0
 20
5610.0
 30
0.0
 40
70.0
  1
A
  7
KOR
 72
2
 11
1480.0
 21
5610.0
 31
0.0
100
AcDbText
 73
2
  0
LINE
  5
10C
330
17
100
AcDbEntity
  8
DIM
100
AcDbLine
 10
1150.0
 20
1330.0
 30
0.0
 11
1150.0
 21
800.0
 31
0.0
  0
LINE
  5
10D
330
17
100
AcDbEntity
  8
DIM
100
AcDbLine
 10
1126.0
 20
806.0
 30
0.0
 11
1174.0
 21
854.0
 31
0.0
  0
LINE
  5
10E
330
17
100
AcDbEntity
  8
DIM
100
AcDbLine
 10
2150.0
 20
1330.0
 30
0.0
 11
2150.0
 21
800.0
 31
0.0
  0
LINE
  5
10F
330
17
100
AcDbEntity
  8
DIM
100
AcDbLine
 10
2126.0
 20
806.0
 30
0.0
 11
2174.0
 21
854.0
 31
0.0
  0
LINE
  5
110
330
17
100
AcDbEntity
  8
DIM
100
AcDbLine
 10
1120.0
 20
830.0
 30
0.0
 11
2180.0
 21
830.0
 31
0.0
  0
TEXT
  5
111
330
17
100
AcDbEntity
  8
TXT
100
AcDbText
 10
1650.0
 20
845.0
 30
0.0
 40
50.0
  1
1,000 (순경간)
  7
KOR
 72
1
 11
1650.0
 21
845.0
 31
0.0
100
AcDbText
 73
1
  0
LINE
  5
112
330
17
100
AcDbEntity
  8
DIM
100
AcDbLine
 10
1100.0
 20
1330.0
 30
0.0
 11
1100.0
 21
680.0
 31
0.0
  0
LINE
  5
113
330
17
100
AcDbEntity
  8
DIM
100
AcDbLine
 10
1076.0
 20
686.0
 30
0.0
 11
1124.0
 21
734.0
 31
0.0
  0
LINE
  5
114
330
17
100
AcDbEntity
  8
DIM
100
AcDbLine
 10
2200.0
 20
1330.0
 30
0.0
 11
2200.0
 21
680.0
 31
0.0
  0
LINE
  5
115
330
17
100
AcDbEntity
  8
DIM
100
AcDbLine
 10
2176.0
 20
686.0
 30
0.0
 11
2224.0
 21
734.0
 31
0.0
  0
LINE
  5
116
330
17
100
AcDbEntity
  8
DIM
100
AcDbLine
 10
1070.0
 20
710.0
 30
0.0
 11
2230.0
 21
710.0
 31
0.0
  0
TEXT
  5
117
330
17
100
AcDbEntity
  8
TXT
100
AcDbText
 10
1650.0
 20
725.0
 30
0.0
 40
50.0
  1
1,100 (문비 폭)
  7
KOR
 72
1
 11
1650.0
 21
725.0
 31
0.0
100
AcDbText
 73
1
  0
LINE
  5
118
330
17
100
AcDbEntity
  8
DIM
100
AcDbLine
 10
750.0
 20
1030.0
 30
0.0
 11
750.0
 21
560.0
 31
0.0
  0
LINE
  5
119
330
17
100
AcDbEntity
  8
DIM
100
AcDbLine
 10
726.0
 20
566.0
 30
0.0
 11
774.0
 21
614.0
 31
0.0
  0
LINE
  5
11A
330
17
100
AcDbEntity
  8
DIM
100
AcDbLine
 10
2550.0
 20
1030.0
 30
0.0
 11
2550.0
 21
560.0
 31
0.0
  0
LINE
  5
11B
330
17
100
AcDbEntity
  8
DIM
100
AcDbLine
 10
2526.0
 20
566.0
 30
0.0
 11
2574.0
 21
614.0
 31
0.0
  0
LINE
  5
11C
330
17
100
AcDbEntity
  8
DIM
100
AcDbLine
 10
720.0
 20
590.0
 30
0.0
 11
2580.0
 21
590.0
 31
0.0
  0
TEXT
  5
11D
330
17
100
AcDbEntity
  8
TXT
100
AcDbText
 10
1650.0
 20
605.0
 30
0.0
 40
50.0
  1
1,800
  7
KOR
 72
1
 11
1650.0
 21
605.0
 31
0.0
100
AcDbText
 73
1
  0
LINE
  5
11E
330
17
100
AcDbEntity
  8
DIM
100
AcDbLine
 10
730.0
 20
1350.0
 30
0.0
 11
600.0
 21
1350.0
 31
0.0
  0
LINE
  5
11F
330
17
100
AcDbEntity
  8
DIM
100
AcDbLine
 10
606.0
 20
1326.0
 30
0.0
 11
654.0
 21
1374.0
 31
0.0
  0
LINE
  5
120
330
17
100
AcDbEntity
  8
DIM
100
AcDbLine
 10
730.0
 20
2450.0
 30
0.0
 11
600.0
 21
2450.0
 31
0.0
  0
LINE
  5
121
330
17
100
AcDbEntity
  8
DIM
100
AcDbLine
 10
606.0
 20
2426.0
 30
0.0
 11
654.0
 21
2474.0
 31
0.0
  0
LINE
  5
122
330
17
100
AcDbEntity
  8
DIM
100
AcDbLine
 10
630.0
 20
1320.0
 30
0.0
 11
630.0
 21
2480.0
 31
0.0
  0
TEXT
  5
123
330
17
100
AcDbEntity
  8
TXT
100
AcDbText
 10
615.0
 20
1900.0
 30
0.0
 40
50.0
  1
1,100 (문비 높이)
 50
90.0
  7
KOR
 72
1
 11
615.0
 21
1900.0
 31
0.0
100
AcDbText
 73
1
  0
LINE
  5
124
330
17
100
AcDbEntity
  8
DIM
100
AcDbLine
 10
730.0
 20
1350.0
 30
0.0
 11
460.0
 21
1350.0
 31
0.0
  0
LINE
  5
125
330
17
100
AcDbEntity
  8
DIM
100
AcDbLine
 10
466.0
 20
1326.0
 30
0.0
 11
514.0
 21
1374.0
 31
0.0
  0
LINE
  5
126
330
17
100
AcDbEntity
  8
DIM
100
AcDbLine
 10
730.0
 20
2850.0
 30
0.0
 11
460.0
 21
2850.0
 31
0.0
  0
LINE
  5
127
330
17
100
AcDbEntity
  8
DIM
100
AcDbLine
 10
466.0
 20
2826.0
 30
0.0
 11
514.0
 21
2874.0
 31
0.0
  0
LINE
  5
128
330
17
100
AcDbEntity
  8
DIM
100
AcDbLine
 10
490.0
 20
1320.0
 30
0.0
 11
490.0
 21
2880.0
 31
0.0
  0
TEXT
  5
129
330
17
100
AcDbEntity
  8
TXT
100
AcDbText
 10
475.0
 20
2100.0
 30
0.0
 40
50.0
  1
1,500
 50
90.0
  7
KOR
 72
1
 11
475.0
 21
2100.0
 31
0.0
100
AcDbText
 73
1
  0
LINE
  5
12A
330
17
100
AcDbEntity
  8
DIM
100
AcDbLine
 10
730.0
 20
1350.0
 30
0.0
 11
320.0
 21
1350.0
 31
0.0
  0
LINE
  5
12B
330
17
100
AcDbEntity
  8
DIM
100
AcDbLine
 10
326.0
 20
1326.0
 30
0.0
 11
374.0
 21
1374.0
 31
0.0
  0
LINE
  5
12C
330
17
100
AcDbEntity
  8
DIM
100
AcDbLine
 10
730.0
 20
3750.0
 30
0.0
 11
320.0
 21
3750.0
 31
0.0
  0
LINE
  5
12D
330
17
100
AcDbEntity
  8
DIM
100
AcDbLine
 10
326.0
 20
3726.0
 30
0.0
 11
374.0
 21
3774.0
 31
0.0
  0
LINE
  5
12E
330
17
100
AcDbEntity
  8
DIM
100
AcDbLine
 10
350.0
 20
1320.0
 30
0.0
 11
350.0
 21
3780.0
 31
0.0
  0
TEXT
  5
12F
330
17
100
AcDbEntity
  8
TXT
100
AcDbText
 10
335.0
 20
2550.0
 30
0.0
 40
50.0
  1
2,400
 50
90.0
  7
KOR
 72
1
 11
335.0
 21
2550.0
 31
0.0
100
AcDbText
 73
1
  0
LINE
  5
130
330
17
100
AcDbEntity
  8
DIM
100
AcDbLine
 10
730.0
 20
1050.0
 30
0.0
 11
600.0
 21
1050.0
 31
0.0
  0
LINE
  5
131
330
17
100
AcDbEntity
  8
DIM
100
AcDbLine
 10
606.0
 20
1026.0
 30
0.0
 11
654.0
 21
1074.0
 31
0.0
  0
LINE
  5
132
330
17
100
AcDbEntity
  8
DIM
100
AcDbLine
 10
730.0
 20
1350.0
 30
0.0
 11
600.0
 21
1350.0
 31
0.0
  0
LINE
  5
133
330
17
100
AcDbEntity
  8
DIM
100
AcDbLine
 10
606.0
 20
1326.0
 30
0.0
 11
654.0
 21
1374.0
 31
0.0
  0
LINE
  5
134
330
17
100
AcDbEntity
  8
DIM
100
AcDbLine
 10
630.0
 20
1020.0
 30
0.0
 11
630.0
 21
1380.0
 31
0.0
  0
TEXT
  5
135
330
17
100
AcDbEntity
  8
TXT
100
AcDbText
 10
615.0
 20
1200.0
 30
0.0
 40
50.0
  1
300
 50
90.0
  7
KOR
 72
1
 11
615.0
 21
1200.0
 31
0.0
100
AcDbText
 73
1
  0
LINE
  5
136
330
17
100
AcDbEntity
  8
DIM
100
AcDbLine
 10
2220.0
 20
2450.0
 30
0.0
 11
2980.0
 21
2450.0
 31
0.0
  0
LINE
  5
137
330
17
100
AcDbEntity
  8
DIM
100
AcDbLine
 10
2926.0
 20
2426.0
 30
0.0
 11
2974.0
 21
2474.0
 31
0.0
  0
LINE
  5
138
330
17
100
AcDbEntity
  8
DIM
100
AcDbLine
 10
2220.0
 20
3450.0
 30
0.0
 11
2980.0
 21
3450.0
 31
0.0
  0
LINE
  5
139
330
17
100
AcDbEntity
  8
DIM
100
AcDbLine
 10
2926.0
 20
3426.0
 30
0.0
 11
2974.0
 21
3474.0
 31
0.0
  0
LINE
  5
13A
330
17
100
AcDbEntity
  8
DIM
100
AcDbLine
 10
2950.0
 20
2420.0
 30
0.0
 11
2950.0
 21
3480.0
 31
0.0
  0
TEXT
  5
13B
330
17
100
AcDbEntity
  8
TXT
100
AcDbText
 10
2935.0
 20
2950.0
 30
0.0
 40
50.0
  1
1,000 (양정)
 50
90.0
  7
KOR
 72
1
 11
2935.0
 21
2950.0
 31
0.0
100
AcDbText
 73
1
  0
LINE
  5
13C
330
17
100
AcDbEntity
  8
DIM
100
AcDbLine
 10
2320.0
 20
3750.0
 30
0.0
 11
2980.0
 21
3750.0
 31
0.0
  0
LINE
  5
13D
330
17
100
AcDbEntity
  8
DIM
100
AcDbLine
 10
2926.0
 20
3726.0
 30
0.0
 11
2974.0
 21
3774.0
 31
0.0
  0
LINE
  5
13E
330
17
100
AcDbEntity
  8
DIM
100
AcDbLine
 10
2320.0
 20
5480.0
 30
0.0
 11
2980.0
 21
5480.0
 31
0.0
  0
LINE
  5
13F
330
17
100
AcDbEntity
  8
DIM
100
AcDbLine
 10
2926.0
 20
5456.0
 30
0.0
 11
2974.0
 21
5504.0
 31
0.0
  0
LINE
  5
140
330
17
100
AcDbEntity
  8
DIM
100
AcDbLine
 10
2950.0
 20
3720.0
 30
0.0
 11
2950.0
 21
5510.0
 31
0.0
  0
TEXT
  5
141
330
17
100
AcDbEntity
  8
TXT
100
AcDbText
 10
2935.0
 20
4615.0
 30
0.0
 40
50.0
  1
1,730
 50
90.0
  7
KOR
 72
1
 11
2935.0
 21
4615.0
 31
0.0
100
AcDbText
 73
1
  0
LINE
  5
142
330
17
100
AcDbEntity
  8
DIM
100
AcDbLine
 10
2570.0
 20
1350.0
 30
0.0
 11
3100.0
 21
1350.0
 31
0.0
  0
LINE
  5
143
330
17
100
AcDbEntity
  8
DIM
100
AcDbLine
 10
3046.0
 20
1326.0
 30
0.0
 11
3094.0
 21
1374.0
 31
0.0
  0
LINE
  5
144
330
17
100
AcDbEntity
  8
DIM
100
AcDbLine
 10
2570.0
 20
3750.0
 30
0.0
 11
3100.0
 21
3750.0
 31
0.0
  0
LINE
  5
145
330
17
100
AcDbEntity
  8
DIM
100
AcDbLine
 10
3046.0
 20
3726.0
 30
0.0
 11
3094.0
 21
3774.0
 31
0.0
  0
LINE
  5
146
330
17
100
AcDbEntity
  8
DIM
100
AcDbLine
 10
3070.0
 20
1320.0
 30
0.0
 11
3070.0
 21
3780.0
 31
0.0
  0
TEXT
  5
147
330
17
100
AcDbEntity
  8
TXT
100
AcDbText
 10
3055.0
 20
2550.0
 30
0.0
 40
50.0
  1
2,400
 50
90.0
  7
KOR
 72
1
 11
3055.0
 21
2550.0
 31
0.0
100
AcDbText
 73
1
  0
LINE
  5
148
330
17
100
AcDbEntity
  8
THIN
100
AcDbLine
 10
899.6012885326929
 20
3306.0362051397747
 30
0.0
 11
1270.0
 21
1610.0
 31
0.0
  0
CIRCLE
  5
149
330
17
100
AcDbEntity
  8
THIN
100
AcDbCircle
 10
1270.0
 20
1610.0
 30
0.0
 40
8.0
  0
CIRCLE
  5
14A
330
17
100
AcDbEntity
  8
THIN
100
AcDbCircle
 10
890.0
 20
3350.0
 30
0.0
 40
45.0
  0
TEXT
  5
14B
330
17
100
AcDbEntity
  8
TXT
100
AcDbText
 10
890.0
 20
3350.0
 30
0.0
 40
50.0
  1
1
  7
KOR
 72
1
 11
890.0
 21
3350.0
 31
0.0
100
AcDbText
 73
2
  0
LINE
  5
14C
330
17
100
AcDbEntity
  8
THIN
100
AcDbLine
 10
2669.9961449608027
 20
1630.6080465353439
 30
0.0
 11
2050.0
 21
1950.0
 31
0.0
  0
CIRCLE
  5
14D
330
17
100
AcDbEntity
  8
THIN
100
AcDbCircle
 10
2050.0
 20
1950.0
 30
0.0
 40
8.0
  0
CIRCLE
  5
14E
330
17
100
AcDbEntity
  8
THIN
100
AcDbCircle
 10
2710.0
 20
1610.0
 30
0.0
 40
45.0
  0
TEXT
  5
14F
330
17
100
AcDbEntity
  8
TXT
100
AcDbText
 10
2710.0
 20
1610.0
 30
0.0
 40
50.0
  1
2
  7
KOR
 72
1
 11
2710.0
 21
1610.0
 31
0.0
100
AcDbText
 73
2
  0
LINE
  5
150
330
17
100
AcDbEntity
  8
THIN
100
AcDbLine
 10
2667.1532144021903
 20
1896.2467107957648
 30
0.0
 11
1900.0
 21
1650.0
 31
0.0
  0
CIRCLE
  5
151
330
17
100
AcDbEntity
  8
THIN
100
AcDbCircle
 10
1900.0
 20
1650.0
 30
0.0
 40
8.0
  0
CIRCLE
  5
152
330
17
100
AcDbEntity
  8
THIN
100
AcDbCircle
 10
2710.0
 20
1910.0
 30
0.0
 40
45.0
  0
TEXT
  5
153
330
17
100
AcDbEntity
  8
TXT
100
AcDbText
 10
2710.0
 20
1910.0
 30
0.0
 40
50.0
  1
3
  7
KOR
 72
1
 11
2710.0
 21
1910.0
 31
0.0
100
AcDbText
 73
2
  0
LINE
  5
154
330
17
100
AcDbEntity
  8
THIN
100
AcDbLine
 10
2665.204246453783
 20
3195.7174231791378
 30
0.0
 11
2187.0
 21
3150.0
 31
0.0
  0
CIRCLE
  5
155
330
17
100
AcDbEntity
  8
THIN
100
AcDbCircle
 10
2187.0
 20
3150.0
 30
0.0
 40
8.0
  0
CIRCLE
  5
156
330
17
100
AcDbEntity
  8
THIN
100
AcDbCircle
 10
2710.0
 20
3200.0
 30
0.0
 40
45.0
  0
TEXT
  5
157
330
17
100
AcDbEntity
  8
TXT
100
AcDbText
 10
2710.0
 20
3200.0
 30
0.0
 40
50.0
  1
4
  7
KOR
 72
1
 11
2710.0
 21
3200.0
 31
0.0
100
AcDbText
 73
2
  0
LINE
  5
158
330
17
100
AcDbEntity
  8
THIN
100
AcDbLine
 10
2665.136703639284
 20
2596.495054971819
 30
0.0
 11
2070.0
 21
2550.0
 31
0.0
  0
CIRCLE
  5
159
330
17
100
AcDbEntity
  8
THIN
100
AcDbCircle
 10
2070.0
 20
2550.0
 30
0.0
 40
8.0
  0
CIRCLE
  5
15A
330
17
100
AcDbEntity
  8
THIN
100
AcDbCircle
 10
2710.0
 20
2600.0
 30
0.0
 40
45.0
  0
TEXT
  5
15B
330
17
100
AcDbEntity
  8
TXT
100
AcDbText
 10
2710.0
 20
2600.0
 30
0.0
 40
50.0
  1
13
  7
KOR
 72
1
 11
2710.0
 21
2600.0
 31
0.0
100
AcDbText
 73
2
  0
LINE
  5
15C
330
17
100
AcDbEntity
  8
THIN
100
AcDbLine
 10
2665.0524182453564
 20
2952.171380761094
 30
0.0
 11
1675.0
 21
3000.0
 31
0.0
  0
CIRCLE
  5
15D
330
17
100
AcDbEntity
  8
THIN
100
AcDbCircle
 10
1675.0
 20
3000.0
 30
0.0
 40
8.0
  0
CIRCLE
  5
15E
330
17
100
AcDbEntity
  8
THIN
100
AcDbCircle
 10
2710.0
 20
2950.0
 30
0.0
 40
45.0
  0
TEXT
  5
15F
330
17
100
AcDbEntity
  8
TXT
100
AcDbText
 10
2710.0
 20
2950.0
 30
0.0
 40
50.0
  1
8
  7
KOR
 72
1
 11
2710.0
 21
2950.0
 31
0.0
100
AcDbText
 73
2
  0
LINE
  5
160
330
17
100
AcDbEntity
  8
THIN
100
AcDbLine
 10
2665.0
 20
3825.0
 30
0.0
 11
2150.0
 21
3825.0
 31
0.0
  0
CIRCLE
  5
161
330
17
100
AcDbEntity
  8
THIN
100
AcDbCircle
 10
2150.0
 20
3825.0
 30
0.0
 40
8.0
  0
CIRCLE
  5
162
330
17
100
AcDbEntity
  8
THIN
100
AcDbCircle
 10
2710.0
 20
3825.0
 30
0.0
 40
45.0
  0
TEXT
  5
163
330
17
100
AcDbEntity
  8
TXT
100
AcDbText
 10
2710.0
 20
3825.0
 30
0.0
 40
50.0
  1
6
  7
KOR
 72
1
 11
2710.0
 21
3825.0
 31
0.0
100
AcDbText
 73
2
  0
LINE
  5
164
330
17
100
AcDbEntity
  8
THIN
100
AcDbLine
 10
2665.0933610964194
 20
4297.102797490092
 30
0.0
 11
1935.0
 21
4250.0
 31
0.0
  0
CIRCLE
  5
165
330
17
100
AcDbEntity
  8
THIN
100
AcDbCircle
 10
1935.0
 20
4250.0
 30
0.0
 40
8.0
  0
CIRCLE
  5
166
330
17
100
AcDbEntity
  8
THIN
100
AcDbCircle
 10
2710.0
 20
4300.0
 30
0.0
 40
45.0
  0
TEXT
  5
167
330
17
100
AcDbEntity
  8
TXT
100
AcDbText
 10
2710.0
 20
4300.0
 30
0.0
 40
50.0
  1
7
  7
KOR
 72
1
 11
2710.0
 21
4300.0
 31
0.0
100
AcDbText
 73
2
  0
LINE
  5
168
330
17
100
AcDbEntity
  8
THIN
100
AcDbLine
 10
2665.0
 20
4950.0
 30
0.0
 11
1707.0
 21
4950.0
 31
0.0
  0
CIRCLE
  5
169
330
17
100
AcDbEntity
  8
THIN
100
AcDbCircle
 10
1707.0
 20
4950.0
 30
0.0
 40
8.0
  0
CIRCLE
  5
16A
330
17
100
AcDbEntity
  8
THIN
100
AcDbCircle
 10
2710.0
 20
4950.0
 30
0.0
 40
45.0
  0
TEXT
  5
16B
330
17
100
AcDbEntity
  8
TXT
100
AcDbText
 10
2710.0
 20
4950.0
 30
0.0
 40
50.0
  1
9
  7
KOR
 72
1
 11
2710.0
 21
4950.0
 31
0.0
100
AcDbText
 73
2
  0
LINE
  5
16C
330
17
100
AcDbEntity
  8
THIN
100
AcDbLine
 10
2669.39401935373
 20
969.3946986507843
 30
0.0
 11
1950.0
 21
1313.0
 31
0.0
  0
CIRCLE
  5
16D
330
17
100
AcDbEntity
  8
THIN
100
AcDbCircle
 10
1950.0
 20
1313.0
 30
0.0
 40
8.0
  0
CIRCLE
  5
16E
330
17
100
AcDbEntity
  8
THIN
100
AcDbCircle
 10
2710.0
 20
950.0
 30
0.0
 40
45.0
  0
TEXT
  5
16F
330
17
100
AcDbEntity
  8
TXT
100
AcDbText
 10
2710.0
 20
950.0
 30
0.0
 40
50.0
  1
5
  7
KOR
 72
1
 11
2710.0
 21
950.0
 31
0.0
100
AcDbText
 73
2
  0
LINE
  5
170
330
17
100
AcDbEntity
  8
THIN
100
AcDbLine
 10
890.775746776288
 20
3505.006686975295
 30
0.0
 11
915.0
 21
2100.0
 31
0.0
  0
CIRCLE
  5
171
330
17
100
AcDbEntity
  8
THIN
100
AcDbCircle
 10
915.0
 20
2100.0
 30
0.0
 40
8.0
  0
CIRCLE
  5
172
330
17
100
AcDbEntity
  8
THIN
100
AcDbCircle
 10
890.0
 20
3550.0
 30
0.0
 40
45.0
  0
TEXT
  5
173
330
17
100
AcDbEntity
  8
TXT
100
AcDbText
 10
890.0
 20
3550.0
 30
0.0
 40
50.0
  1
12
  7
KOR
 72
1
 11
890.0
 21
3550.0
 31
0.0
100
AcDbText
 73
2
  0
TEXT
  5
174
330
17
100
AcDbEntity
  8
TXT
100
AcDbText
 10
1650.0
 20
400.0
 30
0.0
 40
100.0
  1
정 면 도 (하류측에서 봄)
  7
KOR
 72
1
 11
1650.0
 21
400.0
 31
0.0
100
AcDbText
 73
1
  0
LINE
  5
175
330
17
100
AcDbEntity
  8
OUT
100
AcDbLine
 10
1200.0
 20
375.0
 30
0.0
 11
2100.0
 21
375.0
 31
0.0
  0
LINE
  5
176
330
17
100
AcDbEntity
  8
THIN
100
AcDbLine
 10
1200.0
 20
355.0
 30
0.0
 11
2100.0
 21
355.0
 31
0.0
  0
TEXT
  5
177
330
17
100
AcDbEntity
  8
TXT
100
AcDbText
 10
1650.0
 20
330.0
 30
0.0
 40
50.0
  1
S=1:20
  7
KOR
 72
1
 11
1650.0
 21
330.0
 31
0.0
100
AcDbText
 73
3
  0
HATCH
  5
178
330
17
100
AcDbEntity
  8
HAT
 62
7
100
AcDbHatch
 10
0.0
 20
0.0
 30
0.0
210
0.0
220
0.0
230
1.0
  2
AR-CONC
 70
0
 71
0
 91
1
 92
3
 72
0
 73
1
 93
8
 10
3350.0
 20
1350.0
 10
3990.0
 20
1350.0
 10
3990.0
 20
1275.0
 10
4140.0
 20
1275.0
 10
4140.0
 20
1350.0
 10
4750.0
 20
1350.0
 10
4750.0
 20
1050.0
 10
3350.0
 20
1050.0
 97
0
 75
1
 76
1
 52
0.0
 41
1.0
 77
0
 78
13
 53
50.0
 43
0.0
 44
0.0
 45
182.184668996
 46
-15.9390855389
 79
2
 49
19.05
 49
-209.55
 53
355.0
 43
0.0
 44
0.0
 45
-35.243421425
 46
191.056845239
 79
2
 49
15.24
 49
-167.64058417
 53
100.4514447
 43
15.182007
 44
-1.3282535
 45
146.9412470904
 46
175.1177519122
 79
2
 49
16.1900088
 49
-178.0902446
 53
46.1842
 43
0.0
 44
50.8
 45
271.0790408921
 46
-42.0423279327
 79
2
 49
28.575
 49
-314.325
 53
96.63555761
 43
22.5899
 44
47.2965
 45
237.4041340515
 46
247.4261245977
 79
2
 49
24.28502314
 49
-267.13560816
 53
351.18415117
 43
0.0
 44
50.8
 45
237.404134065
 46
247.4261245855
 79
2
 49
22.85996707
 49
-251.45973192
 53
21.0
 43
25.4
 44
38.1
 45
151.6143912691
 46
-102.2651981871
 79
2
 49
19.05
 49
-209.55
 53
326.0
 43
25.4
 44
38.1
 45
61.8020283476
 46
184.1879661223
 79
2
 49
15.24
 49
-167.64
 53
71.451445
 43
38.0345326
 44
29.5779001
 45
213.4164192787
 46
81.9227688859
 79
2
 49
16.1900088
 49
-178.0899376
 53
37.5
 43
0.0
 44
0.0
 45
3.0886032506
 46
84.5550388732
 79
6
 49
0.0
 49
-165.608
 49
0.0
 49
-170.18
 49
0.0
 49
-168.275
 53
7.5
 43
0.0
 44
0.0
 45
66.8196625103
 46
100.1805748181
 79
6
 49
0.0
 49
-97.028
 49
0.0
 49
-161.798
 49
0.0
 49
-64.135
 53
-32.5
 43
-56.642
 44
0.0
 45
135.5905951669
 46
-5.7287439927
 79
6
 49
0.0
 49
-63.5
 49
0.0
 49
-198.12
 49
0.0
 49
-262.89
 53
-42.5
 43
-82.042
 44
0.0
 45
148.129181386
 46
25.4264910333
 79
6
 49
0.0
 49
-82.55
 49
0.0
 49
-131.572
 49
0.0
 49
-186.69
 98
0
  0
LWPOLYLINE
  5
179
330
17
100
AcDbEntity
  8
OUT
100
AcDbPolyline
 90
8
 70
1
 10
3350.0
 20
1350.0
 10
3990.0
 20
1350.0
 10
3990.0
 20
1275.0
 10
4140.0
 20
1275.0
 10
4140.0
 20
1350.0
 10
4750.0
 20
1350.0
 10
4750.0
 20
1050.0
 10
3350.0
 20
1050.0
  0
LWPOLYLINE
  5
17A
330
17
100
AcDbEntity
  8
OUT
100
AcDbPolyline
 90
4
 70
1
 10
3990.0
 20
1275.0
 10
4140.0
 20
1275.0
 10
4140.0
 20
1350.0
 10
3990.0
 20
1350.0
  0
HATCH
  5
17B
330
17
100
AcDbEntity
  8
HAT
 62
7
100
AcDbHatch
 10
0.0
 20
0.0
 30
0.0
210
0.0
220
0.0
230
1.0
  2
ANSI31
 70
0
 71
0
 91
1
 92
3
 72
0
 73
1
 93
4
 10
3990.0
 20
1275.0
 10
4140.0
 20
1275.0
 10
4140.0
 20
1350.0
 10
3990.0
 20
1350.0
 97
0
 75
1
 76
1
 52
0.0
 41
10.0
 77
0
 78
1
 53
45.0
 43
0.0
 44
0.0
 45
-22.450640303
 46
22.450640303
 79
0
 98
0
  0
LWPOLYLINE
  5
17C
330
17
100
AcDbEntity
  8
THIN
100
AcDbPolyline
 90
4
 70
1
 10
3350.0
 20
1350.0
 10
4750.0
 20
1350.0
 10
4750.0
 20
2850.0
 10
3350.0
 20
2850.0
  0
LINE
  5
17D
330
17
100
AcDbEntity
  8
OUT
100
AcDbLine
 10
3350.0
 20
2850.0
 30
0.0
 11
4750.0
 21
2850.0
 31
0.0
  0
LWPOLYLINE
  5
17E
330
17
100
AcDbEntity
  8
THIN
100
AcDbPolyline
 90
4
 70
1
 10
3990.0
 20
1350.0
 10
4140.0
 20
1350.0
 10
4140.0
 20
3750.0
 10
3990.0
 20
3750.0
  0
HATCH
  5
17F
330
17
100
AcDbEntity
  8
HAT
 62
8
100
AcDbHatch
 10
0.0
 20
0.0
 30
0.0
210
0.0
220
0.0
230
1.0
  2
SOLID
 70
1
 71
0
 91
1
 92
3
 72
0
 73
1
 93
4
 10
4045.0
 20
1350.0
 10
4054.0
 20
1350.0
 10
4054.0
 20
2450.0
 10
4045.0
 20
2450.0
 97
0
 75
1
 76
1
 98
0
  0
LWPOLYLINE
  5
180
330
17
100
AcDbEntity
  8
SEC
100
AcDbPolyline
 90
4
 70
1
 10
4045.0
 20
1350.0
 10
4054.0
 20
1350.0
 10
4054.0
 20
2450.0
 10
4045.0
 20
2450.0
  0
HATCH
  5
181
330
17
100
AcDbEntity
  8
HAT
 62
8
100
AcDbHatch
 10
0.0
 20
0.0
 30
0.0
210
0.0
220
0.0
230
1.0
  2
SOLID
 70
1
 71
0
 91
1
 92
3
 72
0
 73
1
 93
8
 10
4054.0
 20
1370.0
 10
4179.0
 20
1370.0
 10
4179.0
 20
1495.0
 10
4171.0
 20
1495.0
 10
4171.0
 20
1376.0
 10
4062.0
 20
1376.0
 10
4062.0
 20
1495.0
 10
4054.0
 20
1495.0
 97
0
 75
1
 76
1
 98
0
  0
LWPOLYLINE
  5
182
330
17
100
AcDbEntity
  8
SEC
100
AcDbPolyline
 90
8
 70
1
 10
4054.0
 20
1370.0
 10
4179.0
 20
1370.0
 10
4179.0
 20
1495.0
 10
4171.0
 20
1495.0
 10
4171.0
 20
1376.0
 10
4062.0
 20
1376.0
 10
4062.0
 20
1495.0
 10
4054.0
 20
1495.0
  0
HATCH
  5
183
330
17
100
AcDbEntity
  8
HAT
 62
8
100
AcDbHatch
 10
0.0
 20
0.0
 30
0.0
210
0.0
220
0.0
230
1.0
  2
SOLID
 70
1
 71
0
 91
1
 92
3
 72
0
 73
1
 93
8
 10
4054.0
 20
1730.0
 10
4179.0
 20
1730.0
 10
4179.0
 20
1855.0
 10
4171.0
 20
1855.0
 10
4171.0
 20
1736.0
 10
4062.0
 20
1736.0
 10
4062.0
 20
1855.0
 10
4054.0
 20
1855.0
 97
0
 75
1
 76
1
 98
0
  0
LWPOLYLINE
  5
184
330
17
100
AcDbEntity
  8
SEC
100
AcDbPolyline
 90
8
 70
1
 10
4054.0
 20
1730.0
 10
4179.0
 20
1730.0
 10
4179.0
 20
1855.0
 10
4171.0
 20
1855.0
 10
4171.0
 20
1736.0
 10
4062.0
 20
1736.0
 10
4062.0
 20
1855.0
 10
4054.0
 20
1855.0
  0
HATCH
  5
185
330
17
100
AcDbEntity
  8
HAT
 62
8
100
AcDbHatch
 10
0.0
 20
0.0
 30
0.0
210
0.0
220
0.0
230
1.0
  2
SOLID
 70
1
 71
0
 91
1
 92
3
 72
0
 73
1
 93
8
 10
4054.0
 20
2050.0
 10
4179.0
 20
2050.0
 10
4179.0
 20
2175.0
 10
4171.0
 20
2175.0
 10
4171.0
 20
2056.0
 10
4062.0
 20
2056.0
 10
4062.0
 20
2175.0
 10
4054.0
 20
2175.0
 97
0
 75
1
 76
1
 98
0
  0
LWPOLYLINE
  5
186
330
17
100
AcDbEntity
  8
SEC
100
AcDbPolyline
 90
8
 70
1
 10
4054.0
 20
2050.0
 10
4179.0
 20
2050.0
 10
4179.0
 20
2175.0
 10
4171.0
 20
2175.0
 10
4171.0
 20
2056.0
 10
4062.0
 20
2056.0
 10
4062.0
 20
2175.0
 10
4054.0
 20
2175.0
  0
HATCH
  5
187
330
17
100
AcDbEntity
  8
HAT
 62
8
100
AcDbHatch
 10
0.0
 20
0.0
 30
0.0
210
0.0
220
0.0
230
1.0
  2
SOLID
 70
1
 71
0
 91
1
 92
3
 72
0
 73
1
 93
8
 10
4054.0
 20
2325.0
 10
4179.0
 20
2325.0
 10
4179.0
 20
2450.0
 10
4171.0
 20
2450.0
 10
4171.0
 20
2331.0
 10
4062.0
 20
2331.0
 10
4062.0
 20
2450.0
 10
4054.0
 20
2450.0
 97
0
 75
1
 76
1
 98
0
  0
LWPOLYLINE
  5
188
330
17
100
AcDbEntity
  8
SEC
100
AcDbPolyline
 90
8
 70
1
 10
4054.0
 20
2325.0
 10
4179.0
 20
2325.0
 10
4179.0
 20
2450.0
 10
4171.0
 20
2450.0
 10
4171.0
 20
2331.0
 10
4062.0
 20
2331.0
 10
4062.0
 20
2450.0
 10
4054.0
 20
2450.0
  0
LWPOLYLINE
  5
189
330
17
100
AcDbEntity
  8
OUT
100
AcDbPolyline
 90
4
 70
1
 10
4025.0
 20
1350.0
 10
4045.0
 20
1350.0
 10
4045.0
 20
1450.0
 10
4025.0
 20
1450.0
  0
HATCH
  5
18A
330
17
100
AcDbEntity
  8
HAT
 62
7
100
AcDbHatch
 10
0.0
 20
0.0
 30
0.0
210
0.0
220
0.0
230
1.0
  2
ANSI31
 70
0
 71
0
 91
1
 92
3
 72
0
 73
1
 93
4
 10
4025.0
 20
1350.0
 10
4045.0
 20
1350.0
 10
4045.0
 20
1450.0
 10
4025.0
 20
1450.0
 97
0
 75
1
 76
1
 52
0.0
 41
10.0
 77
0
 78
1
 53
45.0
 43
0.0
 44
0.0
 45
-22.450640303
 46
22.450640303
 79
0
 98
0
  0
LWPOLYLINE
  5
18B
330
17
100
AcDbEntity
  8
OUT
100
AcDbPolyline
 90
4
 70
1
 10
4040.0
 20
2450.0
 10
4090.0
 20
2450.0
 10
4090.0
 20
2570.0
 10
4040.0
 20
2570.0
  0
CIRCLE
  5
18C
330
17
100
AcDbEntity
  8
OUT
100
AcDbCircle
 10
4065.0
 20
2520.0
 30
0.0
 40
15.0
  0
LINE
  5
18D
330
17
100
AcDbEntity
  8
OUT
100
AcDbLine
 10
4040.0
 20
2570.0
 30
0.0
 11
4040.0
 21
3750.0
 31
0.0
  0
LINE
  5
18E
330
17
100
AcDbEntity
  8
OUT
100
AcDbLine
 10
4090.0
 20
2570.0
 30
0.0
 11
4090.0
 21
3750.0
 31
0.0
  0
LWPOLYLINE
  5
18F
330
17
100
AcDbEntity
  8
HID
100
AcDbPolyline
 90
4
 70
0
 10
4040.0
 20
3750.0
 10
4040.0
 20
4300.0
 10
4090.0
 20
4300.0
 10
4090.0
 20
3750.0
  0
HATCH
  5
190
330
17
100
AcDbEntity
  8
HAT
 62
8
100
AcDbHatch
 10
0.0
 20
0.0
 30
0.0
210
0.0
220
0.0
230
1.0
  2
SOLID
 70
1
 71
0
 91
1
 92
3
 72
0
 73
1
 93
12
 10
3990.0
 20
3750.0
 10
4140.0
 20
3750.0
 10
4140.0
 20
3760.0
 10
4068.5
 20
3760.0
 10
4068.5
 20
3890.0
 10
4140.0
 20
3890.0
 10
4140.0
 20
3900.0
 10
3990.0
 20
3900.0
 10
3990.0
 20
3890.0
 10
4061.5
 20
3890.0
 10
4061.5
 20
3760.0
 10
3990.0
 20
3760.0
 97
0
 75
1
 76
1
 98
0
  0
LWPOLYLINE
  5
191
330
17
100
AcDbEntity
  8
SEC
100
AcDbPolyline
 90
12
 70
1
 10
3990.0
 20
3750.0
 10
4140.0
 20
3750.0
 10
4140.0
 20
3760.0
 10
4068.5
 20
3760.0
 10
4068.5
 20
3890.0
 10
4140.0
 20
3890.0
 10
4140.0
 20
3900.0
 10
3990.0
 20
3900.0
 10
3990.0
 20
3890.0
 10
4061.5
 20
3890.0
 10
4061.5
 20
3760.0
 10
3990.0
 20
3760.0
  0
LWPOLYLINE
  5
192
330
17
100
AcDbEntity
  8
OUT
100
AcDbPolyline
 90
4
 70
1
 10
3905.0
 20
3900.0
 10
4225.0
 20
3900.0
 10
4225.0
 20
3920.0
 10
3905.0
 20
3920.0
  0
LWPOLYLINE
  5
193
330
17
100
AcDbEntity
  8
OUT
100
AcDbPolyline
 90
4
 70
1
 10
3940.0
 20
3920.0
 10
4190.0
 20
3920.0
 10
4190.0
 20
4200.0
 10
3940.0
 20
4200.0
  0
CIRCLE
  5
194
330
17
100
AcDbEntity
  8
OUT
100
AcDbCircle
 10
4065.0
 20
4050.0
 30
0.0
 40
250.0
  0
CIRCLE
  5
195
330
17
100
AcDbEntity
  8
OUT
100
AcDbCircle
 10
4065.0
 20
4050.0
 30
0.0
 40
222.0
  0
CIRCLE
  5
196
330
17
100
AcDbEntity
  8
OUT
100
AcDbCircle
 10
4065.0
 20
4050.0
 30
0.0
 40
40.0
  0
LINE
  5
197
330
17
100
AcDbEntity
  8
OUT
100
AcDbLine
 10
4098.941125496955
 20
4072.6274169979692
 30
0.0
 11
4227.634559672906
 21
4201.320851173921
 31
0.0
  0
LINE
  5
198
330
17
100
AcDbEntity
  8
OUT
100
AcDbLine
 10
4087.6274169979697
 20
4083.941125496954
 30
0.0
 11
4216.320851173921
 21
4212.634559672906
 31
0.0
  0
LINE
  5
199
330
17
100
AcDbEntity
  8
OUT
100
AcDbLine
 10
4042.3725830020303
 20
4083.9411254969546
 30
0.0
 11
3913.6791488260787
 21
4212.634559672906
 31
0.0
  0
LINE
  5
19A
330
17
100
AcDbEntity
  8
OUT
100
AcDbLine
 10
4031.058874503046
 20
4072.6274169979697
 30
0.0
 11
3902.365440327094
 21
4201.320851173921
 31
0.0
  0
LINE
  5
19B
330
17
100
AcDbEntity
  8
OUT
100
AcDbLine
 10
4031.058874503046
 20
4027.3725830020308
 30
0.0
 11
3902.365440327094
 21
3898.6791488260787
 31
0.0
  0
LINE
  5
19C
330
17
100
AcDbEntity
  8
OUT
100
AcDbLine
 10
4042.3725830020303
 20
4016.058874503046
 30
0.0
 11
3913.6791488260787
 21
3887.365440327094
 31
0.0
  0
LINE
  5
19D
330
17
100
AcDbEntity
  8
OUT
100
AcDbLine
 10
4087.6274169979697
 20
4016.0588745030454
 30
0.0
 11
4216.320851173921
 21
3887.365440327094
 31
0.0
  0
LINE
  5
19E
330
17
100
AcDbEntity
  8
OUT
100
AcDbLine
 10
4098.941125496955
 20
4027.3725830020303
 30
0.0
 11
4227.634559672906
 21
3898.6791488260787
 31
0.0
  0
CIRCLE
  5
19F
330
17
100
AcDbEntity
  8
OUT
100
AcDbCircle
 10
4065.0
 20
4286.0
 30
0.0
 40
18.0
  0
LINE
  5
1A0
330
17
100
AcDbEntity
  8
CEN
100
AcDbLine
 10
3765.0
 20
4050.0
 30
0.0
 11
4365.0
 21
4050.0
 31
0.0
  0
LWPOLYLINE
  5
1A1
330
17
100
AcDbEntity
  8
OUT
100
AcDbPolyline
 90
4
 70
1
 10
4008.0
 20
4200.0
 10
4122.0
 20
4200.0
 10
4122.0
 20
5450.0
 10
4008.0
 20
5450.0
  0
LWPOLYLINE
  5
1A2
330
17
100
AcDbEntity
  8
OUT
100
AcDbPolyline
 90
4
 70
1
 10
3995.0
 20
5450.0
 10
4135.0
 20
5450.0
 10
4135.0
 20
5480.0
 10
3995.0
 20
5480.0
  0
LINE
  5
1A3
330
17
100
AcDbEntity
  8
CEN
100
AcDbLine
 10
4065.0
 20
2350.0
 30
0.0
 11
4065.0
 21
5570.0
 31
0.0
  0
LWPOLYLINE
  5
1A4
330
17
100
AcDbEntity
  8
PHA
100
AcDbPolyline
 90
4
 70
1
 10
4045.0
 20
2350.0
 10
4179.0
 20
2350.0
 10
4179.0
 20
3450.0
 10
4045.0
 20
3450.0
  0
LINE
  5
1A5
330
17
100
AcDbEntity
  8
THIN
100
AcDbLine
 10
3370.0
 20
2650.0
 30
0.0
 11
4030.0
 21
2650.0
 31
0.0
  0
LWPOLYLINE
  5
1A6
330
17
100
AcDbEntity
  8
OUT
100
AcDbPolyline
 90
3
 70
1
 10
3600.0
 20
2650.0
 10
3570.0
 20
2695.0
 10
3630.0
 20
2695.0
  0
TEXT
  5
1A7
330
17
100
AcDbEntity
  8
TXT
100
AcDbText
 10
3650.0
 20
2665.0
 30
0.0
 40
45.0
  1
설계수위
  7
KOR
 11
3650.0
 21
2665.0
 31
0.0
100
AcDbText
 73
1
  0
LINE
  5
1A8
330
17
100
AcDbEntity
  8
OUT
100
AcDbLine
 10
3400.0
 20
930.0
 30
0.0
 11
3700.0
 21
930.0
 31
0.0
  0
LWPOLYLINE
  5
1A9
330
17
100
AcDbEntity
  8
OUT
100
AcDbPolyline
 90
3
 70
1
 10
3700.0
 20
930.0
 10
3650.0
 20
950.0
 10
3650.0
 20
910.0
  0
TEXT
  5
1AA
330
17
100
AcDbEntity
  8
TXT
100
AcDbText
 10
3550.0
 20
950.0
 30
0.0
 40
45.0
  1
흐름
  7
KOR
 72
1
 11
3550.0
 21
950.0
 31
0.0
100
AcDbText
 73
1
  0
TEXT
  5
1AB
330
17
100
AcDbEntity
  8
TXT
100
AcDbText
 10
3450.0
 20
3050.0
 30
0.0
 40
60.0
  1
상류측
  7
KOR
 72
1
 11
3450.0
 21
3050.0
 31
0.0
100
AcDbText
 73
1
  0
TEXT
  5
1AC
330
17
100
AcDbEntity
  8
TXT
100
AcDbText
 10
4650.0
 20
3050.0
 30
0.0
 40
60.0
  1
하류측
  7
KOR
 72
1
 11
4650.0
 21
3050.0
 31
0.0
100
AcDbText
 73
1
  0
LINE
  5
1AD
330
17
100
AcDbEntity
  8
DIM
100
AcDbLine
 10
4045.0
 20
2430.0
 30
0.0
 11
4045.0
 21
700.0
 31
0.0
  0
LINE
  5
1AE
330
17
100
AcDbEntity
  8
DIM
100
AcDbLine
 10
4021.0
 20
706.0
 30
0.0
 11
4069.0
 21
754.0
 31
0.0
  0
LINE
  5
1AF
330
17
100
AcDbEntity
  8
DIM
100
AcDbLine
 10
4179.0
 20
2430.0
 30
0.0
 11
4179.0
 21
700.0
 31
0.0
  0
LINE
  5
1B0
330
17
100
AcDbEntity
  8
DIM
100
AcDbLine
 10
4155.0
 20
706.0
 30
0.0
 11
4203.0
 21
754.0
 31
0.0
  0
LINE
  5
1B1
330
17
100
AcDbEntity
  8
DIM
100
AcDbLine
 10
4015.0
 20
730.0
 30
0.0
 11
4209.0
 21
730.0
 31
0.0
  0
TEXT
  5
1B2
330
17
100
AcDbEntity
  8
TXT
100
AcDbText
 10
4112.0
 20
745.0
 30
0.0
 40
50.0
  1
134
  7
KOR
 72
1
 11
4112.0
 21
745.0
 31
0.0
100
AcDbText
 73
1
  0
LINE
  5
1B3
330
17
100
AcDbEntity
  8
DIM
100
AcDbLine
 10
3990.0
 20
1255.0
 30
0.0
 11
3990.0
 21
560.0
 31
0.0
  0
LINE
  5
1B4
330
17
100
AcDbEntity
  8
DIM
100
AcDbLine
 10
3966.0
 20
566.0
 30
0.0
 11
4014.0
 21
614.0
 31
0.0
  0
LINE
  5
1B5
330
17
100
AcDbEntity
  8
DIM
100
AcDbLine
 10
4140.0
 20
1255.0
 30
0.0
 11
4140.0
 21
560.0
 31
0.0
  0
LINE
  5
1B6
330
17
100
AcDbEntity
  8
DIM
100
AcDbLine
 10
4116.0
 20
566.0
 30
0.0
 11
4164.0
 21
614.0
 31
0.0
  0
LINE
  5
1B7
330
17
100
AcDbEntity
  8
DIM
100
AcDbLine
 10
3960.0
 20
590.0
 30
0.0
 11
4170.0
 21
590.0
 31
0.0
  0
TEXT
  5
1B8
330
17
100
AcDbEntity
  8
TXT
100
AcDbText
 10
4065.0
 20
605.0
 30
0.0
 40
50.0
  1
150 (프레임)
  7
KOR
 72
1
 11
4065.0
 21
605.0
 31
0.0
100
AcDbText
 73
1
  0
LINE
  5
1B9
330
17
100
AcDbEntity
  8
DIM
100
AcDbLine
 10
3330.0
 20
1350.0
 30
0.0
 11
3220.0
 21
1350.0
 31
0.0
  0
LINE
  5
1BA
330
17
100
AcDbEntity
  8
DIM
100
AcDbLine
 10
3226.0
 20
1326.0
 30
0.0
 11
3274.0
 21
1374.0
 31
0.0
  0
LINE
  5
1BB
330
17
100
AcDbEntity
  8
DIM
100
AcDbLine
 10
3330.0
 20
2450.0
 30
0.0
 11
3220.0
 21
2450.0
 31
0.0
  0
LINE
  5
1BC
330
17
100
AcDbEntity
  8
DIM
100
AcDbLine
 10
3226.0
 20
2426.0
 30
0.0
 11
3274.0
 21
2474.0
 31
0.0
  0
LINE
  5
1BD
330
17
100
AcDbEntity
  8
DIM
100
AcDbLine
 10
3250.0
 20
1320.0
 30
0.0
 11
3250.0
 21
2480.0
 31
0.0
  0
TEXT
  5
1BE
330
17
100
AcDbEntity
  8
TXT
100
AcDbText
 10
3235.0
 20
1900.0
 30
0.0
 40
50.0
  1
1,100
 50
90.0
  7
KOR
 72
1
 11
3235.0
 21
1900.0
 31
0.0
100
AcDbText
 73
1
  0
LINE
  5
1BF
330
17
100
AcDbEntity
  8
DIM
100
AcDbLine
 10
4160.0
 20
3750.0
 30
0.0
 11
4530.0
 21
3750.0
 31
0.0
  0
LINE
  5
1C0
330
17
100
AcDbEntity
  8
DIM
100
AcDbLine
 10
4476.0
 20
3726.0
 30
0.0
 11
4524.0
 21
3774.0
 31
0.0
  0
LINE
  5
1C1
330
17
100
AcDbEntity
  8
DIM
100
AcDbLine
 10
4160.0
 20
3900.0
 30
0.0
 11
4530.0
 21
3900.0
 31
0.0
  0
LINE
  5
1C2
330
17
100
AcDbEntity
  8
DIM
100
AcDbLine
 10
4476.0
 20
3876.0
 30
0.0
 11
4524.0
 21
3924.0
 31
0.0
  0
LINE
  5
1C3
330
17
100
AcDbEntity
  8
DIM
100
AcDbLine
 10
4500.0
 20
3720.0
 30
0.0
 11
4500.0
 21
3930.0
 31
0.0
  0
TEXT
  5
1C4
330
17
100
AcDbEntity
  8
TXT
100
AcDbText
 10
4485.0
 20
3825.0
 30
0.0
 40
50.0
  1
150
 50
90.0
  7
KOR
 72
1
 11
4485.0
 21
3825.0
 31
0.0
100
AcDbText
 73
1
  0
LINE
  5
1C5
330
17
100
AcDbEntity
  8
DIM
100
AcDbLine
 10
4245.0
 20
3900.0
 30
0.0
 11
4530.0
 21
3900.0
 31
0.0
  0
LINE
  5
1C6
330
17
100
AcDbEntity
  8
DIM
100
AcDbLine
 10
4476.0
 20
3876.0
 30
0.0
 11
4524.0
 21
3924.0
 31
0.0
  0
LINE
  5
1C7
330
17
100
AcDbEntity
  8
DIM
100
AcDbLine
 10
4245.0
 20
4200.0
 30
0.0
 11
4530.0
 21
4200.0
 31
0.0
  0
LINE
  5
1C8
330
17
100
AcDbEntity
  8
DIM
100
AcDbLine
 10
4476.0
 20
4176.0
 30
0.0
 11
4524.0
 21
4224.0
 31
0.0
  0
LINE
  5
1C9
330
17
100
AcDbEntity
  8
DIM
100
AcDbLine
 10
4500.0
 20
3870.0
 30
0.0
 11
4500.0
 21
4230.0
 31
0.0
  0
TEXT
  5
1CA
330
17
100
AcDbEntity
  8
TXT
100
AcDbText
 10
4485.0
 20
4050.0
 30
0.0
 40
50.0
  1
300
 50
90.0
  7
KOR
 72
1
 11
4485.0
 21
4050.0
 31
0.0
100
AcDbText
 73
1
  0
LINE
  5
1CB
330
17
100
AcDbEntity
  8
THIN
100
AcDbLine
 10
3632.768999671176
 20
1769.1585885447755
 30
0.0
 11
4025.0
 21
1400.0
 31
0.0
  0
CIRCLE
  5
1CC
330
17
100
AcDbEntity
  8
THIN
100
AcDbCircle
 10
4025.0
 20
1400.0
 30
0.0
 40
8.0
  0
CIRCLE
  5
1CD
330
17
100
AcDbEntity
  8
THIN
100
AcDbCircle
 10
3600.0
 20
1800.0
 30
0.0
 40
45.0
  0
TEXT
  5
1CE
330
17
100
AcDbEntity
  8
TXT
100
AcDbText
 10
3600.0
 20
1800.0
 30
0.0
 40
50.0
  1
11
  7
KOR
 72
1
 11
3600.0
 21
1800.0
 31
0.0
100
AcDbText
 73
2
  0
LINE
  5
1CF
330
17
100
AcDbEntity
  8
THIN
100
AcDbLine
 10
3643.9238092538817
 20
2040.217414420071
 30
0.0
 11
4049.0
 21
1950.0
 31
0.0
  0
CIRCLE
  5
1D0
330
17
100
AcDbEntity
  8
THIN
100
AcDbCircle
 10
4049.0
 20
1950.0
 30
0.0
 40
8.0
  0
CIRCLE
  5
1D1
330
17
100
AcDbEntity
  8
THIN
100
AcDbCircle
 10
3600.0
 20
2050.0
 30
0.0
 40
45.0
  0
TEXT
  5
1D2
330
17
100
AcDbEntity
  8
TXT
100
AcDbText
 10
3600.0
 20
2050.0
 30
0.0
 40
50.0
  1
1
  7
KOR
 72
1
 11
3600.0
 21
2050.0
 31
0.0
100
AcDbText
 73
2
  0
LINE
  5
1D3
330
17
100
AcDbEntity
  8
THIN
100
AcDbLine
 10
4455.0
 20
2110.0
 30
0.0
 11
4179.0
 21
2110.0
 31
0.0
  0
CIRCLE
  5
1D4
330
17
100
AcDbEntity
  8
THIN
100
AcDbCircle
 10
4179.0
 20
2110.0
 30
0.0
 40
8.0
  0
CIRCLE
  5
1D5
330
17
100
AcDbEntity
  8
THIN
100
AcDbCircle
 10
4500.0
 20
2110.0
 30
0.0
 40
45.0
  0
TEXT
  5
1D6
330
17
100
AcDbEntity
  8
TXT
100
AcDbText
 10
4500.0
 20
2110.0
 30
0.0
 40
50.0
  1
2
  7
KOR
 72
1
 11
4500.0
 21
2110.0
 31
0.0
100
AcDbText
 73
2
  0
TEXT
  5
1D7
330
17
100
AcDbEntity
  8
TXT
100
AcDbText
 10
4050.0
 20
400.0
 30
0.0
 40
100.0
  1
단 면 도  A - A
  7
KOR
 72
1
 11
4050.0
 21
400.0
 31
0.0
100
AcDbText
 73
1
  0
LINE
  5
1D8
330
17
100
AcDbEntity
  8
OUT
100
AcDbLine
 10
3600.0
 20
375.0
 30
0.0
 11
4500.0
 21
375.0
 31
0.0
  0
LINE
  5
1D9
330
17
100
AcDbEntity
  8
THIN
100
AcDbLine
 10
3600.0
 20
355.0
 30
0.0
 11
4500.0
 21
355.0
 31
0.0
  0
TEXT
  5
1DA
330
17
100
AcDbEntity
  8
TXT
100
AcDbText
 10
4050.0
 20
330.0
 30
0.0
 40
50.0
  1
S=1:20
  7
KOR
 72
1
 11
4050.0
 21
330.0
 31
0.0
100
AcDbText
 73
3
  0
HATCH
  5
1DB
330
17
100
AcDbEntity
  8
HAT
 62
7
100
AcDbHatch
 10
0.0
 20
0.0
 30
0.0
210
0.0
220
0.0
230
1.0
  2
AR-CONC
 70
0
 71
0
 91
1
 92
3
 72
0
 73
1
 93
8
 10
5650.0
 20
5450.0
 10
5650.0
 20
4650.0
 10
6050.0
 20
4650.0
 10
6050.0
 20
4930.0
 10
5900.0
 20
4930.0
 10
5900.0
 20
5140.0
 10
6050.0
 20
5140.0
 10
6050.0
 20
5450.0
 97
0
 75
1
 76
1
 52
0.0
 41
1.0
 77
0
 78
13
 53
50.0
 43
0.0
 44
0.0
 45
182.184668996
 46
-15.9390855389
 79
2
 49
19.05
 49
-209.55
 53
355.0
 43
0.0
 44
0.0
 45
-35.243421425
 46
191.056845239
 79
2
 49
15.24
 49
-167.64058417
 53
100.4514447
 43
15.182007
 44
-1.3282535
 45
146.9412470904
 46
175.1177519122
 79
2
 49
16.1900088
 49
-178.0902446
 53
46.1842
 43
0.0
 44
50.8
 45
271.0790408921
 46
-42.0423279327
 79
2
 49
28.575
 49
-314.325
 53
96.63555761
 43
22.5899
 44
47.2965
 45
237.4041340515
 46
247.4261245977
 79
2
 49
24.28502314
 49
-267.13560816
 53
351.18415117
 43
0.0
 44
50.8
 45
237.404134065
 46
247.4261245855
 79
2
 49
22.85996707
 49
-251.45973192
 53
21.0
 43
25.4
 44
38.1
 45
151.6143912691
 46
-102.2651981871
 79
2
 49
19.05
 49
-209.55
 53
326.0
 43
25.4
 44
38.1
 45
61.8020283476
 46
184.1879661223
 79
2
 49
15.24
 49
-167.64
 53
71.451445
 43
38.0345326
 44
29.5779001
 45
213.4164192787
 46
81.9227688859
 79
2
 49
16.1900088
 49
-178.0899376
 53
37.5
 43
0.0
 44
0.0
 45
3.0886032506
 46
84.5550388732
 79
6
 49
0.0
 49
-165.608
 49
0.0
 49
-170.18
 49
0.0
 49
-168.275
 53
7.5
 43
0.0
 44
0.0
 45
66.8196625103
 46
100.1805748181
 79
6
 49
0.0
 49
-97.028
 49
0.0
 49
-161.798
 49
0.0
 49
-64.135
 53
-32.5
 43
-56.642
 44
0.0
 45
135.5905951669
 46
-5.7287439927
 79
6
 49
0.0
 49
-63.5
 49
0.0
 49
-198.12
 49
0.0
 49
-262.89
 53
-42.5
 43
-82.042
 44
0.0
 45
148.129181386
 46
25.4264910333
 79
6
 49
0.0
 49
-82.55
 49
0.0
 49
-131.572
 49
0.0
 49
-186.69
 98
0
  0
LWPOLYLINE
  5
1DC
330
17
100
AcDbEntity
  8
OUT
100
AcDbPolyline
 90
8
 70
1
 10
5650.0
 20
5450.0
 10
5650.0
 20
4650.0
 10
6050.0
 20
4650.0
 10
6050.0
 20
4930.0
 10
5900.0
 20
4930.0
 10
5900.0
 20
5140.0
 10
6050.0
 20
5140.0
 10
6050.0
 20
5450.0
  0
HATCH
  5
1DD
330
17
100
AcDbEntity
  8
HAT
 62
8
100
AcDbHatch
 10
0.0
 20
0.0
 30
0.0
210
0.0
220
0.0
230
1.0
  2
SOLID
 70
1
 71
0
 91
1
 92
3
 72
0
 73
1
 93
8
 10
5975.0
 20
5110.0
 10
5975.0
 20
4960.0
 10
6050.0
 20
4960.0
 10
6050.0
 20
4966.5
 10
5981.5
 20
4966.5
 10
5981.5
 20
5103.5
 10
6050.0
 20
5103.5
 10
6050.0
 20
5110.0
 97
0
 75
1
 76
1
 98
0
  0
LWPOLYLINE
  5
1DE
330
17
100
AcDbEntity
  8
SEC
100
AcDbPolyline
 90
8
 70
1
 10
5975.0
 20
5110.0
 10
5975.0
 20
4960.0
 10
6050.0
 20
4960.0
 10
6050.0
 20
4966.5
 10
5981.5
 20
4966.5
 10
5981.5
 20
5103.5
 10
6050.0
 20
5103.5
 10
6050.0
 20
5110.0
  0
CIRCLE
  5
1DF
330
17
100
AcDbEntity
  8
HID
100
AcDbCircle
 10
6015.0
 20
5070.0
 30
0.0
 40
13.0
  0
HATCH
  5
1E0
330
17
100
AcDbEntity
  8
HAT
 62
7
100
AcDbHatch
 10
0.0
 20
0.0
 30
0.0
210
0.0
220
0.0
230
1.0
  2
AR-CONC
 70
0
 71
0
 91
1
 92
3
 72
0
 73
1
 93
8
 10
7450.0
 20
5450.0
 10
7450.0
 20
4650.0
 10
7050.0
 20
4650.0
 10
7050.0
 20
4930.0
 10
7200.0
 20
4930.0
 10
7200.0
 20
5140.0
 10
7050.0
 20
5140.0
 10
7050.0
 20
5450.0
 97
0
 75
1
 76
1
 52
0.0
 41
1.0
 77
0
 78
13
 53
50.0
 43
0.0
 44
0.0
 45
182.184668996
 46
-15.9390855389
 79
2
 49
19.05
 49
-209.55
 53
355.0
 43
0.0
 44
0.0
 45
-35.243421425
 46
191.056845239
 79
2
 49
15.24
 49
-167.64058417
 53
100.4514447
 43
15.182007
 44
-1.3282535
 45
146.9412470904
 46
175.1177519122
 79
2
 49
16.1900088
 49
-178.0902446
 53
46.1842
 43
0.0
 44
50.8
 45
271.0790408921
 46
-42.0423279327
 79
2
 49
28.575
 49
-314.325
 53
96.63555761
 43
22.5899
 44
47.2965
 45
237.4041340515
 46
247.4261245977
 79
2
 49
24.28502314
 49
-267.13560816
 53
351.18415117
 43
0.0
 44
50.8
 45
237.404134065
 46
247.4261245855
 79
2
 49
22.85996707
 49
-251.45973192
 53
21.0
 43
25.4
 44
38.1
 45
151.6143912691
 46
-102.2651981871
 79
2
 49
19.05
 49
-209.55
 53
326.0
 43
25.4
 44
38.1
 45
61.8020283476
 46
184.1879661223
 79
2
 49
15.24
 49
-167.64
 53
71.451445
 43
38.0345326
 44
29.5779001
 45
213.4164192787
 46
81.9227688859
 79
2
 49
16.1900088
 49
-178.0899376
 53
37.5
 43
0.0
 44
0.0
 45
3.0886032506
 46
84.5550388732
 79
6
 49
0.0
 49
-165.608
 49
0.0
 49
-170.18
 49
0.0
 49
-168.275
 53
7.5
 43
0.0
 44
0.0
 45
66.8196625103
 46
100.1805748181
 79
6
 49
0.0
 49
-97.028
 49
0.0
 49
-161.798
 49
0.0
 49
-64.135
 53
-32.5
 43
-56.642
 44
0.0
 45
135.5905951669
 46
-5.7287439927
 79
6
 49
0.0
 49
-63.5
 49
0.0
 49
-198.12
 49
0.0
 49
-262.89
 53
-42.5
 43
-82.042
 44
0.0
 45
148.129181386
 46
25.4264910333
 79
6
 49
0.0
 49
-82.55
 49
0.0
 49
-131.572
 49
0.0
 49
-186.69
 98
0
  0
LWPOLYLINE
  5
1E1
330
17
100
AcDbEntity
  8
OUT
100
AcDbPolyline
 90
8
 70
1
 10
7450.0
 20
5450.0
 10
7450.0
 20
4650.0
 10
7050.0
 20
4650.0
 10
7050.0
 20
4930.0
 10
7200.0
 20
4930.0
 10
7200.0
 20
5140.0
 10
7050.0
 20
5140.0
 10
7050.0
 20
5450.0
  0
HATCH
  5
1E2
330
17
100
AcDbEntity
  8
HAT
 62
8
100
AcDbHatch
 10
0.0
 20
0.0
 30
0.0
210
0.0
220
0.0
230
1.0
  2
SOLID
 70
1
 71
0
 91
1
 92
3
 72
0
 73
1
 93
8
 10
7125.0
 20
5110.0
 10
7125.0
 20
4960.0
 10
7050.0
 20
4960.0
 10
7050.0
 20
4966.5
 10
7118.5
 20
4966.5
 10
7118.5
 20
5103.5
 10
7050.0
 20
5103.5
 10
7050.0
 20
5110.0
 97
0
 75
1
 76
1
 98
0
  0
LWPOLYLINE
  5
1E3
330
17
100
AcDbEntity
  8
SEC
100
AcDbPolyline
 90
8
 70
1
 10
7125.0
 20
5110.0
 10
7125.0
 20
4960.0
 10
7050.0
 20
4960.0
 10
7050.0
 20
4966.5
 10
7118.5
 20
4966.5
 10
7118.5
 20
5103.5
 10
7050.0
 20
5103.5
 10
7050.0
 20
5110.0
  0
CIRCLE
  5
1E4
330
17
100
AcDbEntity
  8
HID
100
AcDbCircle
 10
7085.0
 20
5070.0
 30
0.0
 40
13.0
  0
LWPOLYLINE
  5
1E5
330
17
100
AcDbEntity
  8
HID
100
AcDbPolyline
 90
4
 70
1
 10
6000.0
 20
4921.0
 10
7100.0
 20
4921.0
 10
7100.0
 20
5055.0
 10
6000.0
 20
5055.0
  0
LINE
  5
1E6
330
17
100
AcDbEntity
  8
HID
100
AcDbLine
 10
6000.0
 20
5046.0
 30
0.0
 11
7100.0
 21
5046.0
 31
0.0
  0
LWPOLYLINE
  5
1E7
330
17
100
AcDbEntity
  8
OUT
100
AcDbPolyline
 90
4
 70
1
 10
5900.0
 20
4960.0
 10
7200.0
 20
4960.0
 10
7200.0
 20
5110.0
 10
5900.0
 20
5110.0
  0
CIRCLE
  5
1E8
330
17
100
AcDbEntity
  8
THIN
100
AcDbCircle
 10
5940.0
 20
5080.0
 30
0.0
 40
9.0
  0
CIRCLE
  5
1E9
330
17
100
AcDbEntity
  8
THIN
100
AcDbCircle
 10
5940.0
 20
4990.0
 30
0.0
 40
9.0
  0
CIRCLE
  5
1EA
330
17
100
AcDbEntity
  8
THIN
100
AcDbCircle
 10
6010.0
 20
5080.0
 30
0.0
 40
9.0
  0
CIRCLE
  5
1EB
330
17
100
AcDbEntity
  8
THIN
100
AcDbCircle
 10
6010.0
 20
4990.0
 30
0.0
 40
9.0
  0
CIRCLE
  5
1EC
330
17
100
AcDbEntity
  8
THIN
100
AcDbCircle
 10
7160.0
 20
5080.0
 30
0.0
 40
9.0
  0
CIRCLE
  5
1ED
330
17
100
AcDbEntity
  8
THIN
100
AcDbCircle
 10
7160.0
 20
4990.0
 30
0.0
 40
9.0
  0
CIRCLE
  5
1EE
330
17
100
AcDbEntity
  8
THIN
100
AcDbCircle
 10
7090.0
 20
5080.0
 30
0.0
 40
9.0
  0
CIRCLE
  5
1EF
330
17
100
AcDbEntity
  8
THIN
100
AcDbCircle
 10
7090.0
 20
4990.0
 30
0.0
 40
9.0
  0
LWPOLYLINE
  5
1F0
330
17
100
AcDbEntity
  8
OUT
100
AcDbPolyline
 90
4
 70
1
 10
6375.0
 20
4910.0
 10
6725.0
 20
4910.0
 10
6725.0
 20
5160.0
 10
6375.0
 20
5160.0
  0
LWPOLYLINE
  5
1F1
330
17
100
AcDbEntity
  8
OUT
100
AcDbPolyline
 90
4
 70
1
 10
6725.0
 20
5023.0
 10
6805.0
 20
5023.0
 10
6805.0
 20
5047.0
 10
6725.0
 20
5047.0
  0
LWPOLYLINE
  5
1F2
330
17
100
AcDbEntity
  8
OUT
100
AcDbPolyline
 90
4
 70
1
 10
6805.0
 20
4785.0
 10
6845.0
 20
4785.0
 10
6845.0
 20
5285.0
 10
6805.0
 20
5285.0
  0
CIRCLE
  5
1F3
330
17
100
AcDbEntity
  8
OUT
100
AcDbCircle
 10
6550.0
 20
5035.0
 30
0.0
 40
70.0
  0
CIRCLE
  5
1F4
330
17
100
AcDbEntity
  8
THIN
100
AcDbCircle
 10
6550.0
 20
5035.0
 30
0.0
 40
57.0
  0
LINE
  5
1F5
330
17
100
AcDbEntity
  8
CEN
100
AcDbLine
 10
5750.0
 20
5035.0
 30
0.0
 11
7350.0
 21
5035.0
 31
0.0
  0
LINE
  5
1F6
330
17
100
AcDbEntity
  8
CEN
100
AcDbLine
 10
6550.0
 20
5530.0
 30
0.0
 11
6550.0
 21
4570.0
 31
0.0
  0
TEXT
  5
1F7
330
17
100
AcDbEntity
  8
TXT
100
AcDbText
 10
6550.0
 20
5380.0
 30
0.0
 40
50.0
  1
상류
  7
KOR
 72
1
 11
6550.0
 21
5380.0
 31
0.0
100
AcDbText
 73
2
  0
TEXT
  5
1F8
330
17
100
AcDbEntity
  8
TXT
100
AcDbText
 10
6550.0
 20
4720.0
 30
0.0
 40
50.0
  1
하류
  7
KOR
 72
1
 11
6550.0
 21
4720.0
 31
0.0
100
AcDbText
 73
2
  0
LINE
  5
1F9
330
17
100
AcDbEntity
  8
DIM
100
AcDbLine
 10
5900.0
 20
4940.0
 30
0.0
 11
5900.0
 21
4460.0
 31
0.0
  0
LINE
  5
1FA
330
17
100
AcDbEntity
  8
DIM
100
AcDbLine
 10
5876.0
 20
4466.0
 30
0.0
 11
5924.0
 21
4514.0
 31
0.0
  0
LINE
  5
1FB
330
17
100
AcDbEntity
  8
DIM
100
AcDbLine
 10
7200.0
 20
4940.0
 30
0.0
 11
7200.0
 21
4460.0
 31
0.0
  0
LINE
  5
1FC
330
17
100
AcDbEntity
  8
DIM
100
AcDbLine
 10
7176.0
 20
4466.0
 30
0.0
 11
7224.0
 21
4514.0
 31
0.0
  0
LINE
  5
1FD
330
17
100
AcDbEntity
  8
DIM
100
AcDbLine
 10
5870.0
 20
4490.0
 30
0.0
 11
7230.0
 21
4490.0
 31
0.0
  0
TEXT
  5
1FE
330
17
100
AcDbEntity
  8
TXT
100
AcDbText
 10
6550.0
 20
4505.0
 30
0.0
 40
50.0
  1
1,300
  7
KOR
 72
1
 11
6550.0
 21
4505.0
 31
0.0
100
AcDbText
 73
1
  0
LINE
  5
1FF
330
17
100
AcDbEntity
  8
DIM
100
AcDbLine
 10
6050.0
 20
5470.0
 30
0.0
 11
6050.0
 21
5620.0
 31
0.0
  0
LINE
  5
200
330
17
100
AcDbEntity
  8
DIM
100
AcDbLine
 10
6026.0
 20
5566.0
 30
0.0
 11
6074.0
 21
5614.0
 31
0.0
  0
LINE
  5
201
330
17
100
AcDbEntity
  8
DIM
100
AcDbLine
 10
7050.0
 20
5470.0
 30
0.0
 11
7050.0
 21
5620.0
 31
0.0
  0
LINE
  5
202
330
17
100
AcDbEntity
  8
DIM
100
AcDbLine
 10
7026.0
 20
5566.0
 30
0.0
 11
7074.0
 21
5614.0
 31
0.0
  0
LINE
  5
203
330
17
100
AcDbEntity
  8
DIM
100
AcDbLine
 10
6020.0
 20
5590.0
 30
0.0
 11
7080.0
 21
5590.0
 31
0.0
  0
TEXT
  5
204
330
17
100
AcDbEntity
  8
TXT
100
AcDbText
 10
6550.0
 20
5605.0
 30
0.0
 40
50.0
  1
1,000
  7
KOR
 72
1
 11
6550.0
 21
5605.0
 31
0.0
100
AcDbText
 73
1
  0
LINE
  5
205
330
17
100
AcDbEntity
  8
THIN
100
AcDbLine
 10
5807.307692307692
 20
5568.461538461538
 30
0.0
 11
6015.0
 21
5070.0
 31
0.0
  0
CIRCLE
  5
206
330
17
100
AcDbEntity
  8
THIN
100
AcDbCircle
 10
6015.0
 20
5070.0
 30
0.0
 40
8.0
  0
CIRCLE
  5
207
330
17
100
AcDbEntity
  8
THIN
100
AcDbCircle
 10
5790.0
 20
5610.0
 30
0.0
 40
45.0
  0
TEXT
  5
208
330
17
100
AcDbEntity
  8
TXT
100
AcDbText
 10
5790.0
 20
5610.0
 30
0.0
 40
50.0
  1
10
  7
KOR
 72
1
 11
5790.0
 21
5610.0
 31
0.0
100
AcDbText
 73
2
  0
LINE
  5
209
330
17
100
AcDbEntity
  8
THIN
100
AcDbLine
 10
5808.71947679338
 20
4530.921646943667
 30
0.0
 11
6005.0
 21
4960.0
 31
0.0
  0
CIRCLE
  5
20A
330
17
100
AcDbEntity
  8
THIN
100
AcDbCircle
 10
6005.0
 20
4960.0
 30
0.0
 40
8.0
  0
CIRCLE
  5
20B
330
17
100
AcDbEntity
  8
THIN
100
AcDbCircle
 10
5790.0
 20
4490.0
 30
0.0
 40
45.0
  0
TEXT
  5
20C
330
17
100
AcDbEntity
  8
TXT
100
AcDbText
 10
5790.0
 20
4490.0
 30
0.0
 40
50.0
  1
4
  7
KOR
 72
1
 11
5790.0
 21
4490.0
 31
0.0
100
AcDbText
 73
2
  0
TEXT
  5
20D
330
17
100
AcDbEntity
  8
TXT
100
AcDbText
 10
6550.0
 20
4350.0
 30
0.0
 40
100.0
  1
평 면 도
  7
KOR
 72
1
 11
6550.0
 21
4350.0
 31
0.0
100
AcDbText
 73
1
  0
LINE
  5
20E
330
17
100
AcDbEntity
  8
OUT
100
AcDbLine
 10
6100.0
 20
4325.0
 30
0.0
 11
7000.0
 21
4325.0
 31
0.0
  0
LINE
  5
20F
330
17
100
AcDbEntity
  8
THIN
100
AcDbLine
 10
6100.0
 20
4305.0
 30
0.0
 11
7000.0
 21
4305.0
 31
0.0
  0
TEXT
  5
210
330
17
100
AcDbEntity
  8
TXT
100
AcDbText
 10
6550.0
 20
4280.0
 30
0.0
 40
50.0
  1
S=1:20
  7
KOR
 72
1
 11
6550.0
 21
4280.0
 31
0.0
100
AcDbText
 73
3
  0
TEXT
  5
211
330
17
100
AcDbEntity
  8
TXT
100
AcDbText
 10
5000.0
 20
3990.0
 30
0.0
 40
80.0
  1
재 료 표
  7
KOR
 11
5000.0
 21
3990.0
 31
0.0
100
AcDbText
 73
1
  0
LINE
  5
212
330
17
100
AcDbEntity
  8
OUT
100
AcDbLine
 10
5000.0
 20
3950.0
 30
0.0
 11
7900.0
 21
3950.0
 31
0.0
  0
LINE
  5
213
330
17
100
AcDbEntity
  8
OUT
100
AcDbLine
 10
5000.0
 20
3840.0
 30
0.0
 11
7900.0
 21
3840.0
 31
0.0
  0
LINE
  5
214
330
17
100
AcDbEntity
  8
THIN
100
AcDbLine
 10
5000.0
 20
3730.0
 30
0.0
 11
7900.0
 21
3730.0
 31
0.0
  0
LINE
  5
215
330
17
100
AcDbEntity
  8
THIN
100
AcDbLine
 10
5000.0
 20
3620.0
 30
0.0
 11
7900.0
 21
3620.0
 31
0.0
  0
LINE
  5
216
330
17
100
AcDbEntity
  8
THIN
100
AcDbLine
 10
5000.0
 20
3510.0
 30
0.0
 11
7900.0
 21
3510.0
 31
0.0
  0
LINE
  5
217
330
17
100
AcDbEntity
  8
THIN
100
AcDbLine
 10
5000.0
 20
3400.0
 30
0.0
 11
7900.0
 21
3400.0
 31
0.0
  0
LINE
  5
218
330
17
100
AcDbEntity
  8
THIN
100
AcDbLine
 10
5000.0
 20
3290.0
 30
0.0
 11
7900.0
 21
3290.0
 31
0.0
  0
LINE
  5
219
330
17
100
AcDbEntity
  8
THIN
100
AcDbLine
 10
5000.0
 20
3180.0
 30
0.0
 11
7900.0
 21
3180.0
 31
0.0
  0
LINE
  5
21A
330
17
100
AcDbEntity
  8
THIN
100
AcDbLine
 10
5000.0
 20
3070.0
 30
0.0
 11
7900.0
 21
3070.0
 31
0.0
  0
LINE
  5
21B
330
17
100
AcDbEntity
  8
THIN
100
AcDbLine
 10
5000.0
 20
2960.0
 30
0.0
 11
7900.0
 21
2960.0
 31
0.0
  0
LINE
  5
21C
330
17
100
AcDbEntity
  8
THIN
100
AcDbLine
 10
5000.0
 20
2850.0
 30
0.0
 11
7900.0
 21
2850.0
 31
0.0
  0
LINE
  5
21D
330
17
100
AcDbEntity
  8
THIN
100
AcDbLine
 10
5000.0
 20
2740.0
 30
0.0
 11
7900.0
 21
2740.0
 31
0.0
  0
LINE
  5
21E
330
17
100
AcDbEntity
  8
THIN
100
AcDbLine
 10
5000.0
 20
2630.0
 30
0.0
 11
7900.0
 21
2630.0
 31
0.0
  0
LINE
  5
21F
330
17
100
AcDbEntity
  8
THIN
100
AcDbLine
 10
5000.0
 20
2520.0
 30
0.0
 11
7900.0
 21
2520.0
 31
0.0
  0
LINE
  5
220
330
17
100
AcDbEntity
  8
OUT
100
AcDbLine
 10
5000.0
 20
2410.0
 30
0.0
 11
7900.0
 21
2410.0
 31
0.0
  0
LINE
  5
221
330
17
100
AcDbEntity
  8
OUT
100
AcDbLine
 10
5000.0
 20
3950.0
 30
0.0
 11
5000.0
 21
2410.0
 31
0.0
  0
LINE
  5
222
330
17
100
AcDbEntity
  8
THIN
100
AcDbLine
 10
5180.0
 20
3950.0
 30
0.0
 11
5180.0
 21
2410.0
 31
0.0
  0
LINE
  5
223
330
17
100
AcDbEntity
  8
THIN
100
AcDbLine
 10
5800.0
 20
3950.0
 30
0.0
 11
5800.0
 21
2410.0
 31
0.0
  0
LINE
  5
224
330
17
100
AcDbEntity
  8
THIN
100
AcDbLine
 10
6900.0
 20
3950.0
 30
0.0
 11
6900.0
 21
2410.0
 31
0.0
  0
LINE
  5
225
330
17
100
AcDbEntity
  8
THIN
100
AcDbLine
 10
7600.0
 20
3950.0
 30
0.0
 11
7600.0
 21
2410.0
 31
0.0
  0
LINE
  5
226
330
17
100
AcDbEntity
  8
OUT
100
AcDbLine
 10
7900.0
 20
3950.0
 30
0.0
 11
7900.0
 21
2410.0
 31
0.0
  0
TEXT
  5
227
330
17
100
AcDbEntity
  8
TXT
100
AcDbText
 10
5090.0
 20
3895.0
 30
0.0
 40
45.0
  1
품번
  7
KOR
 72
1
 11
5090.0
 21
3895.0
 31
0.0
100
AcDbText
 73
2
  0
TEXT
  5
228
330
17
100
AcDbEntity
  8
TXT
100
AcDbText
 10
5490.0
 20
3895.0
 30
0.0
 40
45.0
  1
품 명
  7
KOR
 72
1
 11
5490.0
 21
3895.0
 31
0.0
100
AcDbText
 73
2
  0
TEXT
  5
229
330
17
100
AcDbEntity
  8
TXT
100
AcDbText
 10
6350.0
 20
3895.0
 30
0.0
 40
45.0
  1
규 격
  7
KOR
 72
1
 11
6350.0
 21
3895.0
 31
0.0
100
AcDbText
 73
2
  0
TEXT
  5
22A
330
17
100
AcDbEntity
  8
TXT
100
AcDbText
 10
7250.0
 20
3895.0
 30
0.0
 40
45.0
  1
재 질
  7
KOR
 72
1
 11
7250.0
 21
3895.0
 31
0.0
100
AcDbText
 73
2
  0
TEXT
  5
22B
330
17
100
AcDbEntity
  8
TXT
100
AcDbText
 10
7750.0
 20
3895.0
 30
0.0
 40
45.0
  1
수량
  7
KOR
 72
1
 11
7750.0
 21
3895.0
 31
0.0
100
AcDbText
 73
2
  0
TEXT
  5
22C
330
17
100
AcDbEntity
  8
TXT
100
AcDbText
 10
5090.0
 20
3785.0
 30
0.0
 40
45.0
  1
1
  7
KOR
 72
1
 11
5090.0
 21
3785.0
 31
0.0
100
AcDbText
 73
2
  0
TEXT
  5
22D
330
17
100
AcDbEntity
  8
TXT
100
AcDbText
 10
5490.0
 20
3785.0
 30
0.0
 40
45.0
  1
스킨플레이트
  7
KOR
 72
1
 11
5490.0
 21
3785.0
 31
0.0
100
AcDbText
 73
2
  0
TEXT
  5
22E
330
17
100
AcDbEntity
  8
TXT
100
AcDbText
 10
6350.0
 20
3785.0
 30
0.0
 40
45.0
  1
PL 9×1,100×1,100
  7
KOR
 72
1
 11
6350.0
 21
3785.0
 31
0.0
100
AcDbText
 73
2
  0
TEXT
  5
22F
330
17
100
AcDbEntity
  8
TXT
100
AcDbText
 10
7250.0
 20
3785.0
 30
0.0
 40
45.0
  1
SS275
  7
KOR
 72
1
 11
7250.0
 21
3785.0
 31
0.0
100
AcDbText
 73
2
  0
TEXT
  5
230
330
17
100
AcDbEntity
  8
TXT
100
AcDbText
 10
7750.0
 20
3785.0
 30
0.0
 40
45.0
  1
1
  7
KOR
 72
1
 11
7750.0
 21
3785.0
 31
0.0
100
AcDbText
 73
2
  0
TEXT
  5
231
330
17
100
AcDbEntity
  8
TXT
100
AcDbText
 10
5090.0
 20
3675.0
 30
0.0
 40
45.0
  1
2
  7
KOR
 72
1
 11
5090.0
 21
3675.0
 31
0.0
100
AcDbText
 73
2
  0
TEXT
  5
232
330
17
100
AcDbEntity
  8
TXT
100
AcDbText
 10
5490.0
 20
3675.0
 30
0.0
 40
45.0
  1
수평 주형
  7
KOR
 72
1
 11
5490.0
 21
3675.0
 31
0.0
100
AcDbText
 73
2
  0
TEXT
  5
233
330
17
100
AcDbEntity
  8
TXT
100
AcDbText
 10
6350.0
 20
3675.0
 30
0.0
 40
45.0
  1
ㄷ-125×65×6 L=1,100
  7
KOR
 72
1
 11
6350.0
 21
3675.0
 31
0.0
100
AcDbText
 73
2
  0
TEXT
  5
234
330
17
100
AcDbEntity
  8
TXT
100
AcDbText
 10
7250.0
 20
3675.0
 30
0.0
 40
45.0
  1
SS275
  7
KOR
 72
1
 11
7250.0
 21
3675.0
 31
0.0
100
AcDbText
 73
2
  0
TEXT
  5
235
330
17
100
AcDbEntity
  8
TXT
100
AcDbText
 10
7750.0
 20
3675.0
 30
0.0
 40
45.0
  1
4
  7
KOR
 72
1
 11
7750.0
 21
3675.0
 31
0.0
100
AcDbText
 73
2
  0
TEXT
  5
236
330
17
100
AcDbEntity
  8
TXT
100
AcDbText
 10
5090.0
 20
3565.0
 30
0.0
 40
45.0
  1
3
  7
KOR
 72
1
 11
5090.0
 21
3565.0
 31
0.0
100
AcDbText
 73
2
  0
TEXT
  5
237
330
17
100
AcDbEntity
  8
TXT
100
AcDbText
 10
5490.0
 20
3565.0
 30
0.0
 40
45.0
  1
수직 보강재
  7
KOR
 72
1
 11
5490.0
 21
3565.0
 31
0.0
100
AcDbText
 73
2
  0
TEXT
  5
238
330
17
100
AcDbEntity
  8
TXT
100
AcDbText
 10
6350.0
 20
3565.0
 30
0.0
 40
45.0
  1
FB 75×9
  7
KOR
 72
1
 11
6350.0
 21
3565.0
 31
0.0
100
AcDbText
 73
2
  0
TEXT
  5
239
330
17
100
AcDbEntity
  8
TXT
100
AcDbText
 10
7250.0
 20
3565.0
 30
0.0
 40
45.0
  1
SS275
  7
KOR
 72
1
 11
7250.0
 21
3565.0
 31
0.0
100
AcDbText
 73
2
  0
TEXT
  5
23A
330
17
100
AcDbEntity
  8
TXT
100
AcDbText
 10
7750.0
 20
3565.0
 30
0.0
 40
45.0
  1
9
  7
KOR
 72
1
 11
7750.0
 21
3565.0
 31
0.0
100
AcDbText
 73
2
  0
TEXT
  5
23B
330
17
100
AcDbEntity
  8
TXT
100
AcDbText
 10
5090.0
 20
3455.0
 30
0.0
 40
45.0
  1
4
  7
KOR
 72
1
 11
5090.0
 21
3455.0
 31
0.0
100
AcDbText
 73
2
  0
TEXT
  5
23C
330
17
100
AcDbEntity
  8
TXT
100
AcDbText
 10
5490.0
 20
3455.0
 30
0.0
 40
45.0
  1
가이드 프레임
  7
KOR
 72
1
 11
5490.0
 21
3455.0
 31
0.0
100
AcDbText
 73
2
  0
TEXT
  5
23D
330
17
100
AcDbEntity
  8
TXT
100
AcDbText
 10
6350.0
 20
3455.0
 30
0.0
 40
45.0
  1
ㄷ-150×75×6.5 L=2,475
  7
KOR
 72
1
 11
6350.0
 21
3455.0
 31
0.0
100
AcDbText
 73
2
  0
TEXT
  5
23E
330
17
100
AcDbEntity
  8
TXT
100
AcDbText
 10
7250.0
 20
3455.0
 30
0.0
 40
45.0
  1
SS275
  7
KOR
 72
1
 11
7250.0
 21
3455.0
 31
0.0
100
AcDbText
 73
2
  0
TEXT
  5
23F
330
17
100
AcDbEntity
  8
TXT
100
AcDbText
 10
7750.0
 20
3455.0
 30
0.0
 40
45.0
  1
2
  7
KOR
 72
1
 11
7750.0
 21
3455.0
 31
0.0
100
AcDbText
 73
2
  0
TEXT
  5
240
330
17
100
AcDbEntity
  8
TXT
100
AcDbText
 10
5090.0
 20
3345.0
 30
0.0
 40
45.0
  1
5
  7
KOR
 72
1
 11
5090.0
 21
3345.0
 31
0.0
100
AcDbText
 73
2
  0
TEXT
  5
241
330
17
100
AcDbEntity
  8
TXT
100
AcDbText
 10
5490.0
 20
3345.0
 30
0.0
 40
45.0
  1
실(Sill) 빔
  7
KOR
 72
1
 11
5490.0
 21
3345.0
 31
0.0
100
AcDbText
 73
2
  0
TEXT
  5
242
330
17
100
AcDbEntity
  8
TXT
100
AcDbText
 10
6350.0
 20
3345.0
 30
0.0
 40
45.0
  1
ㄷ-150×75×6.5 L=1,150
  7
KOR
 72
1
 11
6350.0
 21
3345.0
 31
0.0
100
AcDbText
 73
2
  0
TEXT
  5
243
330
17
100
AcDbEntity
  8
TXT
100
AcDbText
 10
7250.0
 20
3345.0
 30
0.0
 40
45.0
  1
SS275
  7
KOR
 72
1
 11
7250.0
 21
3345.0
 31
0.0
100
AcDbText
 73
2
  0
TEXT
  5
244
330
17
100
AcDbEntity
  8
TXT
100
AcDbText
 10
7750.0
 20
3345.0
 30
0.0
 40
45.0
  1
1
  7
KOR
 72
1
 11
7750.0
 21
3345.0
 31
0.0
100
AcDbText
 73
2
  0
TEXT
  5
245
330
17
100
AcDbEntity
  8
TXT
100
AcDbText
 10
5090.0
 20
3235.0
 30
0.0
 40
45.0
  1
6
  7
KOR
 72
1
 11
5090.0
 21
3235.0
 31
0.0
100
AcDbText
 73
2
  0
TEXT
  5
246
330
17
100
AcDbEntity
  8
TXT
100
AcDbText
 10
5490.0
 20
3235.0
 30
0.0
 40
45.0
  1
상부 빔(권양대)
  7
KOR
 72
1
 11
5490.0
 21
3235.0
 31
0.0
100
AcDbText
 73
2
  0
TEXT
  5
247
330
17
100
AcDbEntity
  8
TXT
100
AcDbText
 10
6350.0
 20
3235.0
 30
0.0
 40
45.0
  1
H-150×150×7×10 L=1,300
  7
KOR
 72
1
 11
6350.0
 21
3235.0
 31
0.0
100
AcDbText
 73
2
  0
TEXT
  5
248
330
17
100
AcDbEntity
  8
TXT
100
AcDbText
 10
7250.0
 20
3235.0
 30
0.0
 40
45.0
  1
SS275
  7
KOR
 72
1
 11
7250.0
 21
3235.0
 31
0.0
100
AcDbText
 73
2
  0
TEXT
  5
249
330
17
100
AcDbEntity
  8
TXT
100
AcDbText
 10
7750.0
 20
3235.0
 30
0.0
 40
45.0
  1
1
  7
KOR
 72
1
 11
7750.0
 21
3235.0
 31
0.0
100
AcDbText
 73
2
  0
TEXT
  5
24A
330
17
100
AcDbEntity
  8
TXT
100
AcDbText
 10
5090.0
 20
3125.0
 30
0.0
 40
45.0
  1
7
  7
KOR
 72
1
 11
5090.0
 21
3125.0
 31
0.0
100
AcDbText
 73
2
  0
TEXT
  5
24B
330
17
100
AcDbEntity
  8
TXT
100
AcDbText
 10
5490.0
 20
3125.0
 30
0.0
 40
45.0
  1
랙식 개폐기(수동)
  7
KOR
 72
1
 11
5490.0
 21
3125.0
 31
0.0
100
AcDbText
 73
2
  0
TEXT
  5
24C
330
17
100
AcDbEntity
  8
TXT
100
AcDbText
 10
6350.0
 20
3125.0
 30
0.0
 40
45.0
  1
핸들 Ø500, 2.0 ton
  7
KOR
 72
1
 11
6350.0
 21
3125.0
 31
0.0
100
AcDbText
 73
2
  0
TEXT
  5
24D
330
17
100
AcDbEntity
  8
TXT
100
AcDbText
 10
7250.0
 20
3125.0
 30
0.0
 40
45.0
  1
조립품
  7
KOR
 72
1
 11
7250.0
 21
3125.0
 31
0.0
100
AcDbText
 73
2
  0
TEXT
  5
24E
330
17
100
AcDbEntity
  8
TXT
100
AcDbText
 10
7750.0
 20
3125.0
 30
0.0
 40
45.0
  1
1
  7
KOR
 72
1
 11
7750.0
 21
3125.0
 31
0.0
100
AcDbText
 73
2
  0
TEXT
  5
24F
330
17
100
AcDbEntity
  8
TXT
100
AcDbText
 10
5090.0
 20
3015.0
 30
0.0
 40
45.0
  1
8
  7
KOR
 72
1
 11
5090.0
 21
3015.0
 31
0.0
100
AcDbText
 73
2
  0
TEXT
  5
250
330
17
100
AcDbEntity
  8
TXT
100
AcDbText
 10
5490.0
 20
3015.0
 30
0.0
 40
45.0
  1
랙 바
  7
KOR
 72
1
 11
5490.0
 21
3015.0
 31
0.0
100
AcDbText
 73
2
  0
TEXT
  5
251
330
17
100
AcDbEntity
  8
TXT
100
AcDbText
 10
6350.0
 20
3015.0
 30
0.0
 40
45.0
  1
□50×50 L=1,800
  7
KOR
 72
1
 11
6350.0
 21
3015.0
 31
0.0
100
AcDbText
 73
2
  0
TEXT
  5
252
330
17
100
AcDbEntity
  8
TXT
100
AcDbText
 10
7250.0
 20
3015.0
 30
0.0
 40
45.0
  1
SM45C
  7
KOR
 72
1
 11
7250.0
 21
3015.0
 31
0.0
100
AcDbText
 73
2
  0
TEXT
  5
253
330
17
100
AcDbEntity
  8
TXT
100
AcDbText
 10
7750.0
 20
3015.0
 30
0.0
 40
45.0
  1
1
  7
KOR
 72
1
 11
7750.0
 21
3015.0
 31
0.0
100
AcDbText
 73
2
  0
TEXT
  5
254
330
17
100
AcDbEntity
  8
TXT
100
AcDbText
 10
5090.0
 20
2905.0
 30
0.0
 40
45.0
  1
9
  7
KOR
 72
1
 11
5090.0
 21
2905.0
 31
0.0
100
AcDbText
 73
2
  0
TEXT
  5
255
330
17
100
AcDbEntity
  8
TXT
100
AcDbText
 10
5490.0
 20
2905.0
 30
0.0
 40
45.0
  1
랙 커버 파이프
  7
KOR
 72
1
 11
5490.0
 21
2905.0
 31
0.0
100
AcDbText
 73
2
  0
TEXT
  5
256
330
17
100
AcDbEntity
  8
TXT
100
AcDbText
 10
6350.0
 20
2905.0
 30
0.0
 40
45.0
  1
Ø114.3×4.5 L=1,250
  7
KOR
 72
1
 11
6350.0
 21
2905.0
 31
0.0
100
AcDbText
 73
2
  0
TEXT
  5
257
330
17
100
AcDbEntity
  8
TXT
100
AcDbText
 10
7250.0
 20
2905.0
 30
0.0
 40
45.0
  1
STS304
  7
KOR
 72
1
 11
7250.0
 21
2905.0
 31
0.0
100
AcDbText
 73
2
  0
TEXT
  5
258
330
17
100
AcDbEntity
  8
TXT
100
AcDbText
 10
7750.0
 20
2905.0
 30
0.0
 40
45.0
  1
1
  7
KOR
 72
1
 11
7750.0
 21
2905.0
 31
0.0
100
AcDbText
 73
2
  0
TEXT
  5
259
330
17
100
AcDbEntity
  8
TXT
100
AcDbText
 10
5090.0
 20
2795.0
 30
0.0
 40
45.0
  1
10
  7
KOR
 72
1
 11
5090.0
 21
2795.0
 31
0.0
100
AcDbText
 73
2
  0
TEXT
  5
25A
330
17
100
AcDbEntity
  8
TXT
100
AcDbText
 10
5490.0
 20
2795.0
 30
0.0
 40
45.0
  1
측부 수밀고무
  7
KOR
 72
1
 11
5490.0
 21
2795.0
 31
0.0
100
AcDbText
 73
2
  0
TEXT
  5
25B
330
17
100
AcDbEntity
  8
TXT
100
AcDbText
 10
6350.0
 20
2795.0
 30
0.0
 40
45.0
  1
P형 Ø26
  7
KOR
 72
1
 11
6350.0
 21
2795.0
 31
0.0
100
AcDbText
 73
2
  0
TEXT
  5
25C
330
17
100
AcDbEntity
  8
TXT
100
AcDbText
 10
7250.0
 20
2795.0
 30
0.0
 40
45.0
  1
CR
  7
KOR
 72
1
 11
7250.0
 21
2795.0
 31
0.0
100
AcDbText
 73
2
  0
TEXT
  5
25D
330
17
100
AcDbEntity
  8
TXT
100
AcDbText
 10
7750.0
 20
2795.0
 30
0.0
 40
45.0
  1
2
  7
KOR
 72
1
 11
7750.0
 21
2795.0
 31
0.0
100
AcDbText
 73
2
  0
TEXT
  5
25E
330
17
100
AcDbEntity
  8
TXT
100
AcDbText
 10
5090.0
 20
2685.0
 30
0.0
 40
45.0
  1
11
  7
KOR
 72
1
 11
5090.0
 21
2685.0
 31
0.0
100
AcDbText
 73
2
  0
TEXT
  5
25F
330
17
100
AcDbEntity
  8
TXT
100
AcDbText
 10
5490.0
 20
2685.0
 30
0.0
 40
45.0
  1
하부 수밀고무
  7
KOR
 72
1
 11
5490.0
 21
2685.0
 31
0.0
100
AcDbText
 73
2
  0
TEXT
  5
260
330
17
100
AcDbEntity
  8
TXT
100
AcDbText
 10
6350.0
 20
2685.0
 30
0.0
 40
45.0
  1
평형 20×100
  7
KOR
 72
1
 11
6350.0
 21
2685.0
 31
0.0
100
AcDbText
 73
2
  0
TEXT
  5
261
330
17
100
AcDbEntity
  8
TXT
100
AcDbText
 10
7250.0
 20
2685.0
 30
0.0
 40
45.0
  1
CR
  7
KOR
 72
1
 11
7250.0
 21
2685.0
 31
0.0
100
AcDbText
 73
2
  0
TEXT
  5
262
330
17
100
AcDbEntity
  8
TXT
100
AcDbText
 10
7750.0
 20
2685.0
 30
0.0
 40
45.0
  1
1
  7
KOR
 72
1
 11
7750.0
 21
2685.0
 31
0.0
100
AcDbText
 73
2
  0
TEXT
  5
263
330
17
100
AcDbEntity
  8
TXT
100
AcDbText
 10
5090.0
 20
2575.0
 30
0.0
 40
45.0
  1
12
  7
KOR
 72
1
 11
5090.0
 21
2575.0
 31
0.0
100
AcDbText
 73
2
  0
TEXT
  5
264
330
17
100
AcDbEntity
  8
TXT
100
AcDbText
 10
5490.0
 20
2575.0
 30
0.0
 40
45.0
  1
앵커볼트
  7
KOR
 72
1
 11
5490.0
 21
2575.0
 31
0.0
100
AcDbText
 73
2
  0
TEXT
  5
265
330
17
100
AcDbEntity
  8
TXT
100
AcDbText
 10
6350.0
 20
2575.0
 30
0.0
 40
45.0
  1
M16×200
  7
KOR
 72
1
 11
6350.0
 21
2575.0
 31
0.0
100
AcDbText
 73
2
  0
TEXT
  5
266
330
17
100
AcDbEntity
  8
TXT
100
AcDbText
 10
7250.0
 20
2575.0
 30
0.0
 40
45.0
  1
SS275(용융아연)
  7
KOR
 72
1
 11
7250.0
 21
2575.0
 31
0.0
100
AcDbText
 73
2
  0
TEXT
  5
267
330
17
100
AcDbEntity
  8
TXT
100
AcDbText
 10
7750.0
 20
2575.0
 30
0.0
 40
45.0
  1
16
  7
KOR
 72
1
 11
7750.0
 21
2575.0
 31
0.0
100
AcDbText
 73
2
  0
TEXT
  5
268
330
17
100
AcDbEntity
  8
TXT
100
AcDbText
 10
5090.0
 20
2465.0
 30
0.0
 40
45.0
  1
13
  7
KOR
 72
1
 11
5090.0
 21
2465.0
 31
0.0
100
AcDbText
 73
2
  0
TEXT
  5
269
330
17
100
AcDbEntity
  8
TXT
100
AcDbText
 10
5490.0
 20
2465.0
 30
0.0
 40
45.0
  1
연결 러그·핀
  7
KOR
 72
1
 11
5490.0
 21
2465.0
 31
0.0
100
AcDbText
 73
2
  0
TEXT
  5
26A
330
17
100
AcDbEntity
  8
TXT
100
AcDbText
 10
6350.0
 20
2465.0
 30
0.0
 40
45.0
  1
PL 16, 핀 Ø30
  7
KOR
 72
1
 11
6350.0
 21
2465.0
 31
0.0
100
AcDbText
 73
2
  0
TEXT
  5
26B
330
17
100
AcDbEntity
  8
TXT
100
AcDbText
 10
7250.0
 20
2465.0
 30
0.0
 40
45.0
  1
SS275/STS304
  7
KOR
 72
1
 11
7250.0
 21
2465.0
 31
0.0
100
AcDbText
 73
2
  0
TEXT
  5
26C
330
17
100
AcDbEntity
  8
TXT
100
AcDbText
 10
7750.0
 20
2465.0
 30
0.0
 40
45.0
  1
1조
  7
KOR
 72
1
 11
7750.0
 21
2465.0
 31
0.0
100
AcDbText
 73
2
  0
TEXT
  5
26D
330
17
100
AcDbEntity
  8
TXT
100
AcDbText
 10
5000.0
 20
2280.0
 30
0.0
 40
70.0
  1
주  기
  7
KOR
 11
5000.0
 21
2280.0
 31
0.0
100
AcDbText
 73
1
  0
TEXT
  5
26E
330
17
100
AcDbEntity
  8
TXT
100
AcDbText
 10
5000.0
 20
2170.0
 30
0.0
 40
45.0
  1
1. 본 도면은 랙형 일체식 문비(수동 랙식 개폐기 일체형 수문)의 일반 참고도이며,
  7
KOR
 11
5000.0
 21
2170.0
 31
0.0
100
AcDbText
 73
1
  0
TEXT
  5
26F
330
17
100
AcDbEntity
  8
TXT
100
AcDbText
 10
5000.0
 20
2085.0
 30
0.0
 40
45.0
  1
    제작 전 현장 여건·설계수압에 따라 구조 검토 후 치수를 확정할 것.
  7
KOR
 11
5000.0
 21
2085.0
 31
0.0
100
AcDbText
 73
1
  0
TEXT
  5
270
330
17
100
AcDbEntity
  8
TXT
100
AcDbText
 10
5000.0
 20
2000.0
 30
0.0
 40
45.0
  1
2. 치수 단위: mm
  7
KOR
 11
5000.0
 21
2000.0
 31
0.0
100
AcDbText
 73
1
  0
TEXT
  5
271
330
17
100
AcDbEntity
  8
TXT
100
AcDbText
 10
5000.0
 20
1915.0
 30
0.0
 40
45.0
  1
3. 설계 조건(가정): 순경간 1,000, 문비 1,100×1,100, 양정 1,000, 설계수심 1.5 m
  7
KOR
 11
5000.0
 21
1915.0
 31
0.0
100
AcDbText
 73
1
  0
TEXT
  5
272
330
17
100
AcDbEntity
  8
TXT
100
AcDbText
 10
5000.0
 20
1830.0
 30
0.0
 40
45.0
  1
4. 강재는 KS D 3503 SS275, 용접은 연속 필릿 용접(각장 6mm 이상)으로 한다.
  7
KOR
 11
5000.0
 21
1830.0
 31
0.0
100
AcDbText
 73
1
  0
TEXT
  5
273
330
17
100
AcDbEntity
  8
TXT
100
AcDbText
 10
5000.0
 20
1745.0
 30
0.0
 40
45.0
  1
5. 도장: 무기질 아연말 하도 + 에폭시 중·상도(총 건조도막 250㎛ 이상)
  7
KOR
 11
5000.0
 21
1745.0
 31
0.0
100
AcDbText
 73
1
  0
TEXT
  5
274
330
17
100
AcDbEntity
  8
TXT
100
AcDbText
 10
5000.0
 20
1660.0
 30
0.0
 40
45.0
  1
6. 가이드 프레임·실 빔은 1차 콘크리트 블록아웃 후 수직·수평을 맞추고
  7
KOR
 11
5000.0
 21
1660.0
 31
0.0
100
AcDbText
 73
1
  0
TEXT
  5
275
330
17
100
AcDbEntity
  8
TXT
100
AcDbText
 10
5000.0
 20
1575.0
 30
0.0
 40
45.0
  1
    무수축 몰탈(2차 콘크리트)로 충전한다.
  7
KOR
 11
5000.0
 21
1575.0
 31
0.0
100
AcDbText
 73
1
  0
TEXT
  5
276
330
17
100
AcDbEntity
  8
TXT
100
AcDbText
 10
5000.0
 20
1490.0
 30
0.0
 40
45.0
  1
7. 수밀고무는 CR(클로로프렌) 재질로 하며, 볼트 체결 후 누수 시험 실시.
  7
KOR
 11
5000.0
 21
1490.0
 31
0.0
100
AcDbText
 73
1
  0
LWPOLYLINE
  5
277
330
17
100
AcDbEntity
  8
FRM
100
AcDbPolyline
 90
4
 70
1
 10
5000.0
 20
200.0
 10
8200.0
 20
200.0
 10
8200.0
 20
900.0
 10
5000.0
 20
900.0
  0
LINE
  5
278
330
17
100
AcDbEntity
  8
OUT
100
AcDbLine
 10
5000.0
 20
550.0
 30
0.0
 11
8200.0
 21
550.0
 31
0.0
  0
LINE
  5
279
330
17
100
AcDbEntity
  8
THIN
100
AcDbLine
 10
6700.0
 20
200.0
 30
0.0
 11
6700.0
 21
550.0
 31
0.0
  0
LINE
  5
27A
330
17
100
AcDbEntity
  8
THIN
100
AcDbLine
 10
7450.0
 20
200.0
 30
0.0
 11
7450.0
 21
550.0
 31
0.0
  0
LINE
  5
27B
330
17
100
AcDbEntity
  8
THIN
100
AcDbLine
 10
5000.0
 20
375.0
 30
0.0
 11
8200.0
 21
375.0
 31
0.0
  0
TEXT
  5
27C
330
17
100
AcDbEntity
  8
TXT
100
AcDbText
 10
5060.0
 20
800.0
 30
0.0
 40
45.0
  1
도 면 명
  7
KOR
 11
5060.0
 21
800.0
 31
0.0
100
AcDbText
 73
1
  0
TEXT
  5
27D
330
17
100
AcDbEntity
  8
TXT
100
AcDbText
 10
6600.0
 20
670.0
 30
0.0
 40
110.0
  1
랙형 일체식 문비 일반도
  7
KOR
 72
1
 11
6600.0
 21
670.0
 31
0.0
100
AcDbText
 73
2
  0
TEXT
  5
27E
330
17
100
AcDbEntity
  8
TXT
100
AcDbText
 10
5040.0
 20
462.0
 30
0.0
 40
45.0
  1
공 사 명
  7
KOR
 11
5040.0
 21
462.0
 31
0.0
100
AcDbText
 73
2
  0
TEXT
  5
27F
330
17
100
AcDbEntity
  8
TXT
100
AcDbText
 10
5330.0
 20
462.0
 30
0.0
 40
50.0
  1

  7
KOR
 11
5330.0
 21
462.0
 31
0.0
100
AcDbText
 73
2
  0
TEXT
  5
280
330
17
100
AcDbEntity
  8
TXT
100
AcDbText
 10
6740.0
 20
462.0
 30
0.0
 40
45.0
  1
축  척
  7
KOR
 11
6740.0
 21
462.0
 31
0.0
100
AcDbText
 73
2
  0
TEXT
  5
281
330
17
100
AcDbEntity
  8
TXT
100
AcDbText
 10
7030.0
 20
462.0
 30
0.0
 40
50.0
  1
1:20 (A3)
  7
KOR
 11
7030.0
 21
462.0
 31
0.0
100
AcDbText
 73
2
  0
TEXT
  5
282
330
17
100
AcDbEntity
  8
TXT
100
AcDbText
 10
7490.0
 20
462.0
 30
0.0
 40
45.0
  1
도면번호
  7
KOR
 11
7490.0
 21
462.0
 31
0.0
100
AcDbText
 73
2
  0
TEXT
  5
283
330
17
100
AcDbEntity
  8
TXT
100
AcDbText
 10
7780.0
 20
462.0
 30
0.0
 40
50.0
  1
G-001
  7
KOR
 11
7780.0
 21
462.0
 31
0.0
100
AcDbText
 73
2
  0
TEXT
  5
284
330
17
100
AcDbEntity
  8
TXT
100
AcDbText
 10
5040.0
 20
287.0
 30
0.0
 40
45.0
  1
작 성 일
  7
KOR
 11
5040.0
 21
287.0
 31
0.0
100
AcDbText
 73
2
  0
TEXT
  5
285
330
17
100
AcDbEntity
  8
TXT
100
AcDbText
 10
5330.0
 20
287.0
 30
0.0
 40
50.0
  1
2026. 10. 06
  7
KOR
 11
5330.0
 21
287.0
 31
0.0
100
AcDbText
 73
2
  0
TEXT
  5
286
330
17
100
AcDbEntity
  8
TXT
100
AcDbText
 10
6740.0
 20
287.0
 30
0.0
 40
45.0
  1
단  위
  7
KOR
 11
6740.0
 21
287.0
 31
0.0
100
AcDbText
 73
2
  0
TEXT
  5
287
330
17
100
AcDbEntity
  8
TXT
100
AcDbText
 10
7030.0
 20
287.0
 30
0.0
 40
50.0
  1
mm
  7
KOR
 11
7030.0
 21
287.0
 31
0.0
100
AcDbText
 73
2
  0
TEXT
  5
288
330
17
100
AcDbEntity
  8
TXT
100
AcDbText
 10
7490.0
 20
287.0
 30
0.0
 40
45.0
  1
비  고
  7
KOR
 11
7490.0
 21
287.0
 31
0.0
100
AcDbText
 73
2
  0
TEXT
  5
289
330
17
100
AcDbEntity
  8
TXT
100
AcDbText
 10
7780.0
 20
287.0
 30
0.0
 40
50.0
  1
참고도
  7
KOR
 11
7780.0
 21
287.0
 31
0.0
100
AcDbText
 73
2
  0
ENDSEC
  0
SECTION
  2
OBJECTS
  0
DICTIONARY
  5
A
330
0
100
AcDbDictionary
281
1
  3
ACAD_COLOR
350
B
  3
ACAD_GROUP
350
C
  3
ACAD_LAYOUT
350
D
  3
ACAD_MATERIAL
350
E
  3
ACAD_MLEADERSTYLE
350
F
  3
ACAD_MLINESTYLE
350
10
  3
ACAD_PLOTSETTINGS
350
11
  3
ACAD_PLOTSTYLENAME
350
12
  3
ACAD_SCALELIST
350
14
  3
ACAD_TABLESTYLE
350
15
  3
ACAD_VISUALSTYLE
350
16
  3
EZDXF_META
350
2D
  0
DICTIONARY
  5
B
330
A
100
AcDbDictionary
281
1
  0
DICTIONARY
  5
C
330
A
100
AcDbDictionary
281
1
  0
DICTIONARY
  5
D
330
A
100
AcDbDictionary
281
1
  3
Model
350
1A
  3
Layout1
350
1E
  0
DICTIONARY
  5
E
330
A
100
AcDbDictionary
281
1
  3
ByBlock
350
1F
  3
ByLayer
350
20
  3
Global
350
21
  0
DICTIONARY
  5
F
330
A
100
AcDbDictionary
281
1
  3
Standard
350
2C
  0
DICTIONARY
  5
10
330
A
100
AcDbDictionary
281
1
  3
Standard
350
22
  0
DICTIONARY
  5
11
330
A
100
AcDbDictionary
281
1
  0
ACDBDICTIONARYWDFLT
  5
12
330
A
100
AcDbDictionary
281
1
  3
Normal
350
13
100
AcDbDictionaryWithDefault
340
13
  0
ACDBPLACEHOLDER
  5
13
330
12
  0
DICTIONARY
  5
14
330
A
100
AcDbDictionary
281
1
  0
DICTIONARY
  5
15
330
A
100
AcDbDictionary
281
1
  0
DICTIONARY
  5
16
330
A
100
AcDbDictionary
281
1
  3
2dWireframe
350
5A
  3
Basic
350
5B
  3
Brighten
350
5C
  3
ColorChange
350
5D
  3
Conceptual
350
5E
  3
Dim
350
5F
  3
EdgeColorOff
350
60
  3
Facepattern
350
61
  3
Flat
350
62
  3
FlatWithEdges
350
63
  3
Gouraud
350
64
  3
GouraudWithEdges
350
65
  3
Hidden
350
66
  3
JitterOff
350
67
  3
Linepattern
350
68
  3
Modeling
350
69
  3
OverhangOff
350
6A
  3
Realistic
350
6B
  3
Shaded
350
6C
  3
Shaded with edges
350
6D
  3
Shades of Gray
350
6E
  3
Sketchy
350
6F
  3
Thicken
350
70
  3
Wireframe
350
71
  3
X-Ray
350
72
  0
LAYOUT
  5
1A
330
D
100
AcDbPlotSettings
  1

  4
A3
  6

 40
7.5
 41
20.0
 42
7.5
 43
20.0
 44
420.0
 45
297.0
 46
0.0
 47
0.0
 48
0.0
 49
0.0
140
0.0
141
0.0
142
1.0
143
1.0
 70
1024
 72
1
 73
0
 74
5
  7

 75
16
 76
0
 77
2
 78
300
147
1.0
148
0.0
149
0.0
100
AcDbLayout
  1
Model
 70
1
 71
0
 10
0.0
 20
0.0
 11
420.0
 21
297.0
 12
0.0
 22
0.0
 32
0.0
 14
1e+20
 24
1e+20
 34
1e+20
 15
-1e+20
 25
-1e+20
 35
-1e+20
146
0.0
 13
0.0
 23
0.0
 33
0.0
 16
1.0
 26
0.0
 36
0.0
 17
0.0
 27
1.0
 37
0.0
 76
1
330
17
  0
LAYOUT
  5
1E
330
D
100
AcDbPlotSettings
  1

  4
A3
  6

 40
7.5
 41
20.0
 42
7.5
 43
20.0
 44
420.0
 45
297.0
 46
0.0
 47
0.0
 48
0.0
 49
0.0
140
0.0
141
0.0
142
1.0
143
1.0
 70
0
 72
1
 73
0
 74
5
  7

 75
16
 76
0
 77
2
 78
300
147
1.0
148
0.0
149
0.0
100
AcDbLayout
  1
Layout1
 70
1
 71
1
 10
0.0
 20
0.0
 11
420.0
 21
297.0
 12
0.0
 22
0.0
 32
0.0
 14
1e+20
 24
1e+20
 34
1e+20
 15
-1e+20
 25
-1e+20
 35
-1e+20
146
0.0
 13
0.0
 23
0.0
 33
0.0
 16
1.0
 26
0.0
 36
0.0
 17
0.0
 27
1.0
 37
0.0
 76
1
330
1B
  0
MATERIAL
  5
1F
102
{ACAD_REACTORS
330
E
102
}
330
E
100
AcDbMaterial
  1
ByBlock
  2

 70
0
 40
1.0
 71
1
 41
1.0
 91
-1023410177
 42
1.0
 72
1
  3

 73
1
 74
1
 75
1
 44
0.5
 73
0
 45
1.0
 46
1.0
 77
1
  4

 78
1
 79
1
170
1
 48
1.0
171
1
  6

172
1
173
1
174
1
140
1.0
141
1.0
175
1
  7

176
1
177
1
178
1
143
1.0
179
1
  8

270
1
271
1
272
1
145
1.0
146
1.0
273
1
  9

274
1
275
1
276
1
 42
1.0
 72
1
  3

 73
1
 74
1
 75
1
 94
63
  0
MATERIAL
  5
20
102
{ACAD_REACTORS
330
E
102
}
330
E
100
AcDbMaterial
  1
ByLayer
  2

 70
0
 40
1.0
 71
1
 41
1.0
 91
-1023410177
 42
1.0
 72
1
  3

 73
1
 74
1
 75
1
 44
0.5
 73
0
 45
1.0
 46
1.0
 77
1
  4

 78
1
 79
1
170
1
 48
1.0
171
1
  6

172
1
173
1
174
1
140
1.0
141
1.0
175
1
  7

176
1
177
1
178
1
143
1.0
179
1
  8

270
1
271
1
272
1
145
1.0
146
1.0
273
1
  9

274
1
275
1
276
1
 42
1.0
 72
1
  3

 73
1
 74
1
 75
1
 94
63
  0
MATERIAL
  5
21
102
{ACAD_REACTORS
330
E
102
}
330
E
100
AcDbMaterial
  1
Global
  2

 70
0
 40
1.0
 71
1
 41
1.0
 91
-1023410177
 42
1.0
 72
1
  3

 73
1
 74
1
 75
1
 44
0.5
 73
0
 45
1.0
 46
1.0
 77
1
  4

 78
1
 79
1
170
1
 48
1.0
171
1
  6

172
1
173
1
174
1
140
1.0
141
1.0
175
1
  7

176
1
177
1
178
1
143
1.0
179
1
  8

270
1
271
1
272
1
145
1.0
146
1.0
273
1
  9

274
1
275
1
276
1
 42
1.0
 72
1
  3

 73
1
 74
1
 75
1
 94
63
  0
MLINESTYLE
  5
22
102
{ACAD_REACTORS
330
10
102
}
330
10
100
AcDbMlineStyle
  2
Standard
 70
0
  3

 62
256
 51
90.0
 52
90.0
 71
2
 49
0.5
 62
256
  6
BYLAYER
 49
-0.5
 62
256
  6
BYLAYER
  0
MLEADERSTYLE
  5
2C
102
{ACAD_REACTORS
330
F
102
}
330
F
100
AcDbMLeaderStyle
179
2
170
2
171
1
172
0
 90
2
 40
0.0
 41
0.0
173
1
 91
-1056964608
 92
-2
290
1
 42
2.0
291
1
 43
8.0
  3
Standard
 44
4.0
300

342
29
174
1
175
1
176
0
178
1
 93
-1056964608
 45
4.0
292
0
297
0
 46
4.0
 94
-1056964608
 47
1.0
 49
1.0
140
1.0
294
1
141
0.0
177
0
142
1.0
295
0
296
0
143
3.75
271
0
272
9
273
9
  0
DICTIONARY
  5
2D
330
A
100
AcDbDictionary
280
1
281
1
  3
CREATED_BY_EZDXF
350
2E
  3
WRITTEN_BY_EZDXF
350
28C
  0
DICTIONARYVAR
  5
2E
330
2D
100
DictionaryVariables
280
0
  1
1.4.4 @ 2026-10-06T22:41:32.918759+00:00
  0
VISUALSTYLE
  5
5A
102
{ACAD_REACTORS
330
16
102
}
330
16
100
AcDbVisualStyle
  2
2dWireframe
 70
4
 90
0
 40
0.6
 62
7
290
0
291
0
  0
VISUALSTYLE
  5
5B
102
{ACAD_REACTORS
330
16
102
}
330
16
100
AcDbVisualStyle
  2
Basic
 70
7
 90
1
 40
0.6
 62
7
290
0
291
1
  0
VISUALSTYLE
  5
5C
102
{ACAD_REACTORS
330
16
102
}
330
16
100
AcDbVisualStyle
  2
Brighten
 70
12
 90
2
 40
0.6
 62
7
290
0
291
1
  0
VISUALSTYLE
  5
5D
102
{ACAD_REACTORS
330
16
102
}
330
16
100
AcDbVisualStyle
  2
ColorChange
 70
16
 90
2
 40
0.6
 62
8
290
0
291
1
  0
VISUALSTYLE
  5
5E
102
{ACAD_REACTORS
330
16
102
}
330
16
100
AcDbVisualStyle
  2
Conceptual
 70
9
 90
3
 40
0.6
 62
7
290
0
291
0
  0
VISUALSTYLE
  5
5F
102
{ACAD_REACTORS
330
16
102
}
330
16
100
AcDbVisualStyle
  2
Dim
 70
11
 90
2
 40
0.6
 62
7
290
0
291
1
  0
VISUALSTYLE
  5
60
102
{ACAD_REACTORS
330
16
102
}
330
16
100
AcDbVisualStyle
  2
EdgeColorOff
 70
22
 90
2
 40
0.6
 62
7
290
0
291
1
  0
VISUALSTYLE
  5
61
102
{ACAD_REACTORS
330
16
102
}
330
16
100
AcDbVisualStyle
  2
Facepattern
 70
15
 90
2
 40
0.6
 62
7
290
0
291
1
  0
VISUALSTYLE
  5
62
102
{ACAD_REACTORS
330
16
102
}
330
16
100
AcDbVisualStyle
  2
Flat
 70
0
 90
2
 40
0.6
 62
7
290
0
291
1
  0
VISUALSTYLE
  5
63
102
{ACAD_REACTORS
330
16
102
}
330
16
100
AcDbVisualStyle
  2
FlatWithEdges
 70
1
 90
2
 40
0.6
 62
7
290
0
291
1
  0
VISUALSTYLE
  5
64
102
{ACAD_REACTORS
330
16
102
}
330
16
100
AcDbVisualStyle
  2
Gouraud
 70
2
 90
2
 40
0.6
 62
7
290
0
291
1
  0
VISUALSTYLE
  5
65
102
{ACAD_REACTORS
330
16
102
}
330
16
100
AcDbVisualStyle
  2
GouraudWithEdges
 70
3
 90
2
 40
0.6
 62
7
290
0
291
1
  0
VISUALSTYLE
  5
66
102
{ACAD_REACTORS
330
16
102
}
330
16
100
AcDbVisualStyle
  2
Hidden
 70
6
 90
1
 40
0.6
 62
7
290
0
291
0
  0
VISUALSTYLE
  5
67
102
{ACAD_REACTORS
330
16
102
}
330
16
100
AcDbVisualStyle
  2
JitterOff
 70
20
 90
2
 40
0.6
 62
7
290
0
291
1
  0
VISUALSTYLE
  5
68
102
{ACAD_REACTORS
330
16
102
}
330
16
100
AcDbVisualStyle
  2
Linepattern
 70
14
 90
2
 40
0.6
 62
7
290
0
291
1
  0
VISUALSTYLE
  5
69
102
{ACAD_REACTORS
330
16
102
}
330
16
100
AcDbVisualStyle
  2
Modeling
 70
10
 90
2
 40
0.6
 62
7
290
0
291
0
  0
VISUALSTYLE
  5
6A
102
{ACAD_REACTORS
330
16
102
}
330
16
100
AcDbVisualStyle
  2
OverhangOff
 70
21
 90
2
 40
0.6
 62
7
290
0
291
1
  0
VISUALSTYLE
  5
6B
102
{ACAD_REACTORS
330
16
102
}
330
16
100
AcDbVisualStyle
  2
Realistic
 70
8
 90
2
 40
0.6
 62
7
290
0
291
0
  0
VISUALSTYLE
  5
6C
102
{ACAD_REACTORS
330
16
102
}
330
16
100
AcDbVisualStyle
  2
Shaded
 70
27
 90
2
 40
0.6
 62
7
290
0
291
0
  0
VISUALSTYLE
  5
6D
102
{ACAD_REACTORS
330
16
102
}
330
16
100
AcDbVisualStyle
  2
Shaded with edges
 70
26
 90
2
 40
0.6
 62
7
290
0
291
0
  0
VISUALSTYLE
  5
6E
102
{ACAD_REACTORS
330
16
102
}
330
16
100
AcDbVisualStyle
  2
Shades of Gray
 70
23
 90
2
 40
0.6
 62
7
290
0
291
0
  0
VISUALSTYLE
  5
6F
102
{ACAD_REACTORS
330
16
102
}
330
16
100
AcDbVisualStyle
  2
Sketchy
 70
24
 90
1
 40
0.6
 62
7
290
0
291
0
  0
VISUALSTYLE
  5
70
102
{ACAD_REACTORS
330
16
102
}
330
16
100
AcDbVisualStyle
  2
Thicken
 70
13
 90
2
 40
0.6
 62
7
290
0
291
1
  0
VISUALSTYLE
  5
71
102
{ACAD_REACTORS
330
16
102
}
330
16
100
AcDbVisualStyle
  2
Wireframe
 70
5
 90
0
 40
0.6
 62
7
290
0
291
0
  0
VISUALSTYLE
  5
72
102
{ACAD_REACTORS
330
16
102
}
330
16
100
AcDbVisualStyle
  2
X-Ray
 70
25
 90
2
 40
0.5
 62
7
290
0
291
0
  0
DICTIONARYVAR
  5
28C
330
2D
100
DictionaryVariables
280
0
  1
1.4.4 @ 2026-10-06T22:41:32.938040+00:00
  0
ENDSEC
  0
EOF
